<svg width="28" height="29" viewBox="0 0 28 29" fill="none" xmlns="http://www.w3.org/2000/svg">
<g id="fluent:globe-12-filled" clip-path="url(#clip0_0_9437)">
<g id="Vector" filter="url(#filter0_di_0_9437)">
<mask id="path-1-inside-1_0_9437" fill="white">
<path d="M18.6433 16.0308H9.36127C9.50127 19.1248 10.1849 21.8105 11.1393 23.7192C12.2826 26.0058 13.4283 26.5308 13.9999 26.5308C14.5716 26.5308 15.7196 26.0058 16.8629 23.7192C17.8173 21.8105 18.5033 19.1225 18.6433 16.0308ZM9.35893 13.6975C9.49893 10.6035 10.1826 7.91784 11.1369 6.00918C12.2826 3.72251 13.4283 3.19751 13.9999 3.19751C14.5716 3.19751 15.7196 3.72251 16.8629 6.00918C17.8173 7.91784 18.5009 10.6058 18.6409 13.6975H9.35893ZM7.02327 13.6975H2.3916C2.60233 11.599 3.37801 9.59678 4.6361 7.90399C5.89419 6.2112 7.58763 4.89111 9.53627 4.08418C8.12693 6.41751 7.18193 9.83584 7.02327 13.6975ZM7.0256 16.0308H2.3916C2.60233 18.1294 3.37801 20.1316 4.6361 21.8244C5.89419 23.5172 7.58763 24.8372 9.53627 25.6442C8.12693 23.3108 7.18427 19.8925 7.0256 16.0308ZM20.9789 16.0308H25.6106C25.4001 18.1291 24.6248 20.1311 23.3671 21.8239C22.1094 23.5167 20.4165 24.8369 18.4683 25.6442C19.8753 23.3108 20.8179 19.8925 20.9766 16.0308M25.6083 13.6975H20.9766C20.8179 9.83584 19.8753 6.41751 18.4683 4.08418C20.4165 4.89145 22.1094 6.21168 23.3671 7.90444C24.6248 9.59721 25.3977 11.5992 25.6083 13.6975Z"/>
</mask>
<path d="M18.6433 16.0308H9.36127C9.50127 19.1248 10.1849 21.8105 11.1393 23.7192C12.2826 26.0058 13.4283 26.5308 13.9999 26.5308C14.5716 26.5308 15.7196 26.0058 16.8629 23.7192C17.8173 21.8105 18.5033 19.1225 18.6433 16.0308ZM9.35893 13.6975C9.49893 10.6035 10.1826 7.91784 11.1369 6.00918C12.2826 3.72251 13.4283 3.19751 13.9999 3.19751C14.5716 3.19751 15.7196 3.72251 16.8629 6.00918C17.8173 7.91784 18.5009 10.6058 18.6409 13.6975H9.35893ZM7.02327 13.6975H2.3916C2.60233 11.599 3.37801 9.59678 4.6361 7.90399C5.89419 6.2112 7.58763 4.89111 9.53627 4.08418C8.12693 6.41751 7.18193 9.83584 7.02327 13.6975ZM7.0256 16.0308H2.3916C2.60233 18.1294 3.37801 20.1316 4.6361 21.8244C5.89419 23.5172 7.58763 24.8372 9.53627 25.6442C8.12693 23.3108 7.18427 19.8925 7.0256 16.0308ZM20.9789 16.0308H25.6106C25.4001 18.1291 24.6248 20.1311 23.3671 21.8239C22.1094 23.5167 20.4165 24.8369 18.4683 25.6442C19.8753 23.3108 20.8179 19.8925 20.9766 16.0308M25.6083 13.6975H20.9766C20.8179 9.83584 19.8753 6.41751 18.4683 4.08418C20.4165 4.89145 22.1094 6.21168 23.3671 7.90444C24.6248 9.59721 25.3977 11.5992 25.6083 13.6975Z" fill="#D8FE0D" fill-opacity="0.83" shape-rendering="crispEdges"/>
<path d="M18.6433 16.0308H9.36127C9.50127 19.1248 10.1849 21.8105 11.1393 23.7192C12.2826 26.0058 13.4283 26.5308 13.9999 26.5308C14.5716 26.5308 15.7196 26.0058 16.8629 23.7192C17.8173 21.8105 18.5033 19.1225 18.6433 16.0308ZM9.35893 13.6975C9.49893 10.6035 10.1826 7.91784 11.1369 6.00918C12.2826 3.72251 13.4283 3.19751 13.9999 3.19751C14.5716 3.19751 15.7196 3.72251 16.8629 6.00918C17.8173 7.91784 18.5009 10.6058 18.6409 13.6975H9.35893ZM7.02327 13.6975H2.3916C2.60233 11.599 3.37801 9.59678 4.6361 7.90399C5.89419 6.2112 7.58763 4.89111 9.53627 4.08418C8.12693 6.41751 7.18193 9.83584 7.02327 13.6975ZM7.0256 16.0308H2.3916C2.60233 18.1294 3.37801 20.1316 4.6361 21.8244C5.89419 23.5172 7.58763 24.8372 9.53627 25.6442C8.12693 23.3108 7.18427 19.8925 7.0256 16.0308ZM20.9789 16.0308H25.6106C25.4001 18.1291 24.6248 20.1311 23.3671 21.8239C22.1094 23.5167 20.4165 24.8369 18.4683 25.6442C19.8753 23.3108 20.8179 19.8925 20.9766 16.0308M25.6083 13.6975H20.9766C20.8179 9.83584 19.8753 6.41751 18.4683 4.08418C20.4165 4.89145 22.1094 6.21168 23.3671 7.90444C24.6248 9.59721 25.3977 11.5992 25.6083 13.6975Z" fill="url(#paint0_linear_0_9437)" fill-opacity="0.2" shape-rendering="crispEdges"/>
<path d="M18.6433 16.0308H9.36127C9.50127 19.1248 10.1849 21.8105 11.1393 23.7192C12.2826 26.0058 13.4283 26.5308 13.9999 26.5308C14.5716 26.5308 15.7196 26.0058 16.8629 23.7192C17.8173 21.8105 18.5033 19.1225 18.6433 16.0308ZM9.35893 13.6975C9.49893 10.6035 10.1826 7.91784 11.1369 6.00918C12.2826 3.72251 13.4283 3.19751 13.9999 3.19751C14.5716 3.19751 15.7196 3.72251 16.8629 6.00918C17.8173 7.91784 18.5009 10.6058 18.6409 13.6975H9.35893ZM7.02327 13.6975H2.3916C2.60233 11.599 3.37801 9.59678 4.6361 7.90399C5.89419 6.2112 7.58763 4.89111 9.53627 4.08418C8.12693 6.41751 7.18193 9.83584 7.02327 13.6975ZM7.0256 16.0308H2.3916C2.60233 18.1294 3.37801 20.1316 4.6361 21.8244C5.89419 23.5172 7.58763 24.8372 9.53627 25.6442C8.12693 23.3108 7.18427 19.8925 7.0256 16.0308ZM20.9789 16.0308H25.6106C25.4001 18.1291 24.6248 20.1311 23.3671 21.8239C22.1094 23.5167 20.4165 24.8369 18.4683 25.6442C19.8753 23.3108 20.8179 19.8925 20.9766 16.0308M25.6083 13.6975H20.9766C20.8179 9.83584 19.8753 6.41751 18.4683 4.08418C20.4165 4.89145 22.1094 6.21168 23.3671 7.90444C24.6248 9.59721 25.3977 11.5992 25.6083 13.6975Z" fill="url(#paint1_linear_0_9437)" fill-opacity="0.29" style="mix-blend-mode:overlay" shape-rendering="crispEdges"/>
<path d="M18.6433 16.0308L20.0524 16.0947L20.1192 14.6202H18.6433V16.0308ZM9.36127 16.0308V14.6202H7.88538L7.9521 16.0946L9.36127 16.0308ZM9.35893 13.6975L7.94976 13.6337L7.88305 15.1081H9.35893V13.6975ZM11.1369 6.00918L9.87576 5.3773L9.87524 5.37833L11.1369 6.00918ZM18.6409 13.6975V15.1081H20.1169L20.0501 13.6337L18.6409 13.6975ZM7.02327 13.6975V15.1081H8.37711L8.43269 13.7554L7.02327 13.6975ZM2.3916 13.6975L0.988048 13.5566L0.832244 15.1081H2.3916V13.6975ZM9.53627 4.08418L10.7437 4.81348L12.9636 1.13812L8.99657 2.78089L9.53627 4.08418ZM7.0256 16.0308L8.43502 15.9729L8.37944 14.6202H7.0256V16.0308ZM2.3916 16.0308V14.6202H0.832244L0.988048 16.1718L2.3916 16.0308ZM9.53627 25.6442L8.99657 26.9475L12.9636 28.5902L10.7437 24.9149L9.53627 25.6442ZM25.6106 16.0308L27.0142 16.1717L27.1698 14.6202H25.6106V16.0308ZM18.4683 25.6442L17.2603 24.9158L15.045 28.5896L19.0083 26.9473L18.4683 25.6442ZM25.6083 13.6975V15.1081H27.1675L27.0118 13.5567L25.6083 13.6975ZM20.9766 13.6975L19.5672 13.7554L19.6228 15.1081H20.9766V13.6975ZM18.4683 4.08418L19.0083 2.78101L15.045 1.13875L17.2603 4.81259L18.4683 4.08418ZM18.6433 14.6202H9.36127V17.4415H18.6433V14.6202ZM7.9521 16.0946C8.09907 19.3426 8.81742 22.2297 9.87758 24.35L12.401 23.0883C11.5524 21.3913 10.9035 18.9071 10.7704 15.9671L7.9521 16.0946ZM9.87758 24.35C11.1052 26.8052 12.619 27.9415 13.9999 27.9415V25.1202C14.2376 25.1202 13.46 25.2065 12.401 23.0883L9.87758 24.35ZM13.9999 27.9415C15.3799 27.9415 16.8963 26.8066 18.1246 24.35L15.6012 23.0883C14.5429 25.2051 13.7633 25.1202 13.9999 25.1202V27.9415ZM18.1246 24.35C19.1845 22.2303 19.9054 19.341 20.0524 16.0947L17.2341 15.967C17.1011 18.904 16.45 21.3907 15.6012 23.0883L18.1246 24.35ZM10.7681 13.7613C10.9011 10.8213 11.5501 8.33704 12.3986 6.64002L9.87524 5.37833C8.81509 7.49864 8.09673 10.3858 7.94976 13.6337L10.7681 13.7613ZM12.3981 6.64105C13.4597 4.52221 14.2373 4.60812 13.9999 4.60812V1.7869C12.6193 1.7869 11.1055 2.92281 9.87576 5.3773L12.3981 6.64105ZM13.9999 4.60812C13.7633 4.60812 14.5429 4.52325 15.6012 6.64002L18.1246 5.37833C16.8963 2.92177 15.3799 1.7869 13.9999 1.7869V4.60812ZM15.6012 6.64002C16.4497 8.33696 17.0987 10.8235 17.2318 13.7613L20.0501 13.6337C19.9031 10.3882 19.1848 7.49873 18.1246 5.37833L15.6012 6.64002ZM18.6409 12.2869H9.35893V15.1081H18.6409V12.2869ZM7.02327 12.2869H2.3916V15.1081H7.02327V12.2869ZM3.79515 13.8385C3.98041 11.9936 4.66229 10.2335 5.76827 8.74542L3.50392 7.06255C2.09372 8.96002 1.22426 11.2043 0.988048 13.5566L3.79515 13.8385ZM5.76827 8.74542C6.87424 7.25731 8.36293 6.09683 10.076 5.38746L8.99657 2.78089C6.81233 3.68539 4.91413 5.16509 3.50392 7.06255L5.76827 8.74542ZM8.32881 3.35487C6.76588 5.94251 5.77947 9.60847 5.61385 13.6396L8.43269 13.7554C8.58439 10.0632 9.48799 6.89251 10.7437 4.81348L8.32881 3.35487ZM7.0256 14.6202H2.3916V17.4415H7.0256V14.6202ZM0.988048 16.1718C1.22426 18.5241 2.09372 20.7683 3.50392 22.6658L5.76827 20.9829C4.66229 19.4948 3.98041 17.7347 3.79515 15.8899L0.988048 16.1718ZM3.50392 22.6658C4.91413 24.5633 6.81233 26.043 8.99657 26.9475L10.076 24.3409C8.36293 23.6315 6.87424 22.471 5.76827 20.9829L3.50392 22.6658ZM10.7437 24.9149C9.48828 22.8363 8.58676 19.6659 8.43502 15.9729L5.61618 16.0888C5.78178 20.1192 6.76559 23.7854 8.32881 26.3735L10.7437 24.9149ZM20.9789 17.4415H25.6106V14.6202H20.9789V17.4415ZM24.207 15.89C24.022 17.7346 23.3404 19.4946 22.2348 20.9827L24.4994 22.6652C25.9091 20.7677 26.7782 18.5237 27.0142 16.1717L24.207 15.89ZM22.2348 20.9827C21.1292 22.4707 19.6409 23.6313 17.9283 24.341L19.0083 26.9473C21.192 26.0425 23.0897 24.5626 24.4994 22.6652L22.2348 20.9827ZM19.6763 26.3726C21.2366 23.785 22.2204 20.1192 22.386 16.0888L19.5672 15.9729C19.4154 19.6658 18.5139 22.8367 17.2603 24.9158L19.6763 26.3726ZM25.6083 12.2869H20.9766V15.1081H25.6083V12.2869ZM22.386 13.6396C22.2204 9.60912 21.2366 5.9434 19.6763 3.35576L17.2603 4.81259C18.5139 6.89162 19.4154 10.0626 19.5672 13.7554L22.386 13.6396ZM17.9283 5.38734C19.6409 6.09701 21.1292 7.25761 22.2348 8.7457L24.4994 7.06319C23.0897 5.16575 21.192 3.68589 19.0083 2.78101L17.9283 5.38734ZM22.2348 8.7457C23.3398 10.233 24.0195 11.9927 24.2047 13.8383L27.0118 13.5567C26.776 11.2057 25.9097 8.96144 24.4994 7.06319L22.2348 8.7457Z" fill="url(#paint2_linear_0_9437)" fill-opacity="0.62" style="mix-blend-mode:overlay" mask="url(#path-1-inside-1_0_9437)"/>
</g>
</g>
<defs>
<filter id="filter0_di_0_9437" x="2.3916" y="1.08159" width="24.6296" height="28.2704" filterUnits="userSpaceOnUse" color-interpolation-filters="sRGB">
<feFlood flood-opacity="0" result="BackgroundImageFix"/>
<feColorMatrix in="SourceAlpha" type="matrix" values="0 0 0 0 0 0 0 0 0 0 0 0 0 0 0 0 0 0 127 0" result="hardAlpha"/>
<feOffset dx="1.41061" dy="2.82122"/>
<feComposite in2="hardAlpha" operator="out"/>
<feColorMatrix type="matrix" values="0 0 0 0 0.329679 0 0 0 0 0.389167 0 0 0 0 0.00875629 0 0 0 1 0"/>
<feBlend mode="normal" in2="BackgroundImageFix" result="effect1_dropShadow_0_9437"/>
<feBlend mode="normal" in="SourceGraphic" in2="effect1_dropShadow_0_9437" result="shape"/>
<feColorMatrix in="SourceAlpha" type="matrix" values="0 0 0 0 0 0 0 0 0 0 0 0 0 0 0 0 0 0 127 0" result="hardAlpha"/>
<feOffset dy="-4.23184"/>
<feGaussianBlur stdDeviation="1.05796"/>
<feComposite in2="hardAlpha" operator="arithmetic" k2="-1" k3="1"/>
<feColorMatrix type="matrix" values="0 0 0 0 1 0 0 0 0 1 0 0 0 0 1 0 0 0 0.25 0"/>
<feBlend mode="normal" in2="shape" result="effect2_innerShadow_0_9437"/>
</filter>
<linearGradient id="paint0_linear_0_9437" x1="14.0011" y1="3.19751" x2="14.0011" y2="26.5308" gradientUnits="userSpaceOnUse">
<stop stop-color="white"/>
<stop offset="1" stop-color="white" stop-opacity="0"/>
</linearGradient>
<linearGradient id="paint1_linear_0_9437" x1="5.24121" y1="9.34902" x2="24.4136" y2="24.0005" gradientUnits="userSpaceOnUse">
<stop offset="0.439763" stop-color="white" stop-opacity="0"/>
<stop offset="0.443782" stop-color="white"/>
<stop offset="0.923293" stop-color="white" stop-opacity="0"/>
</linearGradient>
<linearGradient id="paint2_linear_0_9437" x1="10.8422" y1="3.96146" x2="14.5048" y2="24.3244" gradientUnits="userSpaceOnUse">
<stop stop-color="white"/>
<stop offset="1" stop-color="white" stop-opacity="0"/>
</linearGradient>
<clipPath id="clip0_0_9437">
<rect width="28" height="28" fill="white" transform="translate(0 0.864258)"/>
</clipPath>
</defs>
</svg>
