<svg width="245" height="200" viewBox="0 0 245 200" fill="none" xmlns="http://www.w3.org/2000/svg">
<path d="M100.15 33.3759L42.8468 103.489C18.5008 99.235 0 77.8597 0 52.1253C0 23.3448 23.1978 0 51.7971 0C73.8468 0 92.6869 13.865 100.15 33.3759Z" fill="#D0F603"/>
<path d="M163.872 101.256L244.53 199.808H178.25C169.248 199.808 160.845 196.132 155.861 190.04L126.27 153.749L123.557 150.493L120.869 153.749L91.278 190.04C86.294 196.132 77.8916 199.808 68.8891 199.808H2.60962L91.278 91.3562C93.5221 89.0979 95.5574 86.6032 97.3318 83.951L97.384 83.8985L155.861 12.3936C160.845 6.30135 169.248 2.625 178.25 2.625H244.53L163.872 101.177H163.924L163.872 101.256Z" fill="#D0F603"/>
</svg>
