<svg width="1440" height="334" viewBox="0 0 1440 334" fill="none" xmlns="http://www.w3.org/2000/svg">
<path d="M-79.4994 329.745L-66.6522 332.523M-79.4994 329.745L-41.4279 329.745M-79.4994 329.745L-92.7735 326.876M-79.4994 329.745L-106.462 329.745M-66.6522 332.523L-71.327 332.522L-75.9534 332.516L-80.4835 332.499L-84.8715 332.466L-89.0692 332.412L-93.0319 332.331L-96.7123 332.218L-100.128 332.073L-103.06 331.874L-105.728 331.643L-106.462 331.562L-106.462 329.745M-66.6522 332.523L-29.1929 332.523M-29.1929 332.523L8.26645 332.523M-29.1929 332.523L-41.4279 329.745M8.26645 332.523L45.7267 332.523M8.26645 332.523L-3.3564 329.745M45.7267 332.523L83.1861 332.523M45.7267 332.523L34.7143 329.745M83.1861 332.523L120.645 332.523M83.1861 332.523L72.7856 329.745M120.645 332.523L158.106 332.523M120.645 332.523L110.857 329.745M158.106 332.523L195.565 332.523M158.106 332.523L148.929 329.745M195.565 332.523L233.024 332.523M195.565 332.523L187 329.745M233.024 332.523L270.485 332.523M233.024 332.523L225.072 329.745M270.485 332.523L307.944 332.523M270.485 332.523L263.143 329.745M307.944 332.523L345.403 332.523M307.944 332.523L301.215 329.745M345.403 332.523L382.863 332.523M345.403 332.523L339.286 329.745M382.863 332.523L420.323 332.523M382.863 332.523L381.504 331.837L379.443 330.798L377.358 329.745M420.323 332.523L457.782 332.523M420.323 332.523L419.115 331.837L415.429 329.745M457.782 332.523L495.242 332.523M457.782 332.523L453.5 329.745M495.242 332.523L532.702 332.523M495.242 332.523L493.88 331.492L492.5 330.449L492.037 330.098L491.571 329.745M532.702 332.523L570.161 332.523M532.702 332.523L531.567 331.492L531.184 331.146L530.801 330.798L529.643 329.745M570.161 332.523L607.621 332.523M570.161 332.523L567.714 329.745M607.621 332.523L607.394 332.181L607.168 331.837L606.019 330.098L605.786 329.745M607.621 332.523L645.08 332.523M645.08 332.523L682.541 332.523M645.08 332.523L643.857 329.745M682.541 332.523L720 332.523M682.541 332.523L682.313 331.492L681.928 329.745M720 332.523L757.459 332.523M720 332.523L720 329.745M757.459 332.523L794.92 332.523M757.459 332.523L757.687 331.492L758.071 329.745M794.92 332.523L832.379 332.523M794.92 332.523L796.143 329.745M832.379 332.523L832.605 332.181L832.832 331.837L833.981 330.098L834.214 329.745M832.379 332.523L869.838 332.523M869.838 332.523L907.299 332.523M869.838 332.523L871.975 330.098L872.286 329.745M907.299 332.523L944.758 332.523M907.299 332.523L908.433 331.492L908.815 331.146L909.583 330.449L909.969 330.098L910.357 329.745M944.758 332.523L982.217 332.523M944.758 332.523L946.12 331.492L947.5 330.449L947.963 330.098L948.429 329.745M982.217 332.523L1019.68 332.523M982.217 332.523L986.499 329.745M1019.68 332.523L1057.14 332.523M1019.68 332.523L1020.89 331.837L1024.57 329.745M1057.14 332.523L1094.6 332.523M1057.14 332.523L1062.64 329.745M1094.6 332.523L1132.06 332.523M1094.6 332.523L1100.71 329.746M1132.06 332.523L1169.52 332.523M1132.06 332.523L1138.79 329.746M1169.52 332.523L1206.98 332.523M1169.52 332.523L1176.86 329.746M1206.98 332.523L1244.43 332.523M1206.98 332.523L1214.93 329.746M1244.43 332.523L1281.89 332.523M1244.43 332.523L1253 329.746M1281.89 332.523L1319.35 332.523M1281.89 332.523L1291.07 329.746M1319.35 332.523L1356.81 332.523M1319.35 332.523L1329.14 329.746M1356.81 332.523L1394.27 332.523M1356.81 332.523L1367.21 329.746M1394.27 332.523L1431.73 332.523M1394.27 332.523L1405.29 329.746M1431.73 332.523L1469.19 332.523M1431.73 332.523L1443.36 329.746M1469.19 332.523L1506.65 332.523M1469.19 332.523L1481.43 329.746M1506.65 332.523L1511.33 332.522L1515.95 332.516L1520.48 332.499L1524.87 332.466L1529.07 332.412L1533.03 332.331L1536.71 332.218L1540.13 332.074L1543.06 331.874L1545.73 331.643L1546.46 331.562L1546.46 329.746M1506.65 332.523L1519.5 329.746M1443.36 329.746L1405.29 329.746M1443.36 329.746L1481.43 329.746M1443.36 329.746L1455.37 326.876M1405.29 329.746L1416.66 326.876M1405.29 329.746L1367.21 329.746M1291.07 329.746L1253 329.746M1291.07 329.746L1329.14 329.746M1291.07 329.746L1293.41 329.037L1300.55 326.876M1253 329.746L1261.85 326.876M1253 329.746L1214.93 329.746M1138.79 329.746L1100.71 329.746M1138.79 329.746L1176.86 329.746M1138.79 329.746L1140.5 329.037L1141.37 328.681L1145.74 326.876M1100.71 329.746L1101.49 329.392L1102.27 329.037L1107.03 326.876M1100.71 329.746L1062.64 329.745M986.499 329.745L987.045 329.392L990.924 326.876M986.499 329.745L948.429 329.745M986.499 329.745L1024.57 329.745M948.429 329.745L949.365 329.037L949.836 328.681L950.309 328.323L952.221 326.876M948.429 329.745L910.357 329.745M834.214 329.745L796.143 329.745M834.214 329.745L872.286 329.745M834.214 329.745L836.11 326.876M796.143 329.745L796.299 329.392L796.454 329.037L796.612 328.681L797.087 327.602L797.407 326.876M796.143 329.745L758.071 329.745M681.928 329.745L643.857 329.745M681.928 329.745L720 329.745M681.928 329.745L681.296 326.876M643.857 329.745L643.701 329.392L643.545 329.037L643.388 328.681L642.593 326.876M643.857 329.745L605.786 329.745M529.643 329.745L491.571 329.745M529.643 329.745L567.714 329.745M529.643 329.745L528.863 329.037L527.282 327.602L526.883 327.24L526.482 326.876M491.571 329.745L490.635 329.037L490.163 328.681L489.691 328.323L487.779 326.876M491.571 329.745L453.5 329.745M377.358 329.745L339.286 329.745M377.358 329.745L415.429 329.745M377.358 329.745L375.953 329.037L375.246 328.681L371.669 326.876M339.286 329.745L338.507 329.392L337.725 329.037L332.965 326.876M339.286 329.745L301.215 329.745M225.072 329.745L187 329.745M225.072 329.745L263.143 329.745M225.072 329.745L223.042 329.037L222.021 328.681L216.854 326.876M187 329.745L178.151 326.876M187 329.745L148.929 329.745M72.7856 329.745L34.7143 329.745M72.7856 329.745L110.857 329.745M72.7856 329.745L62.0408 326.876M34.7143 329.745L23.3366 326.876M34.7143 329.745L-3.3564 329.745M1546.6 303.768L1546.46 303.768M1508.28 303.768L1493.74 307.434M1508.28 303.768L1523.37 299.961M1508.28 303.768L1464.48 303.768M1508.28 303.768L1546.46 303.768M1493.74 307.434L1536.73 307.434M1493.74 307.434L1479.73 310.967M1493.74 307.434L1450.75 307.434M1536.73 307.434L1521.94 310.968M1536.73 307.434L1546.46 307.434M1536.73 307.434L1546.46 305.108M1493.91 317.665L1453.18 317.665M1493.91 317.665L1480.62 320.841M1493.91 317.665L1534.65 317.665M1493.91 317.665L1507.68 314.376M1453.18 317.665L1440.59 320.841M1453.18 317.665L1466.22 314.376M1453.18 317.665L1412.45 317.665M1480.62 320.841L1440.59 320.841M1480.62 320.841L1467.78 323.909M1480.62 320.841L1520.66 320.841M1440.59 320.841L1400.56 320.841M1440.59 320.841L1428.42 323.909M1546.88 245.899L1546.46 245.899M1511.54 245.899L1492.8 251.977M1511.54 245.899L1531.22 239.518M1511.54 245.899L1455.01 245.899M1511.54 245.899L1546.46 245.899M1492.8 251.977L1474.92 257.774M1492.8 251.977L1437.6 251.977M1492.8 251.977L1546.46 251.977M1528.85 257.774L1474.92 257.774M1528.85 257.774L1510.56 263.31M1528.85 257.774L1546.46 257.774M1528.85 257.774L1546.46 252.443M1493.08 268.6L1441.54 268.6M1493.08 268.6L1476.36 273.661M1493.08 268.6L1544.62 268.6M1493.08 268.6L1510.56 263.31M1441.54 268.6L1425.94 273.661M1441.54 268.6L1457.86 263.31M1441.54 268.6L1390 268.6M1476.36 273.661L1425.94 273.661M1476.36 273.661L1526.78 273.661M1476.36 273.661L1460.35 278.509M1425.94 273.661L1410.99 278.509M1425.94 273.661L1375.51 273.661M1430.27 287.612L1382.92 287.612M1430.27 287.612L1416.13 291.892M1430.27 287.612L1477.62 287.612M1430.27 287.612L1445 283.155M1382.92 287.612L1369.72 291.892M1382.92 287.612L1396.66 283.155M1382.92 287.612L1335.57 287.612M1416.13 291.892L1369.72 291.892M1416.13 291.892L1462.54 291.892M1416.13 291.892L1402.54 296.005M1369.72 291.892L1357.04 296.005M1369.72 291.892L1323.31 291.892M1376.9 303.768L1333.1 303.768M1376.9 303.768L1364.78 307.434M1376.9 303.768L1420.69 303.768M1376.9 303.768L1389.47 299.961M1333.1 303.768L1321.8 307.434M1333.1 303.768L1344.84 299.961M1333.1 303.768L1289.31 303.768M1364.78 307.434L1321.8 307.434M1364.78 307.434L1407.77 307.434M1364.78 307.434L1353.11 310.967M1321.8 307.434L1310.9 310.967M1321.8 307.434L1278.81 307.434M1330.98 317.665L1290.25 317.665M1330.98 317.665L1320.49 320.841M1330.98 317.665L1371.72 317.665M1330.98 317.665L1341.85 314.376M1290.25 317.665L1280.46 320.841M1290.25 317.665L1300.39 314.376M1290.25 317.665L1249.52 317.665M1320.49 320.841L1280.46 320.841M1320.49 320.841L1310.35 323.909M1320.49 320.841L1360.52 320.841M1280.46 320.841L1240.43 320.841M1280.46 320.841L1271 323.909M1517.5 140.516L1491.12 152.493M1517.5 140.516L1545.74 127.69M1517.5 140.516L1437.75 140.516M1517.5 140.516L1546.46 140.516M1491.12 152.493L1466.42 163.704M1491.12 152.493L1414 152.493M1491.12 152.493L1546.46 152.493M1491.65 184.1L1421.5 184.1M1491.65 184.1L1469.11 193.405M1491.65 184.1L1515.59 174.218M1491.65 184.1L1546.46 184.1M1421.5 184.1L1401.01 193.405M1421.5 184.1L1443.27 174.218M1421.5 184.1L1351.35 184.1M1469.11 193.405L1401.01 193.405M1469.11 193.405L1537.21 193.405M1469.11 193.405L1447.84 202.181M1401.01 193.405L1381.68 202.181M1401.01 193.405L1332.91 193.405M1408.75 218.319L1346.13 218.319M1408.75 218.319L1390.73 225.755M1408.75 218.319L1471.36 218.319M1408.75 218.319L1427.76 210.473M1346.13 218.319L1329.75 225.755M1346.13 218.319L1363.42 210.473M1346.13 218.319L1283.52 218.319M1390.73 225.755L1329.75 225.755M1390.73 225.755L1451.71 225.755M1390.73 225.755L1373.63 232.812M1329.75 225.755L1314.21 232.812M1329.75 225.755L1268.78 225.755M1341.93 245.899L1285.39 245.899M1341.93 245.899L1327.2 251.977M1341.93 245.899L1398.47 245.899M1341.93 245.899L1357.39 239.518M1285.39 245.899L1272 251.977M1285.39 245.899L1299.44 239.518M1285.39 245.899L1228.85 245.899M1327.2 251.977L1272 251.977M1327.2 251.977L1382.4 251.977M1327.2 251.977L1313.15 257.774M1272 251.977L1259.23 257.774M1272 251.977L1216.8 251.977M1286.93 268.6L1235.39 268.6M1286.93 268.6L1274.66 273.661M1286.93 268.6L1338.47 268.6M1286.93 268.6L1299.74 263.31M1235.39 268.6L1224.24 273.661M1235.39 268.6L1247.04 263.31M1235.39 268.6L1183.85 268.6M1274.66 273.661L1224.24 273.661M1274.66 273.661L1325.09 273.661M1274.66 273.661L1262.92 278.509M1224.24 273.661L1213.56 278.509M1224.24 273.661L1173.82 273.661M1240.86 287.612L1193.51 287.612M1240.86 287.612L1230.5 291.892M1240.86 287.612L1288.22 287.612M1240.86 287.612L1251.66 283.155M1193.51 287.612L1192.31 288.157L1184.09 291.892M1193.51 287.612L1203.33 283.155M1193.51 287.612L1146.16 287.612M1230.5 291.892L1184.09 291.892M1230.5 291.892L1276.9 291.892M1230.5 291.892L1220.53 296.005M1184.09 291.892L1175.03 296.005M1184.09 291.892L1137.68 291.892M1201.72 303.768L1157.93 303.768M1201.72 303.768L1192.84 307.434M1201.72 303.768L1245.52 303.768M1201.72 303.768L1210.95 299.961M1157.93 303.768L1149.86 307.434M1157.93 303.768L1161.04 302.357L1166.32 299.961M1157.93 303.768L1114.14 303.768M1192.84 307.434L1149.86 307.434M1192.84 307.434L1235.83 307.434M1192.84 307.434L1184.28 310.967M1149.86 307.434L1142.07 310.967M1149.86 307.434L1106.87 307.434M1168.06 317.665L1127.32 317.665M1168.06 317.665L1160.36 320.841M1168.06 317.665L1208.79 317.665M1168.06 317.665L1176.02 314.376M1127.32 317.665L1122.05 320.056L1121.19 320.45L1120.33 320.841M1127.32 317.665L1134.57 314.376M1127.32 317.665L1086.59 317.665M1160.36 320.841L1120.33 320.841M1160.36 320.841L1152.93 323.909M1160.36 320.841L1200.39 320.841M1120.33 320.841L1080.3 320.84M1120.33 320.841L1113.57 323.909M1488.6 4.0791L1378.8 4.07909M1488.6 4.0791L1454.03 26.5037M1488.6 4.0791L1526.59 -20.5628M1488.6 4.0791L1546.46 4.07864M1378.8 4.07909L1349.17 26.5037M1378.8 4.07909L1411.36 -20.5628M1378.8 4.07909L1269 4.07908M1454.03 26.5037L1349.17 26.5037M1454.03 26.5037L1422.43 46.9978M1454.03 26.5037L1546.46 26.5037M1349.17 26.5037L1322.08 46.9978M1349.17 26.5037L1244.3 26.5037M1366.75 83.1125L1274.36 83.1125M1366.75 83.1125L1342.09 99.1049M1366.75 83.1125L1459.14 83.1125M1366.75 83.1125L1393.44 65.8004M1274.36 83.1125L1253.22 99.1049M1274.36 83.1125L1297.23 65.8004M1274.36 83.1125L1181.96 83.1124M1342.09 99.1049L1253.22 99.1049M1342.09 99.1049L1430.96 99.1049M1342.09 99.1049L1319.25 113.922M1253.22 99.1049L1233.64 113.922M1253.22 99.1049L1164.35 99.1049M1278.25 140.516L1198.5 140.516M1278.25 140.516L1259.78 152.493M1278.25 140.516L1358 140.516M1278.25 140.516L1298.02 127.69M1198.5 140.516L1182.67 152.493M1198.5 140.516L1215.45 127.69M1198.5 140.516L1118.75 140.516M1259.78 152.493L1182.67 152.493M1259.78 152.493L1336.89 152.493M1259.78 152.493L1242.5 163.704M1182.67 152.493L1167.85 163.704M1182.67 152.493L1105.56 152.493M1211.05 184.1L1140.9 184.1M1211.05 184.1L1196.7 193.405M1211.05 184.1L1281.2 184.1M1211.05 184.1L1226.29 174.218M1140.9 184.1L1128.6 193.405M1140.9 184.1L1153.96 174.218M1140.9 184.1L1070.75 184.1M1196.7 193.405L1128.6 193.405M1196.7 193.405L1264.81 193.405M1196.7 193.405L1183.17 202.181M1128.6 193.405L1117.01 202.181M1128.6 193.405L1060.5 193.405M1158.29 218.319L1095.68 218.319M1158.29 218.319L1146.83 225.755M1158.29 218.319L1220.91 218.319M1158.29 218.319L1170.39 210.473M1095.68 218.319L1085.85 225.755M1095.68 218.319L1106.05 210.473M1095.68 218.319L1033.07 218.319M1146.83 225.755L1085.85 225.755M1146.83 225.755L1207.8 225.755M1146.83 225.755L1135.95 232.812M1085.85 225.755L1076.53 232.812M1085.85 225.755L1024.88 225.755M1115.77 245.899L1059.23 245.899M1115.77 245.899L1106.4 251.977M1115.77 245.899L1172.31 245.899M1115.77 245.899L1125.61 239.518M1059.23 245.899L1051.2 251.977M1059.23 245.899L1067.67 239.518M1059.23 245.899L1002.69 245.899M1106.4 251.977L1051.2 251.977M1106.4 251.977L1161.6 251.977M1106.4 251.977L1097.46 257.774M1051.2 251.977L1043.54 257.774M1051.2 251.977L996 251.977M1080.77 268.6L1029.23 268.6M1080.77 268.6L1072.97 273.661M1080.77 268.6L1132.31 268.6M1080.77 268.6L1088.93 263.31M1029.23 268.6L1022.54 273.661M1029.23 268.6L1036.22 263.31M1029.23 268.6L977.694 268.6M1072.97 273.661L1022.54 273.661M1072.97 273.661L1123.39 273.661M1072.97 273.661L1065.49 278.509M1022.54 273.661L1016.14 278.509M1022.54 273.661L972.12 273.661M1051.46 287.612L1004.11 287.612M1051.46 287.612L1044.86 291.892M1051.46 287.612L1098.81 287.612M1051.46 287.612L1058.33 283.155M1004.11 287.612L1004.83 287.065L1010 283.155M1004.11 287.612L998.452 291.892M1004.11 287.612L956.756 287.612M1044.86 291.892L998.452 291.892M1044.86 291.892L1091.27 291.892M1044.86 291.892L1038.52 296.005M998.452 291.892L993.016 296.005M998.452 291.892L952.043 291.892M1026.55 303.768L982.759 303.768M1026.55 303.768L1020.9 307.434M1026.55 303.768L1070.34 303.768M1026.55 303.768L1032.42 299.961M982.759 303.768L977.914 307.434M982.759 303.768L984.623 302.357L985.88 301.405L987.789 299.961M982.759 303.768L938.966 303.768M1020.9 307.434L977.914 307.434M1020.9 307.434L1063.88 307.434M1020.9 307.434L1015.45 310.967M977.914 307.434L976.142 308.774L974.974 309.658L973.243 310.967M977.914 307.434L934.928 307.434M1005.13 317.664L964.394 317.664M1005.13 317.664L1001.44 320.056L1000.23 320.84M1005.13 317.664L1045.86 317.664M1005.13 317.664L1009.55 314.793L1010.2 314.375M964.394 317.664L961.232 320.056L960.714 320.45L960.196 320.84M964.394 317.664L966.548 316.035L968.74 314.375M964.394 317.664L923.662 317.664M1000.23 320.84L960.196 320.84M1000.23 320.84L995.498 323.909M1000.23 320.84L1040.26 320.84M960.196 320.84L920.164 320.84M960.196 320.84L956.142 323.909M1049.4 4.07907L939.6 4.07906M1049.4 4.07907L1034.58 26.5037M1049.4 4.07907L1159.2 4.07908M1049.4 4.07907L1065.68 -20.5628M939.6 4.07906L929.721 26.5037M939.6 4.07906L950.454 -20.5628M939.6 4.07906L829.8 4.07905M1034.58 26.5037L929.721 26.5037M1034.58 26.5037L1139.44 26.5037M1034.58 26.5037L1021.04 46.9978M929.721 26.5037L920.694 46.9978M929.721 26.5037L824.861 26.5037M997.178 83.1124L904.786 83.1124M997.178 83.1124L986.611 99.1049M997.178 83.1124L1089.57 83.1124M997.178 83.1124L1008.62 65.8004M904.786 83.1124L897.741 99.1049M904.786 83.1124L912.411 65.8004M904.786 83.1124L812.392 83.1124M986.611 99.1049L897.741 99.1049M986.611 99.1049L1075.48 99.1049M986.611 99.1049L976.82 113.922M897.741 99.1049L891.213 113.922M897.741 99.1049L808.87 99.1048M959.249 140.516L879.499 140.516M959.249 140.516L951.334 152.493M959.249 140.516L1039 140.516M959.249 140.516L967.723 127.69M879.499 140.516L874.223 152.493M879.499 140.516L885.148 127.69M879.499 140.516L799.749 140.516M951.334 152.493L874.223 152.493M951.334 152.493L1028.45 152.493M951.334 152.493L943.927 163.704M874.223 152.493L869.285 163.704M874.223 152.493L797.111 152.493M930.45 184.1L860.3 184.1M930.45 184.1L924.302 193.404M930.45 184.1L1000.6 184.1M930.45 184.1L936.98 174.218M860.3 184.1L856.202 193.404M860.3 184.1L864.653 174.218M860.3 184.1L790.15 184.1M924.302 193.404L856.202 193.404M924.302 193.404L992.403 193.404M924.302 193.404L918.503 202.181M856.202 193.404L852.335 202.181M856.202 193.404L788.1 193.404M907.84 218.319L845.226 218.319M907.84 218.319L902.927 225.755M907.84 218.319L970.453 218.319M907.84 218.319L913.024 210.473M845.226 218.319L841.951 225.755M845.226 218.319L848.683 210.473M845.226 218.319L782.613 218.319M902.927 225.755L841.951 225.755M902.927 225.755L963.902 225.755M902.927 225.755L898.263 232.812M841.951 225.755L838.842 232.812M841.951 225.755L780.976 225.755M889.617 245.899L833.078 245.899M889.617 245.899L885.6 251.977M889.617 245.899L946.155 245.899M889.617 245.899L893.832 239.518M833.078 245.899L830.4 251.977M833.078 245.899L835.889 239.518M833.078 245.899L776.538 245.899M885.6 251.977L830.4 251.977M885.6 251.977L940.8 251.977M885.6 251.977L884.142 254.183L881.769 257.774M830.4 251.977L827.846 257.774M830.4 251.977L775.2 251.977M874.616 268.6L823.078 268.6M874.616 268.6L871.272 273.661M874.616 268.6L926.156 268.6M874.616 268.6L877.223 264.654L878.112 263.31M823.078 268.6L822.23 270.524L820.848 273.661M823.078 268.6L825.408 263.31M823.078 268.6L771.538 268.6M871.272 273.661L870.864 274.279L868.069 278.509M871.272 273.661L820.848 273.661M871.272 273.661L921.696 273.661M820.848 273.661L820.036 275.504L819.769 276.111L819.502 276.715L818.713 278.509M820.848 273.661L770.424 273.661M862.054 287.612L814.703 287.612M862.054 287.612L860.626 289.774L860.273 290.307L859.922 290.839L859.573 291.367L859.226 291.892M862.054 287.612L909.405 287.612M862.054 287.612L864.999 283.155M814.703 287.612L813.282 290.839L813.048 291.367L812.818 291.892M814.703 287.612L816.666 283.155M814.703 287.612L767.351 287.612M859.226 291.892L812.818 291.892M859.226 291.892L905.634 291.892M859.226 291.892L857.515 294.482L857.178 294.992L856.508 296.005M812.818 291.892L811.677 294.482L811.451 294.992L811.228 295.5L811.005 296.005M812.818 291.892L766.408 291.892M851.379 303.768L807.586 303.768M851.379 303.768L848.956 307.434M851.379 303.768L895.173 303.768M851.379 303.768L852 302.83L852.941 301.405L853.894 299.961M807.586 303.768L807.793 303.3L809.05 300.445L809.263 299.961M807.586 303.768L805.971 307.434M807.586 303.768L763.793 303.768M848.956 307.434L805.971 307.434M848.956 307.434L891.942 307.434M848.956 307.434L846.622 310.967M805.971 307.434L805.38 308.774L805.186 309.217L804.991 309.658L804.414 310.967M805.971 307.434L762.985 307.434M842.197 317.664L801.465 317.664M842.197 317.664L840.616 320.056L840.099 320.84M842.197 317.664L882.929 317.664M842.197 317.664L843.003 316.445L843.274 316.035L843.546 315.623L844.37 314.375M801.465 317.664L801.287 318.067L800.935 318.868L800.584 319.662L800.066 320.84M801.465 317.664L802.183 316.035L802.364 315.623L802.73 314.793L802.913 314.375M801.465 317.664L760.732 317.664M840.099 320.84L800.066 320.84M840.099 320.84L838.321 323.531L838.07 323.909M840.099 320.84L880.131 320.84M800.066 320.84L799.894 321.23L799.723 321.617L799.553 322.003L799.384 322.388L798.88 323.531L798.713 323.909M800.066 320.84L760.032 320.84M610.2 4.07903L500.4 4.07902M610.2 4.07903L615.139 26.5037M610.2 4.07903L720 4.07904M610.2 4.07903L604.772 -20.5629M500.4 4.07902L510.278 26.5037M500.4 4.07902L489.545 -20.5629M500.4 4.07902L390.6 4.07901M615.139 26.5037L510.278 26.5037M615.139 26.5037L720 26.5037M615.139 26.5037L619.653 46.9977M510.278 26.5037L519.306 46.9977M510.278 26.5037L405.417 26.5036M627.608 83.1124L535.214 83.1124M627.608 83.1124L631.129 99.1048M627.608 83.1124L720 83.1124M627.608 83.1124L623.794 65.8003M535.214 83.1124L542.259 99.1048M535.214 83.1124L527.588 65.8003M535.214 83.1124L442.822 83.1124M631.129 99.1048L542.259 99.1048M631.129 99.1048L720 99.1048M631.129 99.1048L634.393 113.922M542.259 99.1048L548.786 113.922M542.259 99.1048L453.389 99.1048M640.251 140.516L560.501 140.516M640.251 140.516L642.888 152.493M640.251 140.516L720 140.516M640.251 140.516L637.425 127.69M560.501 140.516L565.777 152.493M560.501 140.516L554.851 127.69M560.501 140.516L480.751 140.516M642.888 152.493L565.777 152.493M642.888 152.493L720 152.493M642.888 152.493L645.358 163.703M565.777 152.493L570.715 163.703M565.777 152.493L488.666 152.493M649.85 184.1L579.699 184.1M649.85 184.1L651.899 193.404M649.85 184.1L720 184.1M649.85 184.1L647.673 174.218M579.699 184.1L583.798 193.404M579.699 184.1L575.347 174.218M579.699 184.1L509.55 184.1M651.899 193.404L583.798 193.404M651.899 193.404L720 193.404M651.899 193.404L653.832 202.181M583.798 193.404L587.664 202.181M583.798 193.404L515.698 193.404M657.387 218.319L594.774 218.319M657.387 218.319L659.024 225.755M657.387 218.319L720 218.319M657.387 218.319L655.658 210.473M594.774 218.319L598.049 225.755M594.774 218.319L591.317 210.472M594.774 218.319L532.16 218.319M659.024 225.755L598.049 225.755M659.024 225.755L720 225.755M659.024 225.755L660.579 232.812M598.049 225.755L601.157 232.812M598.049 225.755L537.073 225.755M663.461 245.899L606.922 245.899M663.461 245.899L664.8 251.977M663.461 245.899L720 245.899M663.461 245.899L662.055 239.518M606.922 245.899L609.6 251.977M606.922 245.899L604.111 239.518M606.922 245.899L550.383 245.899M664.8 251.977L609.6 251.977M664.8 251.977L720 251.977M664.8 251.977L666.077 257.774M609.6 251.977L612.154 257.774M609.6 251.977L554.399 251.977M668.461 268.6L616.922 268.6M668.461 268.6L669.576 273.661M668.461 268.6L720 268.6M668.461 268.6L667.296 263.31M616.922 268.6L618.879 273.041L619.152 273.661M616.922 268.6L614.592 263.31M616.922 268.6L565.384 268.6M669.576 273.661L669.711 274.279L670.644 278.509M669.576 273.661L619.152 273.661M669.576 273.661L720 273.661M619.152 273.661L619.964 275.504L620.23 276.111L620.497 276.715L621.287 278.509M619.152 273.661L568.728 273.661M672.649 287.612L625.297 287.612M672.649 287.612L673.591 291.892M672.649 287.612L720 287.612M672.649 287.612L672.285 285.962L672.162 285.407L672.04 284.848L671.792 283.722L671.666 283.155M625.297 287.612L626.718 290.839L627.183 291.892M625.297 287.612L623.334 283.155M625.297 287.612L577.946 287.612M673.591 291.892L627.183 291.892M673.591 291.892L720 291.892M673.591 291.892L674.497 296.005M627.183 291.892L628.323 294.482L628.548 294.992L628.771 295.5L628.994 296.005M627.183 291.892L580.774 291.892M676.207 303.768L632.414 303.768M676.207 303.768L677.014 307.434M676.207 303.768L720 303.768M676.207 303.768L675.368 299.961M632.414 303.768L632.207 303.3L630.95 300.445L630.737 299.961M632.414 303.768L634.029 307.434M632.414 303.768L588.621 303.768M677.014 307.434L634.029 307.434M677.014 307.434L720 307.434M677.014 307.434L677.793 310.967M634.029 307.434L634.62 308.774L634.814 309.217L635.009 309.658L635.586 310.967M634.029 307.434L591.044 307.434M679.267 317.664L638.535 317.664M679.267 317.664L679.967 320.84M679.267 317.664L720 317.664M679.267 317.664L678.543 314.375M638.535 317.664L638.713 318.067L639.066 318.868L639.241 319.266L639.59 320.056L639.762 320.45L639.935 320.84M638.535 317.664L637.817 316.035L637.636 315.622L637.27 314.793L637.087 314.375M638.535 317.664L597.803 317.664M679.967 320.84L680.053 321.23L680.139 321.617L680.223 322.003L680.643 323.909M679.967 320.84L639.935 320.84M679.967 320.84L720 320.84M639.935 320.84L599.901 320.84M639.935 320.84L640.277 321.617L640.447 322.003L640.616 322.388L641.119 323.531L641.286 323.909M170.999 4.07899L61.1997 4.07898M170.999 4.07899L195.695 26.5036M170.999 4.07899L280.799 4.079M170.999 4.07899L143.862 -20.5629M61.1997 4.07898L90.8345 26.5036M61.1997 4.07898L28.6355 -20.5629M61.1997 4.07898L-48.6009 4.07897M195.695 26.5036L90.8345 26.5036M195.695 26.5036L300.556 26.5036M195.695 26.5036L218.264 46.9977M90.8345 26.5036L117.917 46.9977M90.8345 26.5036L-14.0272 26.5036M258.036 83.1124L165.643 83.1124M258.036 83.1124L275.648 99.1048M258.036 83.1124L350.429 83.1124M258.036 83.1124L238.971 65.8003M165.643 83.1124L186.777 99.1048M165.643 83.1124L142.765 65.8003M165.643 83.1124L73.2506 83.1124M275.648 99.1048L186.777 99.1048M275.648 99.1048L364.518 99.1048M275.648 99.1048L291.966 113.922M186.777 99.1048L206.359 113.922M186.777 99.1048L97.9067 99.1048M321.252 140.516L241.503 140.516M321.252 140.516L334.443 152.493M321.252 140.516L401.002 140.516M321.252 140.516L307.127 127.69M241.503 140.516L257.33 152.493M241.503 140.516L224.553 127.69M241.503 140.516L161.753 140.516M334.443 152.493L257.33 152.493M334.443 152.493L411.554 152.493M334.443 152.493L346.788 163.703M257.33 152.493L272.145 163.703M257.33 152.493L180.22 152.493M369.25 184.1L299.099 184.1M369.25 184.1L379.496 193.404M369.25 184.1L439.4 184.1M369.25 184.1L358.367 174.218M299.099 184.1L311.396 193.404M299.099 184.1L286.04 174.218M299.099 184.1L228.949 184.1M379.496 193.404L311.396 193.404M379.496 193.404L447.597 193.404M379.496 193.404L389.161 202.181M311.396 193.404L322.993 202.181M311.396 193.404L243.295 193.404M406.934 218.319L344.321 218.319M406.934 218.319L415.122 225.755M406.934 218.319L469.547 218.319M406.934 218.319L398.293 210.472M344.321 218.319L354.147 225.755M344.321 218.319L333.951 210.472M344.321 218.319L281.707 218.319M415.122 225.755L354.147 225.755M415.122 225.755L476.098 225.755M415.122 225.755L422.894 232.812M354.147 225.755L363.472 232.812M354.147 225.755L293.171 225.755M437.305 245.899L380.767 245.899M437.305 245.899L444 251.977M437.305 245.899L493.845 245.899M437.305 245.899L430.279 239.518M380.767 245.899L388.8 251.977M380.767 245.899L372.334 239.518M380.767 245.899L324.228 245.899M444 251.977L388.8 251.977M444 251.977L499.199 251.977M444 251.977L450.384 257.774M388.8 251.977L396.461 257.774M388.8 251.977L333.6 251.977M462.306 268.6L461.592 267.951L460.873 267.3L456.48 263.31M462.306 268.6L410.767 268.6M462.306 268.6L467.88 273.661M462.306 268.6L513.844 268.6M410.767 268.6L417.456 273.661M410.767 268.6L403.776 263.31M410.767 268.6L359.228 268.6M467.88 273.661L417.456 273.661M467.88 273.661L518.304 273.661M467.88 273.661L473.218 278.509M417.456 273.661L423.861 278.509M417.456 273.661L367.032 273.661M483.244 287.612L435.892 287.612M483.244 287.612L487.957 291.892M483.244 287.612L530.595 287.612M483.244 287.612L478.335 283.155M435.892 287.612L439.454 290.307L441.548 291.892M435.892 287.612L430.001 283.155M435.892 287.612L388.541 287.612M487.957 291.892L441.548 291.892M487.957 291.892L534.365 291.892M487.957 291.892L491.929 295.5L492.486 296.005M441.548 291.892L446.983 296.005M441.548 291.892L395.139 291.892M501.034 303.768L457.241 303.768M501.034 303.768L502.058 304.697L505.072 307.434M501.034 303.768L544.827 303.768M501.034 303.768L500.001 302.83L497.905 300.926L496.842 299.961M457.241 303.768L462.086 307.434M457.241 303.768L455.377 302.357L454.119 301.405L452.211 299.961M457.241 303.768L413.448 303.768M505.072 307.434L462.086 307.434M505.072 307.434L548.058 307.434M505.072 307.434L508.004 310.097L508.964 310.967M462.086 307.434L463.858 308.774L465.025 309.658L466.757 310.967M462.086 307.434L419.101 307.434M516.338 317.664L475.606 317.664M516.338 317.664L518.539 319.662L519.836 320.84M516.338 317.664L557.071 317.664M516.338 317.664L512.716 314.375M475.606 317.664L478.768 320.056L479.286 320.45L479.803 320.84M475.606 317.664L473.452 316.035L471.26 314.375M475.606 317.664L434.874 317.664M519.836 320.84L479.803 320.84M519.836 320.84L521.54 322.388L522.381 323.152L522.799 323.531L523.215 323.909M519.836 320.84L559.869 320.84M479.803 320.84L439.77 320.84M479.803 320.84L483.858 323.909M-79.8342 99.1048L9.03625 99.1048M-79.8342 99.1048L-50.4622 113.922M-79.8342 99.1048L-106.462 99.1048M-79.8342 99.1048L-106.462 85.6717M2.25405 140.516L-77.4952 140.516M2.25405 140.516L25.9959 152.493M2.25405 140.516L82.0033 140.516M2.25405 140.516L-23.17 127.69M-77.4952 140.516L-51.1156 152.493M-77.4952 140.516L-105.745 127.69M-77.4952 140.516L-106.462 140.516M25.9959 152.493L-51.1156 152.493M25.9959 152.493L103.107 152.493M25.9959 152.493L48.2182 163.703M-51.1156 152.493L-26.4242 163.703M-51.1156 152.493L-106.462 152.493M88.6494 184.1L18.4992 184.1M88.6494 184.1L107.093 193.404M88.6494 184.1L158.8 184.1M88.6494 184.1L69.0606 174.218M18.4992 184.1L38.9921 193.404M18.4992 184.1L-3.26601 174.218M18.4992 184.1L-51.651 184.1M107.093 193.404L38.9921 193.404M107.093 193.404L175.194 193.404M107.093 193.404L124.49 202.181M38.9921 193.404L58.3226 202.181M38.9921 193.404L-29.1084 193.404M156.48 218.319L93.8673 218.319M156.48 218.319L171.22 225.755M156.48 218.319L219.093 218.319M156.48 218.319L140.927 210.472M93.8673 218.319L110.245 225.755M93.8673 218.319L76.5849 210.472M93.8673 218.319L31.2534 218.319M171.22 225.755L110.245 225.755M171.22 225.755L232.195 225.755M171.22 225.755L185.209 232.812M110.245 225.755L125.788 232.812M110.245 225.755L49.2694 225.755M211.15 245.899L154.611 245.899M211.15 245.899L223.199 251.977M211.15 245.899L267.689 245.899M211.15 245.899L198.502 239.518M154.611 245.899L167.999 251.977M154.611 245.899L140.557 239.518M154.611 245.899L98.0728 245.899M223.199 251.977L167.999 251.977M223.199 251.977L278.399 251.977M223.199 251.977L234.691 257.774M167.999 251.977L180.768 257.774M167.999 251.977L112.799 251.977M256.15 268.6L204.612 268.6M256.15 268.6L266.184 273.661M256.15 268.6L307.689 268.6M256.15 268.6L245.663 263.31M204.612 268.6L215.76 273.661M204.612 268.6L192.959 263.31M204.612 268.6L153.073 268.6M266.184 273.661L215.76 273.661M266.184 273.661L316.607 273.661M266.184 273.661L275.792 278.509M215.76 273.661L226.436 278.509M215.76 273.661L165.336 273.661M293.838 287.612L246.487 287.612M293.838 287.612L302.322 291.892M293.838 287.612L341.19 287.612M293.838 287.612L285.002 283.155M246.487 287.612L255.913 291.892M246.487 287.612L236.669 283.155M246.487 287.612L199.135 287.612M302.322 291.892L255.913 291.892M302.322 291.892L348.731 291.892M302.322 291.892L310.475 296.005M255.913 291.892L264.972 296.005M255.913 291.892L209.505 291.892M325.862 303.767L282.069 303.767M325.862 303.767L333.13 307.434M325.862 303.767L369.655 303.768M325.862 303.767L324.002 302.83L323.066 302.357L318.315 299.961M282.069 303.767L290.144 307.434M282.069 303.767L273.684 299.961M282.069 303.767L238.276 303.767M333.13 307.434L290.144 307.434M333.13 307.434L376.115 307.434M333.13 307.434L340.134 310.967M290.144 307.434L297.927 310.967M290.144 307.434L247.159 307.434M353.409 317.664L312.677 317.664M353.409 317.664L359.705 320.84M353.409 317.664L394.142 317.664M353.409 317.664L346.889 314.375M312.677 317.664L317.946 320.056L318.81 320.45L319.672 320.84M312.677 317.664L305.433 314.375M312.677 317.664L271.945 317.664M359.705 320.84L319.672 320.84M359.705 320.84L365.038 323.531L365.788 323.909M359.705 320.84L399.737 320.84M319.672 320.84L279.639 320.84M319.672 320.84L326.43 323.909M-93.9728 218.319L-72.6819 225.755M-93.9728 218.319L-31.3596 218.319M-93.9728 218.319L-106.462 213.957M-93.9728 218.319L-106.462 218.319M-72.6819 225.755L-11.7062 225.755M-72.6819 225.755L-52.4766 232.812M-72.6819 225.755L-106.462 225.755M-15.0052 245.899L-71.5447 245.899M-15.0052 245.899L2.39959 251.977M-15.0052 245.899L41.5333 245.899M-15.0052 245.899L-33.2752 239.518M-71.5447 245.899L-52.8012 251.977M-71.5447 245.899L-91.2197 239.518M-71.5447 245.899L-106.462 245.899M2.39959 251.977L-52.8012 251.977M2.39959 251.977L57.5994 251.977M2.39959 251.977L18.9986 257.774M-52.8012 251.977L-34.9247 257.774M-52.8012 251.977L-106.462 251.977M49.9952 268.6L-1.54423 268.6M49.9952 268.6L64.4875 273.661M49.9952 268.6L101.534 268.6M49.9952 268.6L34.8468 263.31M-1.54423 268.6L14.0639 273.661M-1.54423 268.6L-17.8565 263.31M-1.54423 268.6L-53.0827 268.6M64.4875 273.661L14.0639 273.661M64.4875 273.661L114.912 273.661M64.4875 273.661L78.3669 278.509M14.0639 273.661L29.0099 278.509M14.0639 273.661L-36.3607 273.661M104.433 287.612L57.082 287.612M104.433 287.612L116.688 291.892M104.433 287.612L151.784 287.612M104.433 287.612L91.6703 283.155M57.082 287.612L70.2787 291.892M57.082 287.612L43.337 283.155M57.082 287.612L9.73004 287.612M116.688 291.892L70.2787 291.892M116.688 291.892L163.096 291.892M116.688 291.892L128.464 296.005M70.2787 291.892L82.9615 296.005M70.2787 291.892L23.8703 291.892M150.689 303.767L106.896 303.767M150.689 303.767L161.187 307.434M150.689 303.767L194.482 303.767M150.689 303.767L139.789 299.961M106.896 303.767L118.201 307.434M106.896 303.767L95.1578 299.961M106.896 303.767L63.1032 303.767M161.187 307.434L118.201 307.434M161.187 307.434L204.173 307.434M161.187 307.434L171.305 310.967M118.201 307.434L129.098 310.967M118.201 307.434L75.216 307.434M190.48 317.664L149.747 317.664M190.48 317.664L199.574 320.84M190.48 317.664L231.212 317.664M190.48 317.664L181.063 314.375M149.747 317.664L159.541 320.84M149.747 317.664L139.606 314.375M149.747 317.664L109.015 317.664M199.574 320.84L159.541 320.84M199.574 320.84L208.36 323.909M199.574 320.84L239.606 320.84M159.541 320.84L119.507 320.84M159.541 320.84L169.003 323.909M-84.9721 287.612L-68.9465 291.892M-84.9721 287.612L-37.621 287.612M-84.9721 287.612L-101.662 283.155M-84.9721 287.612L-106.462 287.612M-68.9465 291.892L-22.5381 291.892M-68.9465 291.892L-53.5468 296.005M-68.9465 291.892L-106.462 291.892M-24.4829 303.767L-68.2759 303.767M-24.4829 303.767L-10.755 307.434M-24.4829 303.767L19.3102 303.767M-24.4829 303.767L-38.7368 299.961M-68.2759 303.767L-53.7405 307.434M-68.2759 303.767L-83.3683 299.961M-68.2759 303.767L-106.462 303.767M-10.755 307.434L-53.7405 307.434M-10.755 307.434L32.2306 307.434M-10.755 307.434L2.4762 310.967M-53.7405 307.434L-39.7311 310.967M-53.7405 307.434L-96.726 307.434M27.5507 317.664L-13.1818 317.664M27.5507 317.664L39.4423 320.84M27.5507 317.664L68.2832 317.664M27.5507 317.664L15.2364 314.375M-13.1818 317.664L-0.590329 320.84M-13.1818 317.664L-26.2201 314.375M-13.1818 317.664L-53.9144 317.664M39.4423 320.84L-0.590329 320.84M39.4423 320.84L50.9317 323.909M39.4423 320.84L79.4748 320.84M-0.590329 320.84L-40.6239 320.84M-0.590329 320.84L11.575 323.909M-26.2201 314.375L-39.7311 310.967M-26.2201 314.375L-67.6775 314.375M-26.2201 314.375L15.2364 314.375M-53.9144 317.664L-40.6239 320.84M-53.9144 317.664L-67.6775 314.375M-53.9144 317.664L-94.646 317.664M-40.6239 320.84L-80.6564 320.84M-40.6239 320.84L-27.7819 323.909M11.575 323.909L50.9317 323.909M11.575 323.909L-27.7819 323.909M11.575 323.909L23.3366 326.876M-67.6775 314.375L-81.9392 310.967M-67.6775 314.375L-106.462 314.375M-94.646 317.664L-80.6564 320.84M-94.646 317.664L-106.462 314.982M-94.646 317.664L-106.462 317.664M-80.6564 320.84L-67.1386 323.909M-80.6564 320.84L-106.462 320.84M-27.7819 323.909L-67.1386 323.909M-27.7819 323.909L-15.3668 326.876M-67.1386 323.909L-54.0701 326.876M-67.1386 323.909L-106.462 323.909M-39.7311 310.967L-81.9392 310.967M-39.7311 310.967L2.4762 310.967M-96.726 307.434L-81.9392 310.967M-96.726 307.434L-106.462 305.108M-96.726 307.434L-106.462 307.434M-81.9392 310.967L-106.462 310.967M2.4762 310.967L44.6834 310.967M2.4762 310.967L15.2364 314.375M15.2364 314.375L56.6929 314.375M-83.3683 299.961L-99.0495 296.005M-83.3683 299.961L-38.7368 299.961M-83.3683 299.961L-106.462 299.961M-106.595 303.767L-106.462 303.767M-99.0495 296.005L-53.5468 296.005M-99.0495 296.005L-106.462 294.136M-99.0495 296.005L-106.462 296.005M-53.5468 296.005L-8.04405 296.005M-53.5468 296.005L-38.7368 299.961M-38.7368 299.961L5.89478 299.961M139.606 314.375L129.098 310.967M139.606 314.375L98.1494 314.375M139.606 314.375L181.063 314.375M109.015 317.664L119.507 320.84M109.015 317.664L98.1494 314.375M109.015 317.664L68.2832 317.664M119.507 320.84L79.4748 320.84M119.507 320.84L129.646 323.909M169.003 323.909L129.646 323.909M169.003 323.909L178.151 326.876M169.003 323.909L208.36 323.909M98.1494 314.375L86.8906 310.967M98.1494 314.375L56.6929 314.375M68.2832 317.664L79.4748 320.84M68.2832 317.664L56.6929 314.375M79.4748 320.84L90.2886 323.909M129.646 323.909L90.2886 323.909M129.646 323.909L139.448 326.876M56.6929 314.375L44.6834 310.967M50.9317 323.909L90.2886 323.909M50.9317 323.909L62.0408 326.876M90.2886 323.909L100.744 326.876M129.098 310.967L86.8906 310.967M129.098 310.967L171.305 310.967M75.216 307.434L86.8906 310.967M75.216 307.434L63.1032 303.767M75.216 307.434L32.2306 307.434M86.8906 310.967L44.6834 310.967M171.305 310.967L213.512 310.967M171.305 310.967L181.063 314.375M44.6834 310.967L32.2306 307.434M181.063 314.375L222.52 314.375M63.1032 303.767L50.5263 299.961M63.1032 303.767L19.3102 303.767M32.2306 307.434L19.3102 303.767M19.3102 303.767L5.89478 299.961M95.1578 299.961L82.9615 296.005M95.1578 299.961L50.5263 299.961M95.1578 299.961L139.789 299.961M50.5263 299.961L37.4588 296.005M50.5263 299.961L5.89478 299.961M5.89478 299.961L-8.04405 296.005M82.9615 296.005L37.4588 296.005M82.9615 296.005L128.464 296.005M23.8703 291.892L37.4588 296.005M23.8703 291.892L9.73004 287.612M23.8703 291.892L-22.5381 291.892M37.4588 296.005L-8.04405 296.005M128.464 296.005L173.967 296.005M128.464 296.005L139.789 299.961M-8.04405 296.005L-22.5381 291.892M139.789 299.961L184.421 299.961M9.73004 287.612L-4.99644 283.155M9.73004 287.612L-37.621 287.612M-22.5381 291.892L-37.621 287.612M-37.621 287.612L-53.3289 283.155M43.337 283.155L29.0099 278.509M43.337 283.155L-4.99644 283.155M43.337 283.155L91.6703 283.155M-4.99644 283.155L-20.3462 278.509M-4.99644 283.155L-53.3289 283.155M-53.3289 283.155L-69.7024 278.509M-53.3289 283.155L-101.662 283.155M-101.662 283.155L-106.462 283.155M-101.662 283.155L-106.462 281.873M29.0099 278.509L-20.3462 278.509M29.0099 278.509L78.3669 278.509M-36.3607 273.661L-20.3462 278.509M-36.3607 273.661L-53.0827 268.6M-36.3607 273.661L-86.7842 273.661M-20.3462 278.509L-69.7024 278.509M78.3669 278.509L127.723 278.509M78.3669 278.509L91.6703 283.155M-69.7024 278.509L-86.7842 273.661M-69.7024 278.509L-106.462 278.509M91.6703 283.155L140.003 283.155M-53.0827 268.6L-70.5606 263.31M-53.0827 268.6L-104.621 268.6M-86.7842 273.661L-104.621 268.6M-86.7842 273.661L-106.462 273.661M-106.72 278.509L-106.462 278.509M-104.621 268.6L-106.462 268.078M-104.621 268.6L-106.462 268.6M-17.8565 263.31L-34.9247 257.774M-17.8565 263.31L-70.5606 263.31M-17.8565 263.31L34.8468 263.31M-70.5606 263.31L-88.8479 257.774M-70.5606 263.31L-106.462 263.309M-106.907 267.951L-106.462 268.078M-34.9247 257.774L-88.8479 257.774M-34.9247 257.774L18.9986 257.774M-88.8479 257.774L-106.462 257.774M-88.8479 257.774L-106.462 252.443M18.9986 257.774L72.9217 257.774M18.9986 257.774L34.8468 263.31M34.8468 263.31L87.5509 263.31M-91.2197 239.518L-33.2752 239.518M-91.2197 239.518L-106.462 234.575M-91.2197 239.518L-106.462 239.518M-106.881 245.899L-106.462 245.899M-33.2752 239.518L24.6692 239.518M-33.2752 239.518L-52.4766 232.812M-106.63 234.52L-106.462 234.575M305.433 314.375L297.927 310.967M305.433 314.375L263.976 314.375M305.433 314.375L346.889 314.375M271.945 317.664L279.639 320.84M271.945 317.664L263.976 314.375M271.945 317.664L231.212 317.664M279.639 320.84L239.606 320.84M279.639 320.84L287.073 323.909M326.43 323.909L287.073 323.909M326.43 323.909L328.907 325.033L332.965 326.876M326.43 323.909L365.788 323.909M263.976 314.375L255.72 310.967M263.976 314.375L222.52 314.375M231.212 317.664L239.606 320.84M231.212 317.664L222.52 314.375M239.606 320.84L247.717 323.909M287.073 323.909L247.717 323.909M287.073 323.909L294.261 326.876M222.52 314.375L213.512 310.967M208.36 323.909L216.854 326.876M208.36 323.909L247.717 323.909M247.717 323.909L248.711 324.286L250.688 325.033L255.558 326.876M297.927 310.967L255.72 310.967M297.927 310.967L340.134 310.967M247.159 307.434L255.72 310.967M247.159 307.434L238.276 303.767M247.159 307.434L204.173 307.434M255.72 310.967L213.512 310.967M340.134 310.967L382.341 310.967M340.134 310.967L346.889 314.375M213.512 310.967L204.173 307.434M346.889 314.375L388.347 314.375M238.276 303.767L229.052 299.961M238.276 303.767L194.482 303.767M204.173 307.434L202.981 306.983L194.482 303.767M194.482 303.767L184.421 299.961M273.684 299.961L272.614 299.474L264.972 296.005M273.684 299.961L229.052 299.961M273.684 299.961L318.315 299.961M229.052 299.961L219.47 296.005M229.052 299.961L184.421 299.961M184.421 299.961L173.967 296.005M264.972 296.005L219.47 296.005M264.972 296.005L310.475 296.005M209.505 291.892L219.47 296.005M209.505 291.892L199.135 287.612M209.505 291.892L163.096 291.892M219.47 296.005L173.967 296.005M310.475 296.005L355.978 296.005M310.475 296.005L318.315 299.961M173.967 296.005L163.096 291.892M318.315 299.961L362.947 299.961M199.135 287.612L188.336 283.155M199.135 287.612L151.784 287.612M163.096 291.892L151.784 287.612M151.784 287.612L140.003 283.155M236.669 283.155L226.436 278.509M236.669 283.155L188.336 283.155M236.669 283.155L285.002 283.155M188.336 283.155L177.079 278.509M188.336 283.155L140.003 283.155M140.003 283.155L127.723 278.509M226.436 278.509L177.079 278.509M226.436 278.509L275.792 278.509M165.336 273.661L177.079 278.509M165.336 273.661L153.073 268.6M165.336 273.661L114.912 273.661M177.079 278.509L127.723 278.509M275.792 278.509L325.148 278.509M275.792 278.509L285.002 283.155M127.723 278.509L114.912 273.661M285.002 283.155L333.336 283.155M153.073 268.6L140.255 263.31M153.073 268.6L101.534 268.6M114.912 273.661L101.534 268.6M101.534 268.6L87.5509 263.31M192.959 263.31L180.768 257.774M192.959 263.31L140.255 263.31M192.959 263.31L245.663 263.31M140.255 263.31L126.845 257.774M140.255 263.31L87.5509 263.31M87.5509 263.31L72.9217 257.774M180.768 257.774L126.845 257.774M180.768 257.774L234.691 257.774M112.799 251.977L126.845 257.774M112.799 251.977L98.0728 245.899M112.799 251.977L57.5994 251.977M126.845 257.774L72.9217 257.774M234.691 257.774L288.614 257.774M234.691 257.774L245.663 263.31M72.9217 257.774L57.5994 251.977M245.663 263.31L298.368 263.31M98.0728 245.899L82.6137 239.518M98.0728 245.899L41.5333 245.899M57.5994 251.977L41.5333 245.899M41.5333 245.899L24.6692 239.518M140.557 239.518L125.788 232.812M140.557 239.518L82.6137 239.518M140.557 239.518L198.502 239.518M82.6137 239.518L66.366 232.812M82.6137 239.518L24.6692 239.518M24.6692 239.518L6.94506 232.812M125.788 232.812L66.366 232.812M125.788 232.812L185.209 232.812M49.2694 225.755L66.366 232.812M49.2694 225.755L31.2534 218.319M49.2694 225.755L-11.7062 225.755M66.366 232.812L6.94506 232.812M185.209 232.812L244.63 232.812M185.209 232.812L198.502 239.518M6.94506 232.812L-11.7062 225.755M6.94506 232.812L-52.4766 232.812M198.502 239.518L256.446 239.518M31.2534 218.319L12.2439 210.472M31.2534 218.319L-31.3596 218.319M-11.7062 225.755L-31.3596 218.319M-52.4766 232.812L-106.462 232.812M-31.3596 218.319L-52.0979 210.472M76.5849 210.472L58.3226 202.181M76.5849 210.472L12.2439 210.472M76.5849 210.472L140.927 210.472M12.2439 210.472L-7.8451 202.181M12.2439 210.472L-52.0979 210.472M-52.0979 210.472L-74.0128 202.181M-52.0979 210.472L-106.462 210.472M58.3226 202.181L-7.8451 202.181M58.3226 202.181L124.49 202.181M-29.1084 193.404L-7.8451 202.181M-29.1084 193.404L-51.651 184.1M-29.1084 193.404L-97.2088 193.404M-7.8451 202.181L-74.0128 202.181M124.49 202.181L190.658 202.181M124.49 202.181L140.927 210.472M-74.0128 202.181L-97.2088 193.404M-74.0128 202.181L-106.462 202.181M140.927 210.472L205.268 210.472M-51.651 184.1L-75.5926 174.218M-51.651 184.1L-106.462 184.1M-97.2088 193.404L-106.462 193.404M-97.2088 193.404L-106.462 189.904M-3.26601 174.218L-26.4242 163.703M-3.26601 174.218L-75.5926 174.218M-3.26601 174.218L69.0606 174.218M-75.5926 174.218L-101.067 163.703M-75.5926 174.218L-106.462 174.218M-26.4242 163.703L-101.067 163.703M-26.4242 163.703L48.2182 163.703M-101.067 163.703L-106.462 161.477M-101.067 163.703L-106.462 163.703M48.2182 163.703L122.861 163.703M48.2182 163.703L69.0606 174.218M69.0606 174.218L141.387 174.218M-105.745 127.69L-23.17 127.69M-105.745 127.69L-106.462 127.69M-105.745 127.69L-106.462 127.365M-23.17 127.69L59.4039 127.69M-23.17 127.69L-50.4622 113.922M471.26 314.375L469.59 313.112L469.029 312.687L466.757 310.967M471.26 314.375L429.803 314.375M471.26 314.375L512.716 314.375M434.874 317.664L438.562 320.056L439.77 320.84M434.874 317.664L430.446 314.793L429.803 314.375M434.874 317.664L394.142 317.664M439.77 320.84L399.737 320.84M439.77 320.84L444.502 323.909M483.858 323.909L444.502 323.909M483.858 323.909L485.344 325.033L487.779 326.876M483.858 323.909L523.215 323.909M429.803 314.375L428.507 313.535L424.549 310.967M429.803 314.375L388.347 314.375M394.142 317.664L399.737 320.84M394.142 317.664L388.347 314.375M399.737 320.84L403.81 323.152L405.145 323.909M444.502 323.909L405.145 323.909M444.502 323.909L449.075 326.876M388.347 314.375L382.341 310.967M365.788 323.909L366.533 324.286L371.669 326.876M365.788 323.909L405.145 323.909M405.145 323.909L407.126 325.033L410.372 326.876M466.757 310.967L424.549 310.967M466.757 310.967L508.964 310.967M419.101 307.434L424.549 310.967M419.101 307.434L413.448 303.768M419.101 307.434L376.115 307.434M424.549 310.967L382.341 310.967M508.964 310.967L551.171 310.967M508.964 310.967L512.716 314.375M382.341 310.967L376.115 307.434M512.716 314.375L554.173 314.375M413.448 303.768L409.806 301.405L409.067 300.926L407.579 299.961M413.448 303.768L369.655 303.768M376.115 307.434L369.655 303.768M369.655 303.768L362.947 299.961M452.211 299.961L446.983 296.005M452.211 299.961L407.579 299.961M452.211 299.961L496.842 299.961M407.579 299.961L401.481 296.005M407.579 299.961L362.947 299.961M362.947 299.961L355.978 296.005M446.983 296.005L401.481 296.005M446.983 296.005L492.486 296.005M395.139 291.892L399.132 294.482L399.918 294.992L401.481 296.005M395.139 291.892L388.541 287.612M395.139 291.892L348.731 291.892M401.481 296.005L355.978 296.005M492.486 296.005L537.989 296.005M492.486 296.005L496.842 299.961M355.978 296.005L348.731 291.892M496.842 299.961L541.474 299.961M388.541 287.612L381.668 283.155M388.541 287.612L341.19 287.612M348.731 291.892L341.19 287.612M341.19 287.612L333.336 283.155M430.001 283.155L426.963 280.856L426.195 280.274L423.861 278.509M430.001 283.155L381.668 283.155M430.001 283.155L478.335 283.155M381.668 283.155L374.505 278.509M381.668 283.155L333.336 283.155M333.336 283.155L325.148 278.509M423.861 278.509L374.505 278.509M423.861 278.509L473.218 278.509M367.032 273.661L374.505 278.509M367.032 273.661L359.228 268.6M367.032 273.661L316.607 273.661M374.505 278.509L325.148 278.509M473.218 278.509L522.575 278.509M473.218 278.509L474.518 279.689L478.335 283.155M325.148 278.509L316.607 273.661M478.335 283.155L526.667 283.155M359.228 268.6L351.072 263.31M359.228 268.6L307.689 268.6M316.607 273.661L307.689 268.6M307.689 268.6L298.368 263.31M403.776 263.31L396.461 257.774M403.776 263.31L351.072 263.31M403.776 263.31L456.48 263.31M351.072 263.31L342.538 257.774M351.072 263.31L298.368 263.31M298.368 263.31L288.614 257.774M396.461 257.774L342.538 257.774M396.461 257.774L450.384 257.774M333.6 251.977L342.538 257.774M333.6 251.977L324.228 245.899M333.6 251.977L278.399 251.977M342.538 257.774L288.614 257.774M450.384 257.774L504.307 257.774M450.384 257.774L456.48 263.31M288.614 257.774L278.399 251.977M456.48 263.31L509.183 263.31M324.228 245.899L314.391 239.518M324.228 245.899L267.689 245.899M278.399 251.977L267.689 245.899M267.689 245.899L256.446 239.518M372.334 239.518L363.472 232.812M372.334 239.518L314.391 239.518M372.334 239.518L430.279 239.518M314.391 239.518L304.051 232.812M314.391 239.518L256.446 239.518M256.446 239.518L244.63 232.812M363.472 232.812L304.051 232.812M363.472 232.812L422.894 232.812M293.171 225.755L304.051 232.812M293.171 225.755L281.707 218.319M293.171 225.755L232.195 225.755M304.051 232.812L244.63 232.812M422.894 232.812L482.315 232.812M422.894 232.812L430.279 239.518M244.63 232.812L232.195 225.755M430.279 239.518L488.223 239.518M281.707 218.319L269.609 210.472M281.707 218.319L219.093 218.319M232.195 225.755L219.093 218.319M219.093 218.319L205.268 210.472M333.951 210.472L322.993 202.181M333.951 210.472L269.609 210.472M333.951 210.472L398.293 210.472M269.609 210.472L256.826 202.181M269.609 210.472L205.268 210.472M205.268 210.472L190.658 202.181M322.993 202.181L256.826 202.181M322.993 202.181L389.161 202.181M243.295 193.404L256.826 202.181M243.295 193.404L228.949 184.1M243.295 193.404L175.194 193.404M256.826 202.181L190.658 202.181M389.161 202.181L455.329 202.181M389.161 202.181L398.293 210.472M190.658 202.181L175.194 193.404M398.293 210.472L462.634 210.472M228.949 184.1L213.714 174.218M228.949 184.1L158.8 184.1M175.194 193.404L158.8 184.1M158.8 184.1L141.387 174.218M286.04 174.218L272.145 163.703M286.04 174.218L213.714 174.218M286.04 174.218L358.367 174.218M213.714 174.218L197.503 163.703M213.714 174.218L141.387 174.218M141.387 174.218L122.861 163.703M272.145 163.703L197.503 163.703M272.145 163.703L346.788 163.703M180.22 152.493L197.503 163.703M180.22 152.493L161.753 140.516M180.22 152.493L103.107 152.493M197.503 163.703L122.861 163.703M346.788 163.703L421.43 163.703M346.788 163.703L358.367 174.218M122.861 163.703L103.107 152.493M358.367 174.218L430.694 174.218M161.753 140.516L141.979 127.69M161.753 140.516L82.0033 140.516M103.107 152.493L82.0033 140.516M82.0033 140.516L59.4039 127.69M224.553 127.69L206.359 113.922M224.553 127.69L141.979 127.69M224.553 127.69L307.127 127.69M141.979 127.69L120.752 113.922M141.979 127.69L59.4039 127.69M59.4039 127.69L35.1447 113.922M206.359 113.922L120.752 113.922M206.359 113.922L291.966 113.922M97.9067 99.1048L120.752 113.922M97.9067 99.1048L73.2506 83.1124M97.9067 99.1048L9.03625 99.1048M120.752 113.922L35.1447 113.922M291.966 113.922L377.573 113.922M291.966 113.922L307.127 127.69M35.1447 113.922L9.03625 99.1048M35.1447 113.922L-50.4622 113.922M307.127 127.69L389.702 127.69M73.2506 83.1124L46.5593 65.8003M73.2506 83.1124L-19.1419 83.1123M9.03625 99.1048L-19.1419 83.1123M-50.4622 113.922L-106.462 113.922M-19.1419 83.1123L-49.6469 65.8003M-19.1419 83.1123L-106.462 83.1123M142.765 65.8003L117.917 46.9977M142.765 65.8003L46.5593 65.8003M142.765 65.8003L238.971 65.8003M46.5593 65.8003L17.5703 46.9977M46.5593 65.8003L-49.6469 65.8003M-49.6469 65.8003L-82.7768 46.9977M-49.6469 65.8003L-106.462 65.8003M117.917 46.9977L17.5703 46.9977M117.917 46.9977L218.264 46.9977M-14.0272 26.5036L17.5703 46.9977M-14.0272 26.5036L-48.6009 4.07897M-14.0272 26.5036L-106.462 26.5036M17.5703 46.9977L-82.7768 46.9977M218.264 46.9977L318.612 46.9977M218.264 46.9977L238.971 65.8003M-82.7768 46.9977L-106.462 46.9977M-82.7768 46.9977L-106.462 33.5555M238.971 65.8003L335.177 65.8003M-48.6009 4.07897L-86.5923 -20.5629M-48.6009 4.07897L-106.462 4.07896M28.6355 -20.5629L-7.31564 -47.7677M28.6355 -20.5629L-86.5923 -20.5629M28.6355 -20.5629L143.862 -20.5629M-86.5923 -20.5629L-106.462 -33.4508M-86.5923 -20.5629L-106.462 -20.5629M-7.31564 -47.7677L113.904 -47.7677M-7.31564 -47.7677L-106.462 -47.7672M113.904 -47.7677L235.123 -47.7677M113.904 -47.7677L143.862 -20.5629M143.862 -20.5629L259.09 -20.5629M637.087 314.375L636.902 313.956L636.717 313.535L636.53 313.112L636.343 312.687L635.776 311.4L635.586 310.967M637.087 314.375L595.63 314.375M637.087 314.375L678.543 314.375M597.803 317.664L599.384 320.056L599.901 320.84M597.803 317.664L596.453 315.622L595.63 314.375M597.803 317.664L557.071 317.664M599.901 320.84L559.869 320.84M599.901 320.84L601.429 323.152L601.93 323.909M641.286 323.909L641.452 324.286L642.108 325.775L642.593 326.876M641.286 323.909L601.93 323.909M641.286 323.909L680.643 323.909M595.63 314.375L595.353 313.956L595.074 313.535L594.795 313.112L594.514 312.687L593.378 310.967M595.63 314.375L554.173 314.375M557.071 317.664L559.178 320.056L559.869 320.84M557.071 317.664L554.173 314.375M559.869 320.84L561.232 322.388L562.24 323.531L562.572 323.909M601.93 323.909L602.177 324.286L602.672 325.033L603.162 325.775L603.405 326.144L603.89 326.876M601.93 323.909L562.572 323.909M554.173 314.375L551.931 311.831L551.171 310.967M523.215 323.909L525.676 326.144L526.482 326.876M523.215 323.909L562.572 323.909M562.572 323.909L564.864 326.51L565.186 326.876M635.586 310.967L593.378 310.967M635.586 310.967L677.793 310.967M591.044 307.434L593.378 310.967M591.044 307.434L588.621 303.768M591.044 307.434L548.058 307.434M593.378 310.967L551.171 310.967M677.793 310.967L720 310.967M677.793 310.967L678.543 314.375M551.171 310.967L548.058 307.434M678.543 314.375L720 314.375M588.621 303.768L588 302.83L587.059 301.405L586.105 299.961M588.621 303.768L544.827 303.768M548.058 307.434L547.66 306.983L544.827 303.768M544.827 303.768L544.416 303.3L544.001 302.83L543.585 302.357L541.474 299.961M630.737 299.961L628.994 296.005M630.737 299.961L586.105 299.961M630.737 299.961L675.368 299.961M586.105 299.961L583.492 296.005M586.105 299.961L541.474 299.961M541.474 299.961L538.873 297.009L538.431 296.508L537.989 296.005M628.994 296.005L583.492 296.005M628.994 296.005L674.497 296.005M580.774 291.892L580.427 291.367L580.077 290.839L579.727 290.307L577.946 287.612M580.774 291.892L582.146 293.969L582.485 294.482L582.822 294.992L583.492 296.005M580.774 291.892L534.365 291.892M583.492 296.005L537.989 296.005M674.497 296.005L720 296.005M674.497 296.005L675.368 299.961M537.989 296.005L534.365 291.892M675.368 299.961L720 299.961M577.946 287.612L575.375 283.722L575.001 283.155M577.946 287.612L530.595 287.612M534.365 291.892L533.437 290.839L530.595 287.612M530.595 287.612L529.141 285.962L526.667 283.155M623.334 283.155L622.321 280.856L622.065 280.274L621.287 278.509M623.334 283.155L575.001 283.155M623.334 283.155L671.666 283.155M575.001 283.155L571.931 278.509M575.001 283.155L526.667 283.155M526.667 283.155L522.575 278.509M621.287 278.509L571.931 278.509M621.287 278.509L670.644 278.509M568.728 273.661L571.931 278.509M568.728 273.661L565.384 268.6M568.728 273.661L518.304 273.661M571.931 278.509L522.575 278.509M670.644 278.509L720 278.509M670.644 278.509L670.904 279.689L671.415 282.012L671.666 283.155M522.575 278.509L518.304 273.661M671.666 283.155L720 283.155M565.384 268.6L562.777 264.654L561.887 263.31M565.384 268.6L513.844 268.6M518.304 273.661L513.844 268.6M513.844 268.6L511.54 265.984L509.183 263.31M614.592 263.31L612.154 257.774M614.592 263.31L561.887 263.31M614.592 263.31L667.296 263.31M561.887 263.31L558.23 257.774M561.887 263.31L509.183 263.31M509.183 263.31L504.307 257.774M612.154 257.774L558.23 257.774M612.154 257.774L666.077 257.774M554.399 251.977L555.375 253.452L558.23 257.774M554.399 251.977L550.383 245.899M554.399 251.977L499.199 251.977M558.23 257.774L504.307 257.774M666.077 257.774L720 257.774M666.077 257.774L667.296 263.31M504.307 257.774L499.199 251.977M667.296 263.31L720 263.31M550.383 245.899L546.167 239.518M550.383 245.899L493.845 245.899M499.199 251.977L493.845 245.899M493.845 245.899L488.223 239.518M604.111 239.518L601.157 232.812M604.111 239.518L546.167 239.518M604.111 239.518L662.055 239.518M546.167 239.518L541.736 232.812M546.167 239.518L488.223 239.518M488.223 239.518L482.315 232.812M601.157 232.812L541.736 232.812M601.157 232.812L660.579 232.812M537.073 225.755L541.736 232.812M537.073 225.755L532.16 218.319M537.073 225.755L476.098 225.755M541.736 232.812L482.315 232.812M660.579 232.812L720 232.812M660.579 232.812L661.876 238.698L662.055 239.518M482.315 232.812L476.098 225.755M662.055 239.518L720 239.518M532.16 218.319L526.975 210.472M532.16 218.319L469.547 218.319M476.098 225.755L471.218 220.215L469.547 218.319M469.547 218.319L462.634 210.472M591.317 210.472L587.664 202.181M591.317 210.472L526.975 210.472M591.317 210.472L655.658 210.473M526.975 210.472L521.497 202.181M526.975 210.472L462.634 210.472M462.634 210.472L455.329 202.181M587.664 202.181L521.497 202.181M587.664 202.181L653.832 202.181M515.698 193.404L521.497 202.181M515.698 193.404L509.55 184.1M515.698 193.404L447.597 193.404M521.497 202.181L455.329 202.181M653.832 202.181L720 202.181M653.832 202.181L655.658 210.473M455.329 202.181L447.597 193.404M655.658 210.473L720 210.473M509.55 184.1L503.02 174.218M509.55 184.1L439.4 184.1M447.597 193.404L439.4 184.1M439.4 184.1L430.694 174.218M575.347 174.218L570.715 163.703M575.347 174.218L503.02 174.218M575.347 174.218L647.673 174.218M503.02 174.218L496.073 163.703M503.02 174.218L430.694 174.218M430.694 174.218L421.43 163.703M570.715 163.703L496.073 163.703M570.715 163.703L645.358 163.703M488.666 152.493L496.073 163.703M488.666 152.493L480.751 140.516M488.666 152.493L411.554 152.493M496.073 163.703L421.43 163.703M645.358 163.703L720 163.703M645.358 163.703L647.673 174.218M421.43 163.703L411.554 152.493M647.673 174.218L720 174.218M480.751 140.516L472.277 127.69M480.751 140.516L401.002 140.516M411.554 152.493L401.002 140.516M401.002 140.516L389.702 127.69M554.851 127.69L548.786 113.922M554.851 127.69L472.277 127.69M554.851 127.69L637.425 127.69M472.277 127.69L463.18 113.922M472.277 127.69L389.702 127.69M389.702 127.69L377.573 113.922M548.786 113.922L463.18 113.922M548.786 113.922L634.393 113.922M453.389 99.1048L463.18 113.922M453.389 99.1048L442.822 83.1124M453.389 99.1048L364.518 99.1048M463.18 113.922L377.573 113.922M634.393 113.922L720 113.922M634.393 113.922L637.425 127.69M377.573 113.922L364.518 99.1048M637.425 127.69L720 127.69M442.822 83.1124L431.382 65.8003M442.822 83.1124L350.429 83.1124M364.518 99.1048L350.429 83.1124M350.429 83.1124L335.177 65.8003M527.588 65.8003L519.306 46.9977M527.588 65.8003L431.382 65.8003M527.588 65.8003L623.794 65.8003M431.382 65.8003L418.959 46.9977M431.382 65.8003L335.177 65.8003M335.177 65.8003L318.612 46.9977M519.306 46.9977L418.959 46.9977M519.306 46.9977L619.653 46.9977M405.417 26.5036L418.959 46.9977M405.417 26.5036L390.6 4.07901M405.417 26.5036L300.556 26.5036M418.959 46.9977L318.612 46.9977M619.653 46.9977L720 46.9977M619.653 46.9977L623.794 65.8003M318.612 46.9977L300.556 26.5036M623.794 65.8003L720 65.8003M390.6 4.07901L374.318 -20.5629M390.6 4.07901L280.799 4.079M300.556 26.5036L280.799 4.079M280.799 4.079L259.09 -20.5629M489.545 -20.5629L477.562 -47.7677M489.545 -20.5629L374.318 -20.5629M489.545 -20.5629L604.772 -20.5629M374.318 -20.5629L356.342 -47.7677M374.318 -20.5629L259.09 -20.5629M259.09 -20.5629L235.123 -47.7677M356.342 -47.7677L477.562 -47.7677M356.342 -47.7677L235.123 -47.7677M477.562 -47.7677L598.78 -47.7676M598.78 -47.7676L720 -47.7676M598.78 -47.7676L604.772 -20.5629M604.772 -20.5629L720 -20.5629M802.913 314.375L803.098 313.956L803.283 313.535L803.47 313.112L803.657 312.687L804.034 311.831L804.224 311.4L804.414 310.967M802.913 314.375L761.456 314.375M802.913 314.375L844.37 314.375M760.732 317.664L760.032 320.84M760.732 317.664L761.456 314.375M760.732 317.664L720 317.664M760.032 320.84L759.947 321.23L759.861 321.617L759.777 322.003L759.357 323.909M760.032 320.84L720 320.84M798.713 323.909L798.548 324.286L797.892 325.775L797.407 326.876M798.713 323.909L759.357 323.909M798.713 323.909L838.07 323.909M761.456 314.375L761.549 313.956L761.641 313.535L761.735 313.112L762.207 310.967M761.456 314.375L720 314.375M720 317.664L720 320.84M720 317.664L720 314.375M720 320.84L720 323.909M759.357 323.909L720 323.909M759.357 323.909L759.11 325.033L759.027 325.405L758.703 326.876M720 314.375L720 310.967M680.643 323.909L680.89 325.033L680.973 325.405L681.054 325.775L681.135 326.144L681.216 326.51L681.296 326.876M680.643 323.909L720 323.909M720 323.909L720 326.876M804.414 310.967L762.207 310.967M804.414 310.967L846.622 310.967M762.985 307.434L763.085 306.983L763.184 306.53L763.793 303.768M762.985 307.434L762.207 310.967M762.985 307.434L720 307.434M762.207 310.967L720 310.967M846.622 310.967L888.829 310.967M846.622 310.967L846.052 311.831L845.768 312.26L845.486 312.687L845.205 313.112L844.926 313.535L844.647 313.956L844.37 314.375M720 310.967L720 307.434M844.37 314.375L885.827 314.375M763.793 303.768L764.631 299.961M763.793 303.768L720 303.768M720 307.434L720 303.768M720 303.768L720 299.961M809.263 299.961L811.005 296.005M809.263 299.961L764.631 299.961M809.263 299.961L853.894 299.961M764.631 299.961L765.503 296.005M764.631 299.961L720 299.961M720 299.961L720 296.005M811.005 296.005L765.503 296.005M811.005 296.005L856.508 296.005M766.408 291.892L765.503 296.005M766.408 291.892L767.351 287.612M766.408 291.892L720 291.892M765.503 296.005L720 296.005M856.508 296.005L902.011 296.005M856.508 296.005L853.894 299.961M720 296.005L720 291.892M853.894 299.961L898.526 299.961M767.351 287.612L767.714 285.962L768.084 284.287L768.333 283.155M767.351 287.612L720 287.612M720 291.892L720 287.612M720 287.612L720 283.155M816.666 283.155L817.679 280.856L817.935 280.274L818.713 278.509M816.666 283.155L768.333 283.155M816.666 283.155L864.999 283.155M768.333 283.155L768.585 282.012L769.096 279.689L769.356 278.509M768.333 283.155L720 283.155M720 283.155L720 278.509M818.713 278.509L769.356 278.509M818.713 278.509L868.069 278.509M770.424 273.661L770.288 274.279L769.356 278.509M770.424 273.661L771.538 268.6M770.424 273.661L720 273.661M769.356 278.509L720 278.509M868.069 278.509L917.425 278.509M868.069 278.509L864.999 283.155M720 278.509L720 273.661M864.999 283.155L913.333 283.155M771.538 268.6L772.704 263.31M771.538 268.6L720 268.6M720 273.661L720 268.6M720 268.6L720 263.31M825.408 263.31L827.846 257.774M825.408 263.31L772.704 263.31M825.408 263.31L878.112 263.31M772.704 263.31L773.923 257.774M772.704 263.31L720 263.31M720 263.31L720 257.774M827.846 257.774L773.923 257.774M827.846 257.774L881.769 257.774M775.2 251.977L773.923 257.774M775.2 251.977L776.538 245.899M775.2 251.977L720 251.977M773.923 257.774L720 257.774M881.769 257.774L935.693 257.774M881.769 257.774L878.112 263.31M720 257.774L720 251.977M878.112 263.31L930.817 263.31M776.538 245.899L777.944 239.518M776.538 245.899L720 245.899M720 251.977L720 245.899M720 245.899L720 239.518M835.889 239.518L838.842 232.812M835.889 239.518L777.944 239.518M835.889 239.518L893.832 239.518M777.944 239.518L779.421 232.812M777.944 239.518L720 239.518M720 239.518L720 232.812M838.842 232.812L779.421 232.812M838.842 232.812L898.263 232.812M780.976 225.755L779.421 232.812M780.976 225.755L782.613 218.319M780.976 225.755L720 225.755M779.421 232.812L720 232.812M898.263 232.812L957.685 232.812M898.263 232.812L893.832 239.518M720 232.812L720 225.755M893.832 239.518L951.777 239.518M782.613 218.319L784.342 210.473M782.613 218.319L720 218.319M720 225.755L720 218.319M720 218.319L720 210.473M848.683 210.473L852.335 202.181M848.683 210.473L784.342 210.473M848.683 210.473L913.024 210.473M784.342 210.473L786.168 202.181M784.342 210.473L720 210.473M720 210.473L720 202.181M852.335 202.181L786.168 202.181M852.335 202.181L918.503 202.181M788.1 193.404L786.168 202.181M788.1 193.404L790.15 184.1M788.1 193.404L720 193.404M786.168 202.181L720 202.181M918.503 202.181L984.671 202.181M918.503 202.181L913.024 210.473M720 202.181L720 193.404M913.024 210.473L977.366 210.473M790.15 184.1L792.326 174.218M790.15 184.1L720 184.1M720 193.404L720 184.1M720 184.1L720 174.218M864.653 174.218L869.285 163.704M864.653 174.218L792.326 174.218M864.653 174.218L936.98 174.218M792.326 174.218L794.642 163.703M792.326 174.218L720 174.218M720 174.218L720 163.703M869.285 163.704L794.642 163.703M869.285 163.704L943.927 163.704M797.111 152.493L794.642 163.703M797.111 152.493L799.749 140.516M797.111 152.493L720 152.493M794.642 163.703L720 163.703M943.927 163.704L1018.57 163.704M943.927 163.704L936.98 174.218M720 163.703L720 152.493M936.98 174.218L1009.31 174.218M799.749 140.516L802.575 127.69M799.749 140.516L720 140.516M720 152.493L720 140.516M720 140.516L720 127.69M885.148 127.69L891.213 113.922M885.148 127.69L802.575 127.69M885.148 127.69L967.723 127.69M802.575 127.69L805.607 113.922M802.575 127.69L720 127.69M720 127.69L720 113.922M891.213 113.922L805.607 113.922M891.213 113.922L976.82 113.922M808.87 99.1048L805.607 113.922M808.87 99.1048L812.392 83.1124M808.87 99.1048L720 99.1048M805.607 113.922L720 113.922M976.82 113.922L1062.43 113.922M976.82 113.922L967.723 127.69M720 113.922L720 99.1048M967.723 127.69L1050.3 127.69M812.392 83.1124L816.206 65.8003M812.392 83.1124L720 83.1124M720 99.1048L720 83.1124M720 83.1124L720 65.8003M912.411 65.8004L920.694 46.9978M912.411 65.8004L816.206 65.8003M912.411 65.8004L1008.62 65.8004M816.206 65.8003L820.347 46.9978M816.206 65.8003L720 65.8003M720 65.8003L720 46.9977M920.694 46.9978L820.347 46.9978M920.694 46.9978L1021.04 46.9978M824.861 26.5037L820.347 46.9978M824.861 26.5037L829.8 4.07905M824.861 26.5037L720 26.5037M820.347 46.9978L720 46.9977M1021.04 46.9978L1121.39 46.9978M1021.04 46.9978L1008.62 65.8004M720 46.9977L720 26.5037M1008.62 65.8004L1104.82 65.8004M829.8 4.07905L835.228 -20.5629M829.8 4.07905L720 4.07904M720 26.5037L720 4.07904M720 4.07904L720 -20.5629M950.454 -20.5628L962.438 -47.7676M950.454 -20.5628L835.228 -20.5629M950.454 -20.5628L1065.68 -20.5628M835.228 -20.5629L841.219 -47.7676M835.228 -20.5629L720 -20.5629M720 -20.5629L720 -47.7676M841.219 -47.7676L962.438 -47.7676M841.219 -47.7676L720 -47.7676M962.438 -47.7676L1083.66 -47.7676M1083.66 -47.7676L1204.88 -47.7676M1083.66 -47.7676L1065.68 -20.5628M1065.68 -20.5628L1180.91 -20.5628M968.74 314.375L970.971 312.687L973.243 310.967M968.74 314.375L927.283 314.375M968.74 314.375L1010.2 314.375M923.662 317.664L920.164 320.84M923.662 317.664L927.283 314.375M923.662 317.664L882.929 317.664M920.164 320.84L880.131 320.84M920.164 320.84L917.619 323.152L916.785 323.909M956.142 323.909L916.785 323.909M956.142 323.909L954.656 325.033L952.221 326.876M956.142 323.909L995.498 323.909M927.283 314.375L931.036 310.967M927.283 314.375L885.827 314.375M882.929 317.664L880.131 320.84M882.929 317.664L885.827 314.375M880.131 320.84L878.768 322.388L877.76 323.531L877.428 323.909M916.785 323.909L877.428 323.909M916.785 323.909L914.324 326.144L913.518 326.876M885.827 314.375L888.069 311.831L888.829 310.967M838.07 323.909L837.822 324.286L837.328 325.033L836.595 326.144L836.11 326.876M838.07 323.909L877.428 323.909M877.428 323.909L877.096 324.286L876.437 325.033L874.814 326.876M973.243 310.967L931.036 310.967M973.243 310.967L1015.45 310.967M934.928 307.434L934.433 307.883L933.942 308.33L931.996 310.097L931.036 310.967M934.928 307.434L937.942 304.697L938.966 303.768M934.928 307.434L891.942 307.434M931.036 310.967L888.829 310.967M1015.45 310.967L1057.66 310.967M1015.45 310.967L1011.49 313.535L1010.2 314.375M888.829 310.967L891.942 307.434M1010.2 314.375L1051.65 314.375M938.966 303.768L939.481 303.3L939.999 302.83L941.567 301.405L942.095 300.926L943.157 299.961M938.966 303.768L895.173 303.768M891.942 307.434L892.34 306.983L895.173 303.768M895.173 303.768L895.584 303.3L895.999 302.83L896.415 302.357L898.526 299.961M987.789 299.961L993.016 296.005M987.789 299.961L943.157 299.961M987.789 299.961L1032.42 299.961M943.157 299.961L947.514 296.005M943.157 299.961L898.526 299.961M898.526 299.961L902.011 296.005M993.016 296.005L947.514 296.005M993.016 296.005L1038.52 296.005M952.043 291.892L947.514 296.005M952.043 291.892L956.756 287.612M952.043 291.892L905.634 291.892M947.514 296.005L902.011 296.005M1038.52 296.005L1084.02 296.005M1038.52 296.005L1032.42 299.961M902.011 296.005L905.634 291.892M1032.42 299.961L1077.05 299.961M956.756 287.612L961.665 283.155M956.756 287.612L909.405 287.612M905.634 291.892L906.563 290.839L909.405 287.612M909.405 287.612L910.859 285.962L912.336 284.287L913.333 283.155M1010 283.155L1013.04 280.856L1016.14 278.509M1010 283.155L961.665 283.155M1010 283.155L1058.33 283.155M961.665 283.155L966.782 278.509M961.665 283.155L913.333 283.155M913.333 283.155L917.425 278.509M1016.14 278.509L966.782 278.509M1016.14 278.509L1065.49 278.509M972.12 273.661L966.782 278.509M972.12 273.661L977.694 268.6M972.12 273.661L921.696 273.661M966.782 278.509L917.425 278.509M1065.49 278.509L1114.85 278.509M1065.49 278.509L1058.33 283.155M917.425 278.509L921.696 273.661M1058.33 283.155L1106.66 283.155M977.694 268.6L979.127 267.3L983.52 263.31M977.694 268.6L926.156 268.6M921.696 273.661L926.156 268.6M926.156 268.6L926.726 267.952L928.459 265.984L930.817 263.31M1036.22 263.31L1043.54 257.774M1036.22 263.31L983.52 263.31M1036.22 263.31L1088.93 263.31M983.52 263.31L989.616 257.774M983.52 263.31L930.817 263.31M930.817 263.31L935.693 257.774M1043.54 257.774L989.616 257.774M1043.54 257.774L1097.46 257.774M996 251.977L991.975 255.632L989.616 257.774M996 251.977L1002.69 245.899M996 251.977L940.8 251.977M989.616 257.774L935.693 257.774M1097.46 257.774L1151.39 257.774M1097.46 257.774L1088.93 263.31M935.693 257.774L940.8 251.977M1088.93 263.31L1141.63 263.31M1002.69 245.899L1009.72 239.518M1002.69 245.899L946.155 245.899M940.8 251.977L946.155 245.899M946.155 245.899L951.777 239.518M1067.67 239.518L1076.53 232.812M1067.67 239.518L1009.72 239.518M1067.67 239.518L1125.61 239.518M1009.72 239.518L1017.11 232.812M1009.72 239.518L951.777 239.518M951.777 239.518L957.685 232.812M1076.53 232.812L1017.11 232.812M1076.53 232.812L1135.95 232.812M1024.88 225.755L1017.11 232.812M1024.88 225.755L1033.07 218.319M1024.88 225.755L963.902 225.755M1017.11 232.812L957.685 232.812M1135.95 232.812L1195.37 232.812M1135.95 232.812L1125.61 239.518M957.685 232.812L963.902 225.755M1125.61 239.518L1183.55 239.518M1033.07 218.319L1041.71 210.473M1033.07 218.319L970.453 218.319M963.902 225.755L970.453 218.319M970.453 218.319L977.366 210.473M1106.05 210.473L1117.01 202.181M1106.05 210.473L1041.71 210.473M1106.05 210.473L1170.39 210.473M1041.71 210.473L1050.84 202.181M1041.71 210.473L977.366 210.473M977.366 210.473L984.671 202.181M1117.01 202.181L1050.84 202.181M1117.01 202.181L1183.17 202.181M1060.5 193.405L1050.84 202.181M1060.5 193.405L1070.75 184.1M1060.5 193.405L992.403 193.404M1050.84 202.181L984.671 202.181M1183.17 202.181L1249.34 202.181M1183.17 202.181L1170.39 210.473M984.671 202.181L992.403 193.404M1170.39 210.473L1234.73 210.473M1070.75 184.1L1081.63 174.218M1070.75 184.1L1000.6 184.1M992.403 193.404L1000.6 184.1M1000.6 184.1L1009.31 174.218M1153.96 174.218L1167.85 163.704M1153.96 174.218L1081.63 174.218M1153.96 174.218L1226.29 174.218M1081.63 174.218L1093.21 163.704M1081.63 174.218L1009.31 174.218M1009.31 174.218L1018.57 163.704M1167.85 163.704L1093.21 163.704M1167.85 163.704L1242.5 163.704M1105.56 152.493L1093.21 163.704M1105.56 152.493L1118.75 140.516M1105.56 152.493L1028.45 152.493M1093.21 163.704L1018.57 163.704M1242.5 163.704L1317.14 163.704M1242.5 163.704L1226.29 174.218M1018.57 163.704L1028.45 152.493M1226.29 174.218L1298.61 174.218M1118.75 140.516L1132.87 127.69M1118.75 140.516L1039 140.516M1028.45 152.493L1039 140.516M1039 140.516L1050.3 127.69M1215.45 127.69L1233.64 113.922M1215.45 127.69L1132.87 127.69M1215.45 127.69L1298.02 127.69M1132.87 127.69L1148.03 113.922M1132.87 127.69L1050.3 127.69M1050.3 127.69L1062.43 113.922M1233.64 113.922L1148.03 113.922M1233.64 113.922L1319.25 113.922M1164.35 99.1049L1148.03 113.922M1164.35 99.1049L1181.96 83.1124M1164.35 99.1049L1075.48 99.1049M1148.03 113.922L1062.43 113.922M1319.25 113.922L1404.85 113.922M1319.25 113.922L1298.02 127.69M1062.43 113.922L1075.48 99.1049M1298.02 127.69L1380.6 127.69M1181.96 83.1124L1201.03 65.8004M1181.96 83.1124L1089.57 83.1124M1075.48 99.1049L1089.57 83.1124M1089.57 83.1124L1104.82 65.8004M1297.23 65.8004L1322.08 46.9978M1297.23 65.8004L1201.03 65.8004M1297.23 65.8004L1393.44 65.8004M1201.03 65.8004L1221.74 46.9978M1201.03 65.8004L1104.82 65.8004M1104.82 65.8004L1121.39 46.9978M1322.08 46.9978L1221.74 46.9978M1322.08 46.9978L1422.43 46.9978M1244.3 26.5037L1221.74 46.9978M1244.3 26.5037L1269 4.07908M1244.3 26.5037L1139.44 26.5037M1221.74 46.9978L1121.39 46.9978M1422.43 46.9978L1522.78 46.9978M1422.43 46.9978L1393.44 65.8004M1121.39 46.9978L1139.44 26.5037M1393.44 65.8004L1489.65 65.8004M1269 4.07908L1296.14 -20.5628M1269 4.07908L1159.2 4.07908M1139.44 26.5037L1159.2 4.07908M1159.2 4.07908L1180.91 -20.5628M1411.36 -20.5628L1447.32 -47.7676M1411.36 -20.5628L1296.14 -20.5628M1411.36 -20.5628L1526.59 -20.5628M1296.14 -20.5628L1326.1 -47.7676M1296.14 -20.5628L1180.91 -20.5628M1180.91 -20.5628L1204.88 -47.7676M1326.1 -47.7676L1447.32 -47.7676M1326.1 -47.7676L1204.88 -47.7676M1447.32 -47.7676L1546.46 -47.7671M1526.59 -20.5628L1546.46 -33.4507M1526.59 -20.5628L1546.46 -20.5628M1134.57 314.376L1142.07 310.967M1134.57 314.376L1093.11 314.376M1134.57 314.376L1176.02 314.376M1086.59 317.665L1080.3 320.84M1086.59 317.665L1093.11 314.376M1086.59 317.665L1045.86 317.664M1080.3 320.84L1040.26 320.84M1080.3 320.84L1074.21 323.909M1113.57 323.909L1074.21 323.909M1113.57 323.909L1111.09 325.033L1107.03 326.876M1113.57 323.909L1152.93 323.909M1093.11 314.376L1099.87 310.967M1093.11 314.376L1051.65 314.375M1045.86 317.664L1040.26 320.84M1045.86 317.664L1051.65 314.375M1040.26 320.84L1036.19 323.152L1034.86 323.909M1074.21 323.909L1073.47 324.286L1068.33 326.876M1074.21 323.909L1034.86 323.909M1051.65 314.375L1057.66 310.967M995.498 323.909L990.924 326.876M995.498 323.909L1034.86 323.909M1034.86 323.909L1032.87 325.033L1029.63 326.876M1142.07 310.967L1099.87 310.967M1142.07 310.967L1184.28 310.967M1106.87 307.434L1099.87 310.967M1106.87 307.434L1114.14 303.768M1106.87 307.434L1063.88 307.434M1099.87 310.967L1057.66 310.967M1184.28 310.967L1226.49 310.967M1184.28 310.967L1176.02 314.376M1057.66 310.967L1063.88 307.434M1176.02 314.376L1217.48 314.376M1114.14 303.768L1116 302.83L1121.68 299.961M1114.14 303.768L1070.34 303.768M1063.88 307.434L1070.34 303.768M1070.34 303.768L1077.05 299.961M1166.32 299.961L1167.39 299.475L1175.03 296.005M1166.32 299.961L1121.68 299.961M1166.32 299.961L1210.95 299.961M1121.68 299.961L1129.52 296.005M1121.68 299.961L1077.05 299.961M1077.05 299.961L1077.91 299.475L1084.02 296.005M1175.03 296.005L1129.52 296.005M1175.03 296.005L1220.53 296.005M1137.68 291.892L1129.52 296.005M1137.68 291.892L1146.16 287.612M1137.68 291.892L1091.27 291.892M1129.52 296.005L1084.02 296.005M1220.53 296.005L1266.03 296.005M1220.53 296.005L1210.95 299.961M1084.02 296.005L1091.27 291.892M1210.95 299.961L1255.58 299.961M1146.16 287.612L1155 283.155M1146.16 287.612L1098.81 287.612M1091.27 291.892L1098.81 287.612M1098.81 287.612L1106.66 283.155M1203.33 283.155L1213.56 278.509M1203.33 283.155L1155 283.155M1203.33 283.155L1251.66 283.155M1155 283.155L1164.21 278.509M1155 283.155L1106.66 283.155M1106.66 283.155L1114.85 278.509M1213.56 278.509L1164.21 278.509M1213.56 278.509L1262.92 278.509M1173.82 273.661L1164.21 278.509M1173.82 273.661L1183.85 268.6M1173.82 273.661L1123.39 273.661M1164.21 278.509L1114.85 278.509M1262.92 278.509L1312.28 278.509M1262.92 278.509L1251.66 283.155M1114.85 278.509L1123.39 273.661M1251.66 283.155L1300 283.155M1183.85 268.6L1194.34 263.31M1183.85 268.6L1132.31 268.6M1123.39 273.661L1132.31 268.6M1132.31 268.6L1141.63 263.31M1247.04 263.31L1259.23 257.774M1247.04 263.31L1194.34 263.31M1247.04 263.31L1299.74 263.31M1194.34 263.31L1205.31 257.774M1194.34 263.31L1141.63 263.31M1141.63 263.31L1151.39 257.774M1259.23 257.774L1205.31 257.774M1259.23 257.774L1313.15 257.774M1216.8 251.977L1205.31 257.774M1216.8 251.977L1228.85 245.899M1216.8 251.977L1161.6 251.977M1205.31 257.774L1151.39 257.774M1313.15 257.774L1367.08 257.774M1313.15 257.774L1299.74 263.31M1151.39 257.774L1161.6 251.977M1299.74 263.31L1352.45 263.31M1228.85 245.899L1241.5 239.518M1228.85 245.899L1172.31 245.899M1161.6 251.977L1172.31 245.899M1172.31 245.899L1183.55 239.518M1299.44 239.518L1314.21 232.812M1299.44 239.518L1241.5 239.518M1299.44 239.518L1357.39 239.518M1241.5 239.518L1254.79 232.812M1241.5 239.518L1183.55 239.518M1183.55 239.518L1195.37 232.812M1314.21 232.812L1254.79 232.812M1314.21 232.812L1373.63 232.812M1268.78 225.755L1254.79 232.812M1268.78 225.755L1283.52 218.319M1268.78 225.755L1207.8 225.755M1254.79 232.812L1195.37 232.812M1373.63 232.812L1433.05 232.812M1373.63 232.812L1357.39 239.518M1195.37 232.812L1207.8 225.755M1357.39 239.518L1415.33 239.518M1283.52 218.319L1299.07 210.473M1283.52 218.319L1220.91 218.319M1207.8 225.755L1220.91 218.319M1220.91 218.319L1234.73 210.473M1363.42 210.473L1381.68 202.181M1363.42 210.473L1299.07 210.473M1363.42 210.473L1427.76 210.473M1299.07 210.473L1315.51 202.181M1299.07 210.473L1234.73 210.473M1234.73 210.473L1249.34 202.181M1381.68 202.181L1315.51 202.181M1381.68 202.181L1447.84 202.181M1332.91 193.405L1315.51 202.181M1332.91 193.405L1351.35 184.1M1332.91 193.405L1264.81 193.405M1315.51 202.181L1249.34 202.181M1447.84 202.181L1514.01 202.181M1447.84 202.181L1427.76 210.473M1249.34 202.181L1264.81 193.405M1427.76 210.473L1492.1 210.473M1351.35 184.1L1370.94 174.218M1351.35 184.1L1281.2 184.1M1264.81 193.405L1281.2 184.1M1281.2 184.1L1298.61 174.218M1443.27 174.218L1466.42 163.704M1443.27 174.218L1370.94 174.218M1443.27 174.218L1515.59 174.218M1370.94 174.218L1391.78 163.704M1370.94 174.218L1298.61 174.218M1298.61 174.218L1317.14 163.704M1466.42 163.704L1391.78 163.704M1466.42 163.704L1541.07 163.704M1414 152.493L1391.78 163.704M1414 152.493L1437.75 140.516M1414 152.493L1336.89 152.493M1391.78 163.704L1317.14 163.704M1541.07 163.704L1515.59 174.218M1541.07 163.704L1546.46 163.704M1541.07 163.704L1546.46 161.477M1317.14 163.704L1336.89 152.493M1515.59 174.218L1546.46 174.218M1437.75 140.516L1463.17 127.69M1437.75 140.516L1358 140.516M1336.89 152.493L1358 140.516M1358 140.516L1380.6 127.69M1545.74 127.69L1463.17 127.69M1545.74 127.69L1546.46 127.69M1545.74 127.69L1546.46 127.365M1463.17 127.69L1490.46 113.922M1463.17 127.69L1380.6 127.69M1380.6 127.69L1404.85 113.922M1519.83 99.1049L1490.46 113.922M1519.83 99.1049L1430.96 99.1049M1519.83 99.1049L1546.46 99.1049M1519.83 99.1049L1546.46 85.6719M1490.46 113.922L1404.85 113.922M1490.46 113.922L1546.46 113.922M1404.85 113.922L1430.96 99.1049M1430.96 99.1049L1459.14 83.1125M1459.14 83.1125L1489.65 65.8004M1459.14 83.1125L1546.46 83.1125M1489.65 65.8004L1522.78 46.9978M1489.65 65.8004L1546.46 65.8004M1522.78 46.9978L1546.46 46.9978M1522.78 46.9978L1546.46 33.5557M1300.39 314.376L1310.9 310.967M1300.39 314.376L1258.94 314.376M1300.39 314.376L1341.85 314.376M1249.52 317.665L1240.43 320.841M1249.52 317.665L1258.94 314.376M1249.52 317.665L1208.79 317.665M1240.43 320.841L1200.39 320.841M1240.43 320.841L1231.64 323.909M1271 323.909L1231.64 323.909M1271 323.909L1261.85 326.876M1271 323.909L1310.35 323.909M1258.94 314.376L1268.69 310.967M1258.94 314.376L1217.48 314.376M1208.79 317.665L1200.39 320.841M1208.79 317.665L1217.48 314.376M1200.39 320.841L1192.28 323.909M1231.64 323.909L1230.56 324.286L1223.15 326.876M1231.64 323.909L1192.28 323.909M1217.48 314.376L1226.49 310.967M1152.93 323.909L1145.74 326.876M1152.93 323.909L1192.28 323.909M1192.28 323.909L1191.29 324.286L1184.44 326.876M1310.9 310.967L1268.69 310.967M1310.9 310.967L1353.11 310.967M1278.81 307.434L1268.69 310.967M1278.81 307.434L1289.31 303.768M1278.81 307.434L1235.83 307.434M1268.69 310.967L1226.49 310.967M1353.11 310.967L1395.32 310.967M1353.11 310.967L1341.85 314.376M1226.49 310.967L1235.83 307.434M1341.85 314.376L1383.31 314.376M1289.31 303.768L1300.21 299.961M1289.31 303.768L1245.52 303.768M1235.83 307.434L1237.02 306.983L1245.52 303.768M1245.52 303.768L1255.58 299.961M1344.84 299.961L1357.04 296.005M1344.84 299.961L1300.21 299.961M1344.84 299.961L1389.47 299.961M1300.21 299.961L1311.54 296.005M1300.21 299.961L1255.58 299.961M1255.58 299.961L1266.03 296.005M1357.04 296.005L1311.54 296.005M1357.04 296.005L1402.54 296.005M1323.31 291.892L1311.54 296.005M1323.31 291.892L1335.57 287.612M1323.31 291.892L1276.9 291.892M1311.54 296.005L1266.03 296.005M1402.54 296.005L1448.04 296.005M1402.54 296.005L1389.47 299.961M1266.03 296.005L1276.9 291.892M1389.47 299.961L1434.11 299.961M1335.57 287.612L1348.33 283.155M1335.57 287.612L1288.22 287.612M1276.9 291.892L1288.22 287.612M1288.22 287.612L1300 283.155M1396.66 283.155L1410.99 278.509M1396.66 283.155L1348.33 283.155M1396.66 283.155L1445 283.155M1348.33 283.155L1361.63 278.509M1348.33 283.155L1300 283.155M1300 283.155L1312.28 278.509M1410.99 278.509L1361.63 278.509M1410.99 278.509L1460.35 278.509M1375.51 273.661L1361.63 278.509M1375.51 273.661L1390 268.6M1375.51 273.661L1325.09 273.661M1361.63 278.509L1312.28 278.509M1460.35 278.509L1509.7 278.509M1460.35 278.509L1445 283.155M1312.28 278.509L1325.09 273.661M1445 283.155L1493.33 283.155M1390 268.6L1405.15 263.31M1390 268.6L1338.47 268.6M1325.09 273.661L1338.47 268.6M1338.47 268.6L1352.45 263.31M1457.86 263.31L1474.92 257.774M1457.86 263.31L1405.15 263.31M1457.86 263.31L1510.56 263.31M1405.15 263.31L1421 257.774M1405.15 263.31L1352.45 263.31M1352.45 263.31L1367.08 257.774M1474.92 257.774L1421 257.774M1437.6 251.977L1421 257.774M1437.6 251.977L1455.01 245.899M1437.6 251.977L1382.4 251.977M1421 257.774L1367.08 257.774M1367.08 257.774L1382.4 251.977M1510.56 263.31L1546.46 263.31M1455.01 245.899L1473.28 239.518M1455.01 245.899L1398.47 245.899M1382.4 251.977L1398.47 245.899M1398.47 245.899L1415.33 239.518M1531.22 239.518L1473.28 239.518M1531.22 239.518L1546.46 239.518M1531.22 239.518L1546.46 234.575M1473.28 239.518L1492.48 232.812M1473.28 239.518L1415.33 239.518M1415.33 239.518L1433.05 232.812M1512.68 225.755L1492.48 232.812M1512.68 225.755L1533.97 218.319M1512.68 225.755L1451.71 225.755M1512.68 225.755L1546.46 225.755M1492.48 232.812L1433.05 232.812M1492.48 232.812L1546.46 232.812M1433.05 232.812L1451.71 225.755M1546.63 234.52L1546.46 234.575M1533.97 218.319L1471.36 218.319M1533.97 218.319L1546.46 218.319M1533.97 218.319L1546.46 213.958M1451.71 225.755L1471.36 218.319M1471.36 218.319L1492.1 210.473M1492.1 210.473L1514.01 202.181M1492.1 210.473L1546.46 210.473M1537.21 193.405L1514.01 202.181M1537.21 193.405L1546.46 193.405M1537.21 193.405L1546.46 189.904M1514.01 202.181L1546.46 202.181M1466.22 314.376L1479.73 310.967M1466.22 314.376L1424.76 314.376M1466.22 314.376L1507.68 314.376M1412.45 317.665L1400.56 320.841M1412.45 317.665L1424.76 314.376M1412.45 317.665L1371.72 317.665M1400.56 320.841L1360.52 320.841M1400.56 320.841L1389.07 323.909M1428.42 323.909L1389.07 323.909M1428.42 323.909L1416.66 326.876M1428.42 323.909L1467.78 323.909M1424.76 314.376L1437.52 310.967M1424.76 314.376L1383.31 314.376M1371.72 317.665L1360.52 320.841M1371.72 317.665L1383.31 314.376M1360.52 320.841L1349.71 323.909M1389.07 323.909L1349.71 323.909M1389.07 323.909L1377.96 326.876M1383.31 314.376L1395.32 310.967M1310.35 323.909L1300.55 326.876M1310.35 323.909L1349.71 323.909M1349.71 323.909L1339.26 326.876M1479.73 310.967L1437.52 310.967M1479.73 310.967L1521.94 310.968M1450.75 307.434L1437.52 310.967M1450.75 307.434L1464.48 303.768M1450.75 307.434L1407.77 307.434M1437.52 310.967L1395.32 310.967M1521.94 310.968L1507.68 314.376M1521.94 310.968L1546.46 310.968M1395.32 310.967L1407.77 307.434M1507.68 314.376L1546.46 314.376M1464.48 303.768L1478.74 299.961M1464.48 303.768L1420.69 303.768M1407.77 307.434L1420.69 303.768M1420.69 303.768L1434.11 299.961M1523.37 299.961L1539.05 296.005M1523.37 299.961L1478.74 299.961M1523.37 299.961L1546.46 299.961M1478.74 299.961L1493.55 296.005M1478.74 299.961L1434.11 299.961M1434.11 299.961L1448.04 296.005M1508.95 291.892L1493.55 296.005M1508.95 291.892L1524.97 287.612M1508.95 291.892L1462.54 291.892M1508.95 291.892L1546.46 291.892M1493.55 296.005L1539.05 296.005M1493.55 296.005L1448.04 296.005M1539.05 296.005L1546.46 294.136M1539.05 296.005L1546.46 296.005M1448.04 296.005L1462.54 291.892M1524.97 287.612L1541.66 283.155M1524.97 287.612L1477.62 287.612M1524.97 287.612L1546.46 287.612M1462.54 291.892L1477.62 287.612M1477.62 287.612L1493.33 283.155M1541.66 283.155L1493.33 283.155M1541.66 283.155L1546.46 281.873M1541.66 283.155L1546.46 283.155M1493.33 283.155L1509.7 278.509M1526.78 273.661L1509.7 278.509M1526.78 273.661L1544.62 268.6M1526.78 273.661L1546.46 273.661M1509.7 278.509L1546.46 278.509M1546.72 278.509L1546.46 278.509M1544.62 268.6L1546.46 268.6M1544.62 268.6L1546.46 268.078M1546.91 267.952L1546.46 268.078M1534.65 317.665L1520.66 320.841M1534.65 317.665L1546.46 317.665M1534.65 317.665L1546.46 314.982M1520.66 320.841L1507.14 323.909M1520.66 320.841L1546.46 320.841M1467.78 323.909L1455.37 326.876M1467.78 323.909L1507.14 323.909M1507.14 323.909L1494.07 326.876M1507.14 323.909L1546.46 323.909M178.151 326.876L139.448 326.876M178.151 326.876L216.854 326.876M148.929 329.745L146.588 329.037L139.448 326.876M148.929 329.745L110.857 329.745M139.448 326.876L100.744 326.876M110.857 329.745L108.361 329.037L107.104 328.681L100.744 326.876M100.744 326.876L62.0408 326.876M62.0408 326.876L23.3366 326.876M216.854 326.876L255.558 326.876M23.3366 326.876L-15.3668 326.876M-15.3668 326.876L-3.3564 329.745M-15.3668 326.876L-54.0701 326.876M-3.3564 329.745L-41.4279 329.745M332.965 326.876L294.261 326.876M332.965 326.876L371.669 326.876M301.215 329.745L299.498 329.037L298.634 328.681L294.261 326.876M301.215 329.745L263.143 329.745M294.261 326.876L255.558 326.876M263.143 329.745L255.558 326.876M371.669 326.876L410.372 326.876M487.779 326.876L449.075 326.876M487.779 326.876L526.482 326.876M453.5 329.745L452.955 329.392L452.408 329.037L451.858 328.681L449.075 326.876M453.5 329.745L415.429 329.745M449.075 326.876L410.372 326.876M415.429 329.745L410.372 326.876M526.482 326.876L565.186 326.876M642.593 326.876L603.89 326.876M642.593 326.876L681.296 326.876M605.786 329.745L603.89 326.876M605.786 329.745L567.714 329.745M603.89 326.876L565.186 326.876M567.714 329.745L567.402 329.392L567.09 329.037L566.776 328.681L565.186 326.876M681.296 326.876L720 326.876M797.407 326.876L758.703 326.876M797.407 326.876L836.11 326.876M758.071 329.745L758.703 326.876M758.071 329.745L720 329.745M758.703 326.876L720 326.876M720 329.745L720 326.876M836.11 326.876L874.814 326.876M952.221 326.876L913.518 326.876M952.221 326.876L990.924 326.876M910.357 329.745L911.137 329.037L912.718 327.602L913.518 326.876M910.357 329.745L872.286 329.745M913.518 326.876L874.814 326.876M872.286 329.745L872.597 329.392L872.91 329.037L873.224 328.681L874.814 326.876M990.924 326.876L1029.63 326.876M1107.03 326.876L1068.33 326.876M1107.03 326.876L1145.74 326.876M1062.64 329.745L1064.05 329.037L1064.75 328.681L1068.33 326.876M1062.64 329.745L1024.57 329.745M1068.33 326.876L1029.63 326.876M1024.57 329.745L1025.19 329.392L1029.63 326.876M1145.74 326.876L1184.44 326.876M1261.85 326.876L1223.15 326.876M1261.85 326.876L1300.55 326.876M1214.93 329.746L1216.96 329.037L1217.98 328.681L1223.15 326.876M1214.93 329.746L1176.86 329.746M1223.15 326.876L1184.44 326.876M1176.86 329.746L1177.79 329.392L1184.44 326.876M1300.55 326.876L1339.26 326.876M1416.66 326.876L1377.96 326.876M1416.66 326.876L1455.37 326.876M1367.21 329.746L1377.96 326.876M1367.21 329.746L1329.14 329.746M1377.96 326.876L1339.26 326.876M1329.14 329.746L1331.64 329.037L1332.9 328.681L1339.26 326.876M1455.37 326.876L1494.07 326.876M1519.5 329.746L1532.77 326.876M1519.5 329.746L1481.43 329.746M1519.5 329.746L1546.46 329.746M1532.77 326.876L1494.07 326.876M1532.77 326.876L1546.46 323.916M1532.77 326.876L1546.46 326.876M1481.43 329.746L1484.55 329.037L1494.07 326.876M-41.4279 329.745L-44.5495 329.037L-54.0701 326.876M-54.0701 326.876L-92.7735 326.876M-92.7735 326.876L-106.462 323.916M-92.7735 326.876L-106.462 326.876M-106.462 189.904L-106.462 193.404M-106.462 189.904L-106.462 184.1M-106.462 193.404L-106.462 202.181M-106.462 184.1L-106.462 182.366L-106.462 174.218M-106.462 174.218L-106.462 163.703M-106.462 257.774L-106.462 263.309M-106.462 257.774L-106.462 252.443M-106.462 329.745L-106.462 326.876M-106.462 326.876L-106.462 323.916M-106.462 323.916L-106.495 323.909L-106.462 323.909M-106.462 323.916L-106.462 323.909M-106.462 323.909L-106.462 320.84M-106.462 320.84L-106.462 317.664M-106.462 317.664L-106.462 314.982M-106.462 314.982L-106.462 314.375M-106.462 314.375L-106.462 310.967M-106.462 310.967L-106.462 307.434M-106.462 307.434L-106.462 305.108M-106.462 305.108L-106.462 303.767M-106.462 303.767L-106.462 299.961M-106.462 299.961L-106.462 296.005M-106.462 296.005L-106.462 294.136M-106.462 294.136L-106.462 291.892M-106.462 291.892L-106.462 287.612M-106.462 287.612L-106.462 283.155M-106.462 283.155L-106.462 281.873M-106.462 281.873L-106.462 278.509M-106.462 278.509L-106.462 273.661M-106.462 273.661L-106.462 268.6M-106.462 268.6L-106.462 268.078M-106.462 268.078L-106.462 263.309M-106.462 251.977L-106.462 245.899M-106.462 251.977L-106.462 252.443M-106.462 245.899L-106.462 239.518M-106.462 239.518L-106.462 234.575M-106.462 234.575L-106.462 232.812M-106.462 232.812L-106.462 225.755M-106.462 225.755L-106.462 218.319M-106.462 218.319L-106.462 213.957M-106.462 213.957L-106.462 210.472M-106.462 210.472L-106.462 202.181M-106.462 163.703L-106.462 161.477M-106.462 161.477L-106.462 152.493M-106.462 152.493L-106.462 140.516M-106.462 140.516L-106.462 127.69M-106.462 127.69L-106.462 127.365M-106.462 127.365L-106.462 113.922M-106.462 113.922L-106.462 99.1048M-106.462 99.1048L-106.462 85.6717M-106.462 85.6717L-106.462 83.1123M-106.462 83.1123L-106.462 65.8003M-106.462 65.8003L-106.462 46.9977M-106.462 46.9977L-106.462 33.5555M-106.462 33.5555L-106.462 26.5036M-106.462 26.5036L-106.462 4.07896M-106.462 4.07896L-106.462 -20.5629M-106.462 -20.5629L-106.462 -33.4508M-106.462 -33.4508L-106.462 -47.7672M-106.462 -47.7672L-106.462 -47.8643L1546.46 -47.8642L1546.46 -47.7671M1546.46 251.977L1546.46 245.899M1546.46 251.977L1546.46 252.443M1546.46 252.443L1546.46 257.774M1546.46 257.774L1546.46 263.31M1546.46 263.31L1546.46 268.078M1546.46 268.078L1546.46 268.6M1546.46 268.6L1546.46 273.661M1546.46 273.661L1546.46 278.509M1546.46 278.509L1546.46 281.873M1546.46 281.873L1546.46 283.155M1546.46 283.155L1546.46 287.612M1546.46 287.612L1546.46 291.892M1546.46 291.892L1546.46 294.136M1546.46 294.136L1546.46 296.005M1546.46 296.005L1546.46 299.961M1546.46 299.961L1546.46 303.768M1546.46 303.768L1546.46 305.108M1546.46 305.108L1546.46 307.434M1546.46 307.434L1546.46 310.968M1546.46 310.968L1546.46 314.376M1546.46 314.376L1546.46 314.982M1546.46 314.982L1546.46 317.665M1546.46 317.665L1546.46 320.841M1546.46 320.841L1546.46 323.909M1546.46 323.909L1546.5 323.909L1546.46 323.916M1546.46 323.909L1546.46 323.916M1546.46 323.916L1546.46 326.876M1546.46 326.876L1546.46 329.746M1546.46 -47.7671L1546.46 -33.4507M1546.46 -33.4507L1546.46 -20.5628M1546.46 -20.5628L1546.46 4.07864M1546.46 4.07864L1546.46 26.5037M1546.46 26.5037L1546.46 33.5557M1546.46 33.5557L1546.46 46.9978M1546.46 46.9978L1546.46 65.8004M1546.46 65.8004L1546.46 83.1125M1546.46 83.1125L1546.46 85.6719M1546.46 85.6719L1546.46 99.1049M1546.46 99.1049L1546.46 113.922M1546.46 113.922L1546.46 127.365M1546.46 127.365L1546.46 127.69M1546.46 127.69L1546.46 140.516M1546.46 140.516L1546.46 152.493M1546.46 152.493L1546.46 161.477M1546.46 161.477L1546.46 163.704M1546.46 163.704L1546.46 174.218M1546.46 174.218L1546.46 184.1M1546.46 184.1L1546.46 189.904M1546.46 189.904L1546.46 193.405M1546.46 193.405L1546.46 202.181M1546.46 202.181L1546.46 210.473M1546.46 210.473L1546.46 213.958M1546.46 213.958L1546.46 218.319M1546.46 218.319L1546.46 225.755M1546.46 225.755L1546.46 232.812M1546.46 232.812L1546.46 234.575M1546.46 234.575L1546.46 239.518M1546.46 239.518L1546.46 245.899" stroke="url(#paint0_radial_15_247)" stroke-opacity="0.6" stroke-width="0.999644" stroke-miterlimit="10" stroke-linecap="round" stroke-linejoin="round"/>
<defs>
<radialGradient id="paint0_radial_15_247" cx="0" cy="0" r="1" gradientUnits="userSpaceOnUse" gradientTransform="translate(720 -33.8444) rotate(90) scale(595.447 2588.83)">
<stop stop-color="#525252"/>
<stop offset="0.489074" stop-color="#CED2DF" stop-opacity="0"/>
</radialGradient>
</defs>
</svg>
