<svg width="1440" height="341" viewBox="0 0 1440 341" fill="none" xmlns="http://www.w3.org/2000/svg">
<path d="M1519.5 3.78723L1506.65 1.00928M1519.5 3.78723H1481.43M1519.5 3.78723L1532.77 6.65693M1519.5 3.78723H1546.46M1506.65 1.00928L1511.33 1.01036L1515.95 1.01638L1520.48 1.03329L1524.87 1.0666L1529.07 1.12065L1533.03 1.20201L1536.71 1.31503L1540.13 1.45915L1543.06 1.65845L1545.73 1.8894L1546.46 1.9703V3.78723M1506.65 1.00928H1469.19M1469.19 1.00928H1431.73M1469.19 1.00928L1481.43 3.78723M1431.73 1.00928H1394.27M1431.73 1.00928L1443.36 3.78723M1394.27 1.00928H1356.81M1394.27 1.00928L1405.29 3.78723M1356.81 1.00928H1319.35M1356.81 1.00928L1367.21 3.78723M1319.35 1.00928H1281.89M1319.35 1.00928L1329.14 3.78723M1281.89 1.00928H1244.43M1281.89 1.00928L1291.07 3.78723M1244.43 1.00928H1206.98M1244.43 1.00928L1253 3.78723M1206.98 1.00928H1169.52M1206.98 1.00928L1214.93 3.78723M1169.52 1.00928H1132.06M1169.52 1.00928L1176.86 3.78723M1132.06 1.00928H1094.6M1132.06 1.00928L1138.79 3.78723M1094.6 1.00928H1057.14M1094.6 1.00928L1100.71 3.78723M1057.14 1.00928H1019.68M1057.14 1.00928L1058.5 1.69557L1060.56 2.73459L1062.64 3.78723M1019.68 1.00928H982.218M1019.68 1.00928L1020.89 1.69557L1024.57 3.78723M982.218 1.00928H944.758M982.218 1.00928L986.5 3.78723M944.758 1.00928H907.298M944.758 1.00928L946.12 2.04063L947.5 3.08401L947.963 3.43508L948.429 3.78723M907.298 1.00928H869.838M907.298 1.00928L908.433 2.04063L908.816 2.38678L909.199 2.73459L910.357 3.78723M869.838 1.00928H832.379M869.838 1.00928L872.286 3.78723M832.379 1.00928L832.605 1.3516L832.832 1.69557L833.981 3.43508L834.214 3.78723M832.379 1.00928H794.92M794.92 1.00928H757.459M794.92 1.00928L796.143 3.78723M757.459 1.00928H720M757.459 1.00928L757.687 2.04063L758.072 3.78723M720 1.00928H682.541M720 1.00928V3.78723M682.541 1.00928H645.08M682.541 1.00928L682.313 2.04063L681.929 3.78723M645.08 1.00928H607.621M645.08 1.00928L643.857 3.78723M607.621 1.00928L607.395 1.3516L607.168 1.69557L606.019 3.43508L605.786 3.78723M607.621 1.00928H570.162M570.162 1.00928H532.701M570.162 1.00928L568.025 3.43508L567.714 3.78723M532.701 1.00928H495.242M532.701 1.00928L531.567 2.04063L531.185 2.38678L530.417 3.08401L530.031 3.43508L529.643 3.78723M495.242 1.00928H457.783M495.242 1.00928L493.88 2.04063L492.5 3.08401L492.037 3.43508L491.571 3.78723M457.783 1.00928H420.323M457.783 1.00928L453.501 3.78723M420.323 1.00928H382.863M420.323 1.00928L419.115 1.69557L415.429 3.78723M382.863 1.00928H345.404M382.863 1.00928L377.358 3.78723M345.404 1.00928H307.944M345.404 1.00928L339.286 3.78723M307.944 1.00928H270.484M307.944 1.00928L301.215 3.78723M270.484 1.00928H233.025M270.484 1.00928L263.143 3.78723M233.025 1.00928H195.565M233.025 1.00928L225.072 3.78723M195.565 1.00928H158.106M195.565 1.00928L187 3.78723M158.106 1.00928H120.646M158.106 1.00928L148.929 3.78723M120.646 1.00928H83.1863M120.646 1.00928L110.857 3.78723M83.1863 1.00928H45.7269M83.1863 1.00928L72.7858 3.78723M45.7269 1.00928H8.26669M45.7269 1.00928L34.7143 3.78723M8.26669 1.00928H-29.1927M8.26669 1.00928L-3.3563 3.78723M-29.1927 1.00928H-66.6521M-29.1927 1.00928L-41.4278 3.78723M-66.6521 1.00928L-71.3268 1.01036L-75.9532 1.01638L-80.4833 1.03329L-84.8713 1.0666L-89.069 1.12065L-93.0317 1.20201L-96.712 1.31503L-100.128 1.45915L-103.059 1.65845L-105.728 1.8894L-106.462 1.97031V3.78723M-66.6521 1.00928L-79.4993 3.78723M-3.3563 3.78723H34.7143M-3.3563 3.78723H-41.4278M-3.3563 3.78723L-15.3667 6.65693M34.7143 3.78723L23.3367 6.65693M34.7143 3.78723H72.7858M148.929 3.78723H187M148.929 3.78723H110.857M148.929 3.78723L146.588 4.49592L139.448 6.65693M187 3.78723L178.151 6.65693M187 3.78723H225.072M301.215 3.78723H339.286M301.215 3.78723H263.143M301.215 3.78723L299.498 4.49592L298.634 4.85191L294.261 6.65693M339.286 3.78723L338.507 4.14049L337.725 4.49592L332.965 6.65693M339.286 3.78723H377.358M453.501 3.78723L452.955 4.14049L449.076 6.65693M453.501 3.78723H491.571M453.501 3.78723H415.429M491.571 3.78723L490.635 4.49592L490.164 4.85191L489.691 5.21008L487.779 6.65693M491.571 3.78723H529.643M605.786 3.78723H643.857M605.786 3.78723H567.714M605.786 3.78723L603.89 6.65693M643.857 3.78723L643.701 4.14049L643.545 4.49592L643.388 4.85191L642.913 5.93023L642.593 6.65693M643.857 3.78723H681.929M758.072 3.78723H796.143M758.072 3.78723H720M758.072 3.78723L758.703 6.65693M796.143 3.78723L796.299 4.14049L796.455 4.49592L796.612 4.85191L797.407 6.65693M796.143 3.78723H834.214M910.357 3.78723H948.429M910.357 3.78723H872.286M910.357 3.78723L911.137 4.49592L912.718 5.93023L913.117 6.29277L913.518 6.65693M948.429 3.78723L949.365 4.49592L949.836 4.85191L950.309 5.21008L952.221 6.65693M948.429 3.78723H986.5M1062.64 3.78723H1100.71M1062.64 3.78723H1024.57M1062.64 3.78723L1064.05 4.49592L1064.75 4.85191L1068.33 6.65693M1100.71 3.78723L1101.49 4.14049L1102.27 4.49592L1107.03 6.65693M1100.71 3.78723H1138.79M1214.93 3.78723H1253M1214.93 3.78723H1176.86M1214.93 3.78723L1216.96 4.49592L1217.98 4.85191L1223.15 6.65693M1253 3.78723L1261.85 6.65693M1253 3.78723H1291.07M1367.21 3.78723H1405.29M1367.21 3.78723H1329.14M1367.21 3.78723L1377.96 6.65693M1405.29 3.78723L1416.66 6.65693M1405.29 3.78723H1443.36M-106.595 29.7652H-106.462M-68.2757 29.7652L-53.7403 26.0989M-68.2757 29.7652L-83.3681 33.5718M-68.2757 29.7652H-24.4827M-68.2757 29.7652H-106.462M-53.7403 26.0989H-96.7258M-53.7403 26.0989L-39.7309 22.5653M-53.7403 26.0989H-10.7549M-96.7258 26.0989L-81.9382 22.5653M-96.7258 26.0989H-106.462M-96.7258 26.0989L-106.462 28.4248M-53.9142 15.8682H-13.1817M-53.9142 15.8682L-40.6237 12.6922M-53.9142 15.8682H-94.6459M-53.9142 15.8682L-67.6774 19.1572M-13.1817 15.8682L-0.590247 12.6922M-13.1817 15.8682L-26.22 19.1572M-13.1817 15.8682H27.5508M-40.6237 12.6922H-0.590247M-40.6237 12.6922L-27.7817 9.62381M-40.6237 12.6922H-80.6563M-0.590247 12.6922H39.4424M-0.590247 12.6922L11.5751 9.62381M-106.881 87.634H-106.462M-71.5446 87.634L-52.8011 81.5556M-71.5446 87.634L-91.2195 94.0149M-71.5446 87.634H-15.0051M-71.5446 87.634H-106.462M-52.8011 81.5556L-34.9246 75.7583M-52.8011 81.5556H2.3988M-52.8011 81.5556H-106.462M-88.8478 75.7583H-34.9246M-88.8478 75.7583L-70.5606 70.2231M-88.8478 75.7583H-106.462M-88.8478 75.7583L-106.462 81.0897M-53.0826 64.9325H-1.54411M-53.0826 64.9325L-36.3605 59.8713M-53.0826 64.9325H-104.621M-53.0826 64.9325L-70.5606 70.2231M-1.54411 64.9325L14.064 59.8713M-1.54411 64.9325L-17.8573 70.2231M-1.54411 64.9325H49.9953M-36.3605 59.8713H14.064M-36.3605 59.8713H-86.7842M-36.3605 59.8713L-20.3461 55.024M14.064 59.8713L29.01 55.024M14.064 59.8713H64.4876M9.73023 45.9203H57.0813M9.73023 45.9203L23.8705 41.6403M9.73023 45.9203H-37.6209M9.73023 45.9203L-4.9963 50.3777M57.0813 45.9203L70.2789 41.6403M57.0813 45.9203L43.3371 50.3777M57.0813 45.9203H104.433M23.8705 41.6403H70.2789M23.8705 41.6403H-22.538M23.8705 41.6403L37.4589 37.5274M70.2789 41.6403L82.9616 37.5274M70.2789 41.6403H116.688M63.1033 29.7652H106.896M63.1033 29.7652L75.2161 26.0989M63.1033 29.7652H19.3103M63.1033 29.7652L50.5264 33.5718M106.896 29.7652L118.202 26.0989M106.896 29.7652L95.158 33.5718M106.896 29.7652H150.689M75.2161 26.0989H118.202M75.2161 26.0989H32.2306M75.2161 26.0989L86.8907 22.5653M118.202 26.0989L129.098 22.5653M118.202 26.0989H161.187M109.015 15.8682H149.747M109.015 15.8682L119.508 12.6922M109.015 15.8682H68.2833M109.015 15.8682L98.1495 19.1572M149.747 15.8682L159.54 12.6922M149.747 15.8682L139.606 19.1572M149.747 15.8682H190.48M119.508 12.6922H159.54M119.508 12.6922L129.646 9.62381M119.508 12.6922H79.475M159.54 12.6922H199.574M159.54 12.6922L169.003 9.62381M-77.4951 193.017L-51.1155 181.039M-77.4951 193.017L-105.745 205.842M-77.4951 193.017H2.25417M-77.4951 193.017H-106.462M-51.1155 181.039L-26.4241 169.829M-51.1155 181.039H25.996M-51.1155 181.039H-106.462M-51.6509 149.432H18.4993M-51.6509 149.432L-29.1083 140.128M-51.6509 149.432L-75.5925 159.315M-51.6509 149.432H-106.462M18.4993 149.432L38.9921 140.128M18.4993 149.432L-3.26591 159.315M18.4993 149.432H88.6495M-29.1083 140.128H38.9921M-29.1083 140.128H-97.2088M-29.1083 140.128L-7.84502 131.352M38.9921 140.128L58.3227 131.352M38.9921 140.128H107.093M31.2535 115.213H93.8674M31.2535 115.213L49.2695 107.778M31.2535 115.213H-31.3596M31.2535 115.213L12.244 123.06M93.8674 115.213L110.245 107.778M93.8674 115.213L76.5849 123.06M93.8674 115.213H156.481M49.2695 107.778H110.245M49.2695 107.778H-11.7061M49.2695 107.778L66.3661 100.721M110.245 107.778L125.788 100.721M110.245 107.778H171.22M98.0721 87.634H154.612M98.0721 87.634L112.799 81.5556M98.0721 87.634H41.5335M98.0721 87.634L82.6138 94.0149M154.612 87.634L167.999 81.5556M154.612 87.634L140.557 94.0149M154.612 87.634H211.15M112.799 81.5556H167.999M112.799 81.5556H57.5996M112.799 81.5556L126.845 75.7583M167.999 81.5556L180.768 75.7583M167.999 81.5556H223.199M153.073 64.9325H204.612M153.073 64.9325L165.336 59.8713M153.073 64.9325H101.534M153.073 64.9325L140.255 70.2231M204.612 64.9325L215.76 59.8713M204.612 64.9325L192.959 70.2231M204.612 64.9325H256.15M165.336 59.8713H215.76M165.336 59.8713H114.912M165.336 59.8713L177.079 55.024M215.76 59.8713L226.436 55.024M215.76 59.8713H266.184M199.135 45.9203H246.487M199.135 45.9203L209.505 41.6403M199.135 45.9203H151.784M199.135 45.9203L188.336 50.3777M246.487 45.9203L247.687 45.3759L255.913 41.6403M246.487 45.9203L236.67 50.3777M246.487 45.9203H293.838M209.505 41.6403H255.913M209.505 41.6403H163.097M209.505 41.6403L219.47 37.5274M255.913 41.6403L264.973 37.5274M255.913 41.6403H302.323M238.275 29.7652H282.069M238.275 29.7652L247.159 26.0989M238.275 29.7652H194.482M238.275 29.7652L229.052 33.5718M282.069 29.7652L290.144 26.0989M282.069 29.7652L278.962 31.176L273.684 33.5718M282.069 29.7652H325.862M247.159 26.0989H290.144M247.159 26.0989H204.173M247.159 26.0989L255.72 22.5653M290.144 26.0989L297.927 22.5653M290.144 26.0989H333.13M271.944 15.8682H312.677M271.944 15.8682L279.639 12.6922M271.944 15.8682H231.212M271.944 15.8682L263.977 19.1572M312.677 15.8682L317.946 13.4763L318.811 13.0832L319.672 12.6922M312.677 15.8682L305.433 19.1572M312.677 15.8682H353.409M279.639 12.6922H319.672M279.639 12.6922L287.074 9.62381M279.639 12.6922H239.606M319.672 12.6922H359.705M319.672 12.6922L326.43 9.62381M-48.6008 329.454H61.1998M-48.6008 329.454L-14.0271 307.029M-48.6008 329.454L-86.5922 354.096M-48.6008 329.454L-106.462 329.454M61.1998 329.454L90.8345 307.029M61.1998 329.454L28.6355 354.096M61.1998 329.454H171M-14.0271 307.029H90.8345M-14.0271 307.029L17.5704 286.535M-14.0271 307.029H-106.462M90.8345 307.029L117.917 286.535M90.8345 307.029H195.695M73.2507 250.42H165.644M73.2507 250.42L97.9068 234.428M73.2507 250.42H-19.1417M73.2507 250.42L46.5594 267.732M165.644 250.42L186.777 234.428M165.644 250.42L142.766 267.732M165.644 250.42H258.036M97.9068 234.428H186.777M97.9068 234.428H9.03632M97.9068 234.428L120.752 219.61M186.777 234.428L206.359 219.61M186.777 234.428H275.648M161.754 193.017H241.503M161.754 193.017L180.22 181.039M161.754 193.017H82.0034M161.754 193.017L141.979 205.842M241.503 193.017L257.331 181.039M241.503 193.017L224.553 205.842M241.503 193.017H321.252M180.22 181.039H257.331M180.22 181.039H103.107M180.22 181.039L197.503 169.829M257.331 181.039L272.146 169.829M257.331 181.039H334.443M228.949 149.432H299.099M228.949 149.432L243.295 140.128M228.949 149.432H158.8M228.949 149.432L213.714 159.315M299.099 149.432L311.396 140.128M299.099 149.432L286.04 159.315M299.099 149.432H369.25M243.295 140.128H311.396M243.295 140.128H175.194M243.295 140.128L256.826 131.352M311.396 140.128L322.994 131.352M311.396 140.128H379.496M281.707 115.213H344.321M281.707 115.213L293.171 107.778M281.707 115.213H219.094M281.707 115.213L269.609 123.06M344.321 115.213L354.147 107.778M344.321 115.213L333.951 123.06M344.321 115.213H406.934M293.171 107.778H354.147M293.171 107.778H232.196M293.171 107.778L304.051 100.721M354.147 107.778L363.472 100.721M354.147 107.778H415.123M324.228 87.634H380.767M324.228 87.634L333.6 81.5556M324.228 87.634H267.689M324.228 87.634L314.391 94.0149M380.767 87.634L388.8 81.5556M380.767 87.634L372.334 94.0149M380.767 87.634H437.305M333.6 81.5556H388.8M333.6 81.5556H278.399M333.6 81.5556L342.538 75.7583M388.8 81.5556L396.461 75.7583M388.8 81.5556H444M359.228 64.9325H410.767M359.228 64.9325L367.032 59.8713M359.228 64.9325H307.689M359.228 64.9325L351.072 70.2231M410.767 64.9325L417.456 59.8713M410.767 64.9325L403.776 70.2231M410.767 64.9325H462.306M367.032 59.8713H417.456M367.032 59.8713H316.607M367.032 59.8713L374.506 55.024M417.456 59.8713L423.862 55.024M417.456 59.8713H467.88M388.541 45.9203H435.893M388.541 45.9203L395.139 41.6403M388.541 45.9203H341.19M388.541 45.9203L381.668 50.3777M435.893 45.9203L435.169 46.4674L430.002 50.3777M435.893 45.9203L441.548 41.6403M435.893 45.9203H483.244M395.139 41.6403H441.548M395.139 41.6403H348.731M395.139 41.6403L401.481 37.5274M441.548 41.6403L446.984 37.5274M441.548 41.6403H487.957M413.448 29.7652H457.241M413.448 29.7652L419.101 26.0989M413.448 29.7652H369.655M413.448 29.7652L407.579 33.5718M457.241 29.7652L462.086 26.0989M457.241 29.7652L455.377 31.176L454.12 32.1276L452.211 33.5718M457.241 29.7652H501.034M419.101 26.0989H462.086M419.101 26.0989H376.115M419.101 26.0989L424.549 22.5653M462.086 26.0989L463.858 24.7585L465.025 23.8751L466.757 22.5653M462.086 26.0989H505.072M434.874 15.8682H475.606M434.874 15.8682L438.562 13.4763L439.77 12.6922M434.874 15.8682H394.142M434.874 15.8682L430.447 18.7396L429.804 19.1572M475.606 15.8682L478.768 13.4763L479.286 13.0832L479.804 12.6922M475.606 15.8682L473.452 17.498L471.26 19.1572M475.606 15.8682H516.338M439.77 12.6922H479.804M439.77 12.6922L444.502 9.62381M439.77 12.6922H399.738M479.804 12.6922H519.836M479.804 12.6922L483.858 9.62381M390.6 329.454H500.4M390.6 329.454L405.417 307.029M390.6 329.454H280.8M390.6 329.454L374.318 354.096M500.4 329.454L510.279 307.029M500.4 329.454L489.546 354.096M500.4 329.454H610.2M405.417 307.029H510.279M405.417 307.029H300.556M405.417 307.029L418.959 286.535M510.279 307.029L519.306 286.535M510.279 307.029H615.139M442.822 250.42H535.214M442.822 250.42L453.389 234.428M442.822 250.42H350.429M442.822 250.42L431.382 267.732M535.214 250.42L542.259 234.428M535.214 250.42L527.589 267.732M535.214 250.42H627.608M453.389 234.428H542.259M453.389 234.428H364.518M453.389 234.428L463.18 219.61M542.259 234.428L548.786 219.61M542.259 234.428H631.13M480.751 193.017H560.501M480.751 193.017L488.666 181.039M480.751 193.017H401.002M480.751 193.017L472.277 205.842M560.501 193.017L565.777 181.039M560.501 193.017L554.851 205.842M560.501 193.017H640.251M488.666 181.039H565.777M488.666 181.039H411.554M488.666 181.039L496.073 169.829M565.777 181.039L570.715 169.829M565.777 181.039H642.889M509.55 149.432H579.7M509.55 149.432L515.698 140.128M509.55 149.432H439.4M509.55 149.432L503.02 159.315M579.7 149.432L583.798 140.128M579.7 149.432L575.347 159.315M579.7 149.432H649.85M515.698 140.128H583.798M515.698 140.128H447.597M515.698 140.128L521.497 131.352M583.798 140.128L587.665 131.352M583.798 140.128H651.9M532.16 115.213H594.774M532.16 115.213L537.073 107.778M532.16 115.213H469.547M532.16 115.213L526.976 123.06M594.774 115.213L598.049 107.778M594.774 115.213L591.317 123.06M594.774 115.213H657.387M537.073 107.778H598.049M537.073 107.778H476.098M537.073 107.778L541.737 100.721M598.049 107.778L601.157 100.721M598.049 107.778H659.024M550.383 87.634H606.922M550.383 87.634L554.4 81.5556M550.383 87.634H493.845M550.383 87.634L546.168 94.0149M606.922 87.634L609.6 81.5556M606.922 87.634L604.111 94.0149M606.922 87.634H663.461M554.4 81.5556H609.6M554.4 81.5556H499.2M554.4 81.5556L555.858 79.3498L558.23 75.7583M609.6 81.5556L612.154 75.7583M609.6 81.5556H664.8M565.384 64.9325H616.922M565.384 64.9325L568.728 59.8713M565.384 64.9325H513.844M565.384 64.9325L562.777 68.8784L561.888 70.2231M616.922 64.9325L617.77 63.0085L619.152 59.8713M616.922 64.9325L614.592 70.2231M616.922 64.9325H668.462M568.728 59.8713L569.135 59.2538L571.931 55.024M568.728 59.8713H619.152M568.728 59.8713H518.304M619.152 59.8713L619.964 58.0291L620.231 57.4214L620.497 56.8176L621.287 55.024M619.152 59.8713H669.576M577.946 45.9203H625.297M577.946 45.9203L579.374 43.7587L579.727 43.2253L580.078 42.6941L580.427 42.1661L580.774 41.6403M577.946 45.9203H530.595M577.946 45.9203L575.001 50.3777M625.297 45.9203L626.718 42.6941L626.952 42.1661L627.182 41.6403M625.297 45.9203L623.334 50.3777M625.297 45.9203H672.649M580.774 41.6403H627.182M580.774 41.6403H534.366M580.774 41.6403L582.485 39.0507L582.822 38.5402L583.492 37.5274M627.182 41.6403L628.323 39.0507L628.549 38.5402L628.772 38.0325L628.995 37.5274M627.182 41.6403H673.592M588.621 29.7652H632.414M588.621 29.7652L591.044 26.0989M588.621 29.7652H544.827M588.621 29.7652L588 30.7032L587.059 32.1276L586.106 33.5718M632.414 29.7652L632.207 30.2331L630.95 33.088L630.737 33.5718M632.414 29.7652L634.029 26.0989M632.414 29.7652H676.207M591.044 26.0989H634.029M591.044 26.0989H548.058M591.044 26.0989L593.378 22.5653M634.029 26.0989L634.62 24.7585L634.814 24.3157L635.009 23.8751L635.586 22.5653M634.029 26.0989H677.015M597.803 15.8682H638.535M597.803 15.8682L599.384 13.4763L599.901 12.6922M597.803 15.8682H557.071M597.803 15.8682L596.997 17.088L596.726 17.498L596.454 17.9102L595.63 19.1572M638.535 15.8682L638.713 15.4653L639.065 14.6643L639.416 13.8705L639.934 12.6922M638.535 15.8682L637.817 17.498L637.636 17.9102L637.27 18.7396L637.087 19.1572M638.535 15.8682H679.268M599.901 12.6922H639.934M599.901 12.6922L601.679 10.0016L601.93 9.62381M599.901 12.6922H559.869M639.934 12.6922L640.106 12.303L640.277 11.9153L640.447 11.5293L640.616 11.1449L641.119 10.0016L641.286 9.62381M639.934 12.6922H679.967M829.8 329.454H939.6M829.8 329.454L824.861 307.029M829.8 329.454H720M829.8 329.454L835.228 354.096M939.6 329.454L929.722 307.029M939.6 329.454L950.455 354.096M939.6 329.454H1049.4M824.861 307.029H929.722M824.861 307.029H720M824.861 307.029L820.347 286.535M929.722 307.029L920.694 286.535M929.722 307.029H1034.58M812.392 250.42H904.786M812.392 250.42L808.87 234.428M812.392 250.42H720M812.392 250.42L816.206 267.732M904.786 250.42L897.741 234.428M904.786 250.42L912.411 267.732M904.786 250.42H997.178M808.87 234.428H897.741M808.87 234.428H720M808.87 234.428L805.607 219.61M897.741 234.428L891.214 219.61M897.741 234.428H986.611M799.749 193.017H879.499M799.749 193.017L797.112 181.039M799.749 193.017H720M799.749 193.017L802.575 205.842M879.499 193.017L874.223 181.039M879.499 193.017L885.149 205.842M879.499 193.017H959.249M797.112 181.039H874.223M797.112 181.039H720M797.112 181.039L794.642 169.829M874.223 181.039L869.285 169.829M874.223 181.039H951.334M790.15 149.432H860.3M790.15 149.432L788.1 140.128M790.15 149.432H720M790.15 149.432L792.327 159.315M860.3 149.432L856.202 140.128M860.3 149.432L864.653 159.315M860.3 149.432H930.45M788.1 140.128H856.202M788.1 140.128H720M788.1 140.128L786.168 131.352M856.202 140.128L852.335 131.352M856.202 140.128H924.302M782.613 115.213H845.226M782.613 115.213L780.976 107.778M782.613 115.213H720M782.613 115.213L784.342 123.06M845.226 115.213L841.951 107.778M845.226 115.213L848.683 123.06M845.226 115.213H907.84M780.976 107.778H841.951M780.976 107.778H720M780.976 107.778L779.421 100.721M841.951 107.778L838.843 100.721M841.951 107.778H902.927M776.539 87.634H833.078M776.539 87.634L775.2 81.5556M776.539 87.634H720M776.539 87.634L777.944 94.0149M833.078 87.634L830.4 81.5556M833.078 87.634L835.889 94.0149M833.078 87.634H889.617M775.2 81.5556H830.4M775.2 81.5556H720M775.2 81.5556L773.923 75.7583M830.4 81.5556L827.846 75.7583M830.4 81.5556H885.601M771.539 64.9325H823.078M771.539 64.9325L770.424 59.8713M771.539 64.9325H720M771.539 64.9325L772.704 70.2231M823.078 64.9325L821.121 60.4921L820.848 59.8713M823.078 64.9325L825.408 70.2231M823.078 64.9325H874.616M770.424 59.8713L770.289 59.2538L769.356 55.024M770.424 59.8713H820.848M770.424 59.8713H720M820.848 59.8713L820.036 58.0291L819.769 57.4214L819.503 56.8176L818.713 55.024M820.848 59.8713H871.272M767.351 45.9203H814.703M767.351 45.9203L766.408 41.6403M767.351 45.9203H720M767.351 45.9203L767.715 47.5703L767.838 48.1261L767.96 48.6846L768.208 49.8104L768.333 50.3777M814.703 45.9203L813.282 42.6941L812.817 41.6403M814.703 45.9203L816.666 50.3777M814.703 45.9203H862.054M766.408 41.6403H812.817M766.408 41.6403H720M766.408 41.6403L765.503 37.5274M812.817 41.6403L811.677 39.0507L811.451 38.5402L811.228 38.0325L811.005 37.5274M812.817 41.6403H859.226M763.793 29.7652H807.586M763.793 29.7652L762.986 26.0989M763.793 29.7652H720M763.793 29.7652L764.632 33.5718M807.586 29.7652L807.793 30.2331L809.05 33.088L809.263 33.5718M807.586 29.7652L805.971 26.0989M807.586 29.7652H851.379M762.986 26.0989H805.971M762.986 26.0989H720M762.986 26.0989L762.207 22.5653M805.971 26.0989L805.38 24.7585L805.186 24.3157L804.991 23.8751L804.414 22.5653M805.971 26.0989H848.956M760.733 15.8682H801.465M760.733 15.8682L760.033 12.6922M760.733 15.8682H720M760.733 15.8682L761.457 19.1572M801.465 15.8682L801.287 15.4653L800.934 14.6643L800.759 14.2663L800.41 13.4763L800.238 13.0832L800.065 12.6922M801.465 15.8682L802.183 17.498L802.364 17.9102L802.73 18.7396L802.913 19.1572M801.465 15.8682H842.197M760.033 12.6922L759.947 12.303L759.861 11.9153L759.777 11.5293L759.357 9.62381M760.033 12.6922H800.065M760.033 12.6922H720M800.065 12.6922H840.099M800.065 12.6922L799.723 11.9153L799.553 11.5293L799.384 11.1449L798.881 10.0016L798.714 9.62381M1269 329.454H1378.8M1269 329.454L1244.3 307.029M1269 329.454H1159.2M1269 329.454L1296.14 354.096M1378.8 329.454L1349.17 307.029M1378.8 329.454L1411.36 354.096M1378.8 329.454H1488.6M1244.3 307.029H1349.17M1244.3 307.029H1139.44M1244.3 307.029L1221.74 286.535M1349.17 307.029L1322.08 286.535M1349.17 307.029H1454.03M1181.96 250.42H1274.36M1181.96 250.42L1164.35 234.428M1181.96 250.42H1089.57M1181.96 250.42L1201.03 267.732M1274.36 250.42L1253.22 234.428M1274.36 250.42L1297.23 267.732M1274.36 250.42H1366.75M1164.35 234.428H1253.22M1164.35 234.428H1075.48M1164.35 234.428L1148.03 219.61M1253.22 234.428L1233.64 219.61M1253.22 234.428H1342.09M1118.75 193.017H1198.5M1118.75 193.017L1105.56 181.039M1118.75 193.017H1039M1118.75 193.017L1132.87 205.842M1198.5 193.017L1182.67 181.039M1198.5 193.017L1215.45 205.842M1198.5 193.017H1278.25M1105.56 181.039H1182.67M1105.56 181.039H1028.45M1105.56 181.039L1093.21 169.829M1182.67 181.039L1167.85 169.829M1182.67 181.039H1259.78M1070.75 149.432H1140.9M1070.75 149.432L1060.5 140.128M1070.75 149.432H1000.6M1070.75 149.432L1081.63 159.315M1140.9 149.432L1128.6 140.128M1140.9 149.432L1153.96 159.315M1140.9 149.432H1211.05M1060.5 140.128H1128.6M1060.5 140.128H992.403M1060.5 140.128L1050.84 131.352M1128.6 140.128L1117.01 131.352M1128.6 140.128H1196.7M1033.07 115.213H1095.68M1033.07 115.213L1024.88 107.778M1033.07 115.213H970.453M1033.07 115.213L1041.71 123.06M1095.68 115.213L1085.85 107.778M1095.68 115.213L1106.05 123.06M1095.68 115.213H1158.29M1024.88 107.778H1085.85M1024.88 107.778H963.902M1024.88 107.778L1017.11 100.721M1085.85 107.778L1076.53 100.721M1085.85 107.778H1146.83M1002.69 87.634H1059.23M1002.69 87.634L996 81.5556M1002.69 87.634H946.155M1002.69 87.634L1009.72 94.0149M1059.23 87.634L1051.2 81.5556M1059.23 87.634L1067.67 94.0149M1059.23 87.634H1115.77M996 81.5556H1051.2M996 81.5556H940.801M996 81.5556L989.616 75.7583M1051.2 81.5556L1043.54 75.7583M1051.2 81.5556H1106.4M977.694 64.9325L978.408 65.5812L979.127 66.2331L983.52 70.2231M977.694 64.9325H1029.23M977.694 64.9325L972.12 59.8713M977.694 64.9325H926.156M1029.23 64.9325L1022.54 59.8713M1029.23 64.9325L1036.22 70.2231M1029.23 64.9325H1080.77M972.12 59.8713H1022.54M972.12 59.8713H921.696M972.12 59.8713L966.782 55.024M1022.54 59.8713L1016.14 55.024M1022.54 59.8713H1072.97M956.756 45.9203H1004.11M956.756 45.9203L952.043 41.6403M956.756 45.9203H909.405M956.756 45.9203L961.665 50.3777M1004.11 45.9203L1000.55 43.2253L998.452 41.6403M1004.11 45.9203L1010 50.3777M1004.11 45.9203H1051.46M952.043 41.6403H998.452M952.043 41.6403H905.635M952.043 41.6403L948.071 38.0325L947.514 37.5274M998.452 41.6403L993.016 37.5274M998.452 41.6403H1044.86M938.966 29.7652H982.759M938.966 29.7652L937.942 28.8354L934.928 26.0989M938.966 29.7652H895.173M938.966 29.7652L939.999 30.7032L942.095 32.6065L943.158 33.5718M982.759 29.7652L977.914 26.0989M982.759 29.7652L984.623 31.176L985.88 32.1276L987.789 33.5718M982.759 29.7652H1026.55M934.928 26.0989H977.914M934.928 26.0989H891.942M934.928 26.0989L931.996 23.4361L931.036 22.5653M977.914 26.0989L976.142 24.7585L974.975 23.8751L973.243 22.5653M977.914 26.0989H1020.9M923.662 15.8682H964.394M923.662 15.8682L921.461 13.8705L920.164 12.6922M923.662 15.8682H882.929M923.662 15.8682L927.284 19.1572M964.394 15.8682L961.232 13.4763L960.714 13.0832L960.196 12.6922M964.394 15.8682L966.548 17.498L968.74 19.1572M964.394 15.8682H1005.13M920.164 12.6922H960.196M920.164 12.6922L918.46 11.1449L917.619 10.3811L917.201 10.0016L916.785 9.62381M920.164 12.6922H880.131M960.196 12.6922H1000.23M960.196 12.6922L956.142 9.62381M1519.83 234.428H1430.96M1519.83 234.428L1490.46 219.61M1519.83 234.428H1546.46M1519.83 234.428L1546.46 247.861M1437.75 193.017H1517.5M1437.75 193.017L1414 181.039M1437.75 193.017H1358M1437.75 193.017L1463.17 205.842M1517.5 193.017L1491.12 181.039M1517.5 193.017L1545.74 205.842M1517.5 193.017H1546.46M1414 181.039H1491.12M1414 181.039H1336.89M1414 181.039L1391.78 169.829M1491.12 181.039L1466.42 169.829M1491.12 181.039H1546.46M1351.35 149.432H1421.5M1351.35 149.432L1332.91 140.128M1351.35 149.432H1281.2M1351.35 149.432L1370.94 159.315M1421.5 149.432L1401.01 140.128M1421.5 149.432L1443.27 159.315M1421.5 149.432H1491.65M1332.91 140.128H1401.01M1332.91 140.128H1264.81M1332.91 140.128L1315.51 131.352M1401.01 140.128L1381.68 131.352M1401.01 140.128H1469.11M1283.52 115.213H1346.13M1283.52 115.213L1268.78 107.778M1283.52 115.213H1220.91M1283.52 115.213L1299.07 123.06M1346.13 115.213L1329.75 107.778M1346.13 115.213L1363.42 123.06M1346.13 115.213H1408.75M1268.78 107.778H1329.75M1268.78 107.778H1207.8M1268.78 107.778L1254.79 100.721M1329.75 107.778L1314.21 100.721M1329.75 107.778H1390.73M1228.85 87.634H1285.39M1228.85 87.634L1216.8 81.5556M1228.85 87.634H1172.31M1228.85 87.634L1241.5 94.0149M1285.39 87.634L1272 81.5556M1285.39 87.634L1299.44 94.0149M1285.39 87.634H1341.93M1216.8 81.5556H1272M1216.8 81.5556H1161.6M1216.8 81.5556L1205.31 75.7583M1272 81.5556L1259.23 75.7583M1272 81.5556H1327.2M1183.85 64.9325H1235.39M1183.85 64.9325L1173.82 59.8713M1183.85 64.9325H1132.31M1183.85 64.9325L1194.34 70.2231M1235.39 64.9325L1224.24 59.8713M1235.39 64.9325L1247.04 70.2231M1235.39 64.9325H1286.93M1173.82 59.8713H1224.24M1173.82 59.8713H1123.39M1173.82 59.8713L1164.21 55.024M1224.24 59.8713L1213.56 55.024M1224.24 59.8713H1274.66M1146.16 45.9203H1193.51M1146.16 45.9203L1137.68 41.6403M1146.16 45.9203H1098.81M1146.16 45.9203L1155 50.3777M1193.51 45.9203L1184.09 41.6403M1193.51 45.9203L1203.33 50.3777M1193.51 45.9203H1240.86M1137.68 41.6403H1184.09M1137.68 41.6403H1091.27M1137.68 41.6403L1129.52 37.5274M1184.09 41.6403L1175.03 37.5274M1184.09 41.6403H1230.5M1114.14 29.7652H1157.93M1114.14 29.7652L1106.87 26.0989M1114.14 29.7652H1070.34M1114.14 29.7652L1116 30.7032L1116.93 31.176L1121.68 33.5718M1157.93 29.7652L1149.86 26.0989M1157.93 29.7652L1166.32 33.5718M1157.93 29.7652H1201.72M1106.87 26.0989H1149.86M1106.87 26.0989H1063.88M1106.87 26.0989L1099.87 22.5653M1149.86 26.0989L1142.07 22.5653M1149.86 26.0989H1192.84M1086.59 15.8682H1127.32M1086.59 15.8682L1080.3 12.6922M1086.59 15.8682H1045.86M1086.59 15.8682L1093.11 19.1572M1127.32 15.8682L1122.05 13.4763L1121.19 13.0832L1120.33 12.6922M1127.32 15.8682L1134.57 19.1572M1127.32 15.8682H1168.06M1080.3 12.6922H1120.33M1080.3 12.6922L1074.96 10.0016L1074.21 9.62381M1080.3 12.6922H1040.26M1120.33 12.6922H1160.36M1120.33 12.6922L1113.57 9.62381M1533.97 115.213L1512.68 107.778M1533.97 115.213H1471.36M1533.97 115.213L1546.46 119.575M1533.97 115.213H1546.46M1512.68 107.778H1451.71M1512.68 107.778L1492.48 100.721M1512.68 107.778H1546.46M1455.01 87.634H1511.54M1455.01 87.634L1437.6 81.5556M1455.01 87.634H1398.47M1455.01 87.634L1473.28 94.0149M1511.54 87.634L1492.8 81.5556M1511.54 87.634L1531.22 94.0149M1511.54 87.634H1546.46M1437.6 81.5556H1492.8M1437.6 81.5556H1382.4M1437.6 81.5556L1421 75.7583M1492.8 81.5556L1474.92 75.7583M1492.8 81.5556H1546.46M1390 64.9325H1441.54M1390 64.9325L1375.51 59.8713M1390 64.9325H1338.47M1390 64.9325L1405.15 70.2231M1441.54 64.9325L1425.94 59.8713M1441.54 64.9325L1457.86 70.2231M1441.54 64.9325H1493.08M1375.51 59.8713H1425.94M1375.51 59.8713H1325.09M1375.51 59.8713L1361.63 55.024M1425.94 59.8713L1410.99 55.024M1425.94 59.8713H1476.36M1335.57 45.9203H1382.92M1335.57 45.9203L1323.31 41.6403M1335.57 45.9203H1288.22M1335.57 45.9203L1348.33 50.3777M1382.92 45.9203L1369.72 41.6403M1382.92 45.9203L1396.66 50.3777M1382.92 45.9203H1430.27M1323.31 41.6403H1369.72M1323.31 41.6403H1276.9M1323.31 41.6403L1311.54 37.5274M1369.72 41.6403L1357.04 37.5274M1369.72 41.6403H1416.13M1289.31 29.7652H1333.1M1289.31 29.7652L1278.81 26.0989M1289.31 29.7652H1245.52M1289.31 29.7652L1300.21 33.5718M1333.1 29.7652L1321.8 26.0989M1333.1 29.7652L1344.84 33.5718M1333.1 29.7652H1376.9M1278.81 26.0989H1321.8M1278.81 26.0989H1235.83M1278.81 26.0989L1268.69 22.5653M1321.8 26.0989L1310.9 22.5653M1321.8 26.0989H1364.78M1249.52 15.8682H1290.25M1249.52 15.8682L1240.43 12.6922M1249.52 15.8682H1208.79M1249.52 15.8682L1258.94 19.1572M1290.25 15.8682L1280.46 12.6922M1290.25 15.8682L1300.39 19.1572M1290.25 15.8682H1330.99M1240.43 12.6922H1280.46M1240.43 12.6922L1231.64 9.62381M1240.43 12.6922H1200.39M1280.46 12.6922H1320.49M1280.46 12.6922L1271 9.62381M1524.97 45.9203L1508.95 41.6403M1524.97 45.9203H1477.62M1524.97 45.9203L1541.66 50.3777M1524.97 45.9203H1546.46M1508.95 41.6403H1462.54M1508.95 41.6403L1493.55 37.5274M1508.95 41.6403H1546.46M1464.48 29.7652H1508.28M1464.48 29.7652L1450.75 26.0989M1464.48 29.7652H1420.69M1464.48 29.7652L1478.74 33.5718M1508.28 29.7652L1493.74 26.0989M1508.28 29.7652L1523.37 33.5718M1508.28 29.7652H1546.46M1450.75 26.0989H1493.74M1450.75 26.0989H1407.77M1450.75 26.0989L1437.52 22.5653M1493.74 26.0989L1479.73 22.5653M1493.74 26.0989H1536.73M1412.45 15.8682H1453.18M1412.45 15.8682L1400.56 12.6922M1412.45 15.8682H1371.72M1412.45 15.8682L1424.76 19.1572M1453.18 15.8682L1440.59 12.6922M1453.18 15.8682L1466.22 19.1572M1453.18 15.8682H1493.91M1400.56 12.6922H1440.59M1400.56 12.6922L1389.07 9.62381M1400.56 12.6922H1360.53M1440.59 12.6922H1480.62M1440.59 12.6922L1428.42 9.62381M1466.22 19.1572L1479.73 22.5653M1466.22 19.1572H1507.68M1466.22 19.1572H1424.76M1493.91 15.8682L1480.62 12.6922M1493.91 15.8682L1507.68 19.1572M1493.91 15.8682H1534.65M1480.62 12.6922H1520.66M1480.62 12.6922L1467.78 9.62381M1428.42 9.62381H1389.07M1428.42 9.62381H1467.78M1428.42 9.62381L1416.66 6.65693M1507.68 19.1572L1521.94 22.5653M1507.68 19.1572H1546.46M1534.65 15.8682L1520.66 12.6922M1534.65 15.8682L1546.46 18.5504M1534.65 15.8682H1546.46M1520.66 12.6922L1507.14 9.62381M1520.66 12.6922H1546.46M1467.78 9.62381H1507.14M1467.78 9.62381L1455.37 6.65693M1507.14 9.62381L1494.07 6.65693M1507.14 9.62381H1546.46M1479.73 22.5653H1521.94M1479.73 22.5653H1437.52M1536.73 26.0989L1521.94 22.5653M1536.73 26.0989L1546.46 28.4248M1536.73 26.0989H1546.46M1521.94 22.5653H1546.46M1437.52 22.5653H1395.32M1437.52 22.5653L1424.76 19.1572M1424.76 19.1572H1383.31M1523.37 33.5718L1539.05 37.5274M1523.37 33.5718H1478.74M1523.37 33.5718H1546.46M1546.6 29.7652H1546.46M1539.05 37.5274H1493.55M1539.05 37.5274L1546.46 39.3969M1539.05 37.5274H1546.46M1493.55 37.5274H1448.04M1493.55 37.5274L1478.74 33.5718M1478.74 33.5718H1434.11M1300.39 19.1572L1310.9 22.5653M1300.39 19.1572H1341.85M1300.39 19.1572H1258.94M1330.99 15.8682L1320.49 12.6922M1330.99 15.8682L1341.85 19.1572M1330.99 15.8682H1371.72M1320.49 12.6922H1360.53M1320.49 12.6922L1310.35 9.62381M1271 9.62381H1310.35M1271 9.62381L1261.85 6.65693M1271 9.62381H1231.64M1341.85 19.1572L1353.11 22.5653M1341.85 19.1572H1383.31M1371.72 15.8682L1360.53 12.6922M1371.72 15.8682L1383.31 19.1572M1360.53 12.6922L1349.71 9.62381M1310.35 9.62381H1349.71M1310.35 9.62381L1300.55 6.65693M1383.31 19.1572L1395.32 22.5653M1389.07 9.62381H1349.71M1389.07 9.62381L1377.96 6.65693M1349.71 9.62381L1339.26 6.65693M1310.9 22.5653H1353.11M1310.9 22.5653H1268.69M1364.78 26.0989L1353.11 22.5653M1364.78 26.0989L1376.9 29.7652M1364.78 26.0989H1407.77M1353.11 22.5653H1395.32M1268.69 22.5653H1226.49M1268.69 22.5653L1258.94 19.1572M1395.32 22.5653L1407.77 26.0989M1258.94 19.1572H1217.48M1376.9 29.7652L1389.47 33.5718M1376.9 29.7652H1420.69M1407.77 26.0989L1420.69 29.7652M1420.69 29.7652L1434.11 33.5718M1344.84 33.5718L1357.04 37.5274M1344.84 33.5718H1389.47M1344.84 33.5718H1300.21M1389.47 33.5718L1402.54 37.5274M1389.47 33.5718H1434.11M1434.11 33.5718L1448.04 37.5274M1357.04 37.5274H1402.54M1357.04 37.5274H1311.54M1416.13 41.6403L1402.54 37.5274M1416.13 41.6403L1430.27 45.9203M1416.13 41.6403H1462.54M1402.54 37.5274H1448.04M1311.54 37.5274H1266.03M1311.54 37.5274L1300.21 33.5718M1448.04 37.5274L1462.54 41.6403M1300.21 33.5718H1255.58M1430.27 45.9203L1445 50.3777M1430.27 45.9203H1477.62M1462.54 41.6403L1477.62 45.9203M1477.62 45.9203L1493.33 50.3777M1396.66 50.3777L1410.99 55.024M1396.66 50.3777H1445M1396.66 50.3777H1348.33M1445 50.3777L1460.35 55.024M1445 50.3777H1493.33M1493.33 50.3777L1509.7 55.024M1493.33 50.3777H1541.66M1541.66 50.3777H1546.46M1541.66 50.3777L1546.46 51.6593M1410.99 55.024H1460.35M1410.99 55.024H1361.63M1476.36 59.8713L1460.35 55.024M1476.36 59.8713L1493.08 64.9325M1476.36 59.8713H1526.78M1460.35 55.024H1509.7M1361.63 55.024H1312.28M1361.63 55.024L1348.33 50.3777M1509.7 55.024L1526.78 59.8713M1509.7 55.024H1546.46M1348.33 50.3777H1300M1493.08 64.9325L1510.56 70.2231M1493.08 64.9325H1544.62M1526.78 59.8713L1544.62 64.9325M1526.78 59.8713H1546.46M1546.72 55.024H1546.46M1544.62 64.9325L1546.46 65.4549M1544.62 64.9325H1546.46M1457.86 70.2231L1474.92 75.7583M1457.86 70.2231H1510.56M1457.86 70.2231H1405.15M1510.56 70.2231L1528.85 75.7583M1510.56 70.2231H1546.46M1546.91 65.5812L1546.46 65.4549M1474.92 75.7583H1528.85M1474.92 75.7583H1421M1528.85 75.7583H1546.46M1528.85 75.7583L1546.46 81.0897M1421 75.7583H1367.08M1421 75.7583L1405.15 70.2231M1405.15 70.2231H1352.45M1531.22 94.0149H1473.28M1531.22 94.0149L1546.46 98.9579M1531.22 94.0149H1546.46M1546.88 87.634H1546.46M1473.28 94.0149H1415.33M1473.28 94.0149L1492.48 100.721M1546.63 99.0123L1546.46 98.9579M1134.57 19.1572L1142.07 22.5653M1134.57 19.1572H1176.02M1134.57 19.1572H1093.11M1168.06 15.8682L1160.36 12.6922M1168.06 15.8682L1176.02 19.1572M1168.06 15.8682H1208.79M1160.36 12.6922H1200.39M1160.36 12.6922L1152.93 9.62381M1113.57 9.62381H1152.93M1113.57 9.62381L1111.09 8.49963L1107.03 6.65693M1113.57 9.62381H1074.21M1176.02 19.1572L1184.28 22.5653M1176.02 19.1572H1217.48M1208.79 15.8682L1200.39 12.6922M1208.79 15.8682L1217.48 19.1572M1200.39 12.6922L1192.28 9.62381M1152.93 9.62381H1192.28M1152.93 9.62381L1145.74 6.65693M1217.48 19.1572L1226.49 22.5653M1231.64 9.62381L1223.15 6.65693M1231.64 9.62381H1192.28M1192.28 9.62381L1191.29 9.24708L1189.31 8.49963L1184.44 6.65693M1142.07 22.5653H1184.28M1142.07 22.5653H1099.87M1192.84 26.0989L1184.28 22.5653M1192.84 26.0989L1201.72 29.7652M1192.84 26.0989H1235.83M1184.28 22.5653H1226.49M1099.87 22.5653H1057.66M1099.87 22.5653L1093.11 19.1572M1226.49 22.5653L1235.83 26.0989M1093.11 19.1572H1051.65M1201.72 29.7652L1210.95 33.5718M1201.72 29.7652H1245.52M1235.83 26.0989L1237.02 26.5493L1245.52 29.7652M1245.52 29.7652L1255.58 33.5718M1166.32 33.5718L1167.39 34.0582L1175.03 37.5274M1166.32 33.5718H1210.95M1166.32 33.5718H1121.68M1210.95 33.5718L1220.53 37.5274M1210.95 33.5718H1255.58M1255.58 33.5718L1266.03 37.5274M1175.03 37.5274H1220.53M1175.03 37.5274H1129.52M1230.5 41.6403L1220.53 37.5274M1230.5 41.6403L1240.86 45.9203M1230.5 41.6403H1276.9M1220.53 37.5274H1266.03M1129.52 37.5274H1084.02M1129.52 37.5274L1121.68 33.5718M1266.03 37.5274L1276.9 41.6403M1121.68 33.5718H1077.05M1240.86 45.9203L1251.66 50.3777M1240.86 45.9203H1288.22M1276.9 41.6403L1288.22 45.9203M1288.22 45.9203L1300 50.3777M1203.33 50.3777L1213.56 55.024M1203.33 50.3777H1251.66M1203.33 50.3777H1155M1251.66 50.3777L1262.92 55.024M1251.66 50.3777H1300M1300 50.3777L1312.28 55.024M1213.56 55.024H1262.92M1213.56 55.024H1164.21M1274.66 59.8713L1262.92 55.024M1274.66 59.8713L1286.93 64.9325M1274.66 59.8713H1325.09M1262.92 55.024H1312.28M1164.21 55.024H1114.85M1164.21 55.024L1155 50.3777M1312.28 55.024L1325.09 59.8713M1155 50.3777H1106.66M1286.93 64.9325L1299.74 70.2231M1286.93 64.9325H1338.47M1325.09 59.8713L1338.47 64.9325M1338.47 64.9325L1352.45 70.2231M1247.04 70.2231L1259.23 75.7583M1247.04 70.2231H1299.74M1247.04 70.2231H1194.34M1299.74 70.2231L1313.16 75.7583M1299.74 70.2231H1352.45M1352.45 70.2231L1367.08 75.7583M1259.23 75.7583H1313.16M1259.23 75.7583H1205.31M1327.2 81.5556L1313.16 75.7583M1327.2 81.5556L1341.93 87.634M1327.2 81.5556H1382.4M1313.16 75.7583H1367.08M1205.31 75.7583H1151.39M1205.31 75.7583L1194.34 70.2231M1367.08 75.7583L1382.4 81.5556M1194.34 70.2231H1141.63M1341.93 87.634L1357.39 94.0149M1341.93 87.634H1398.47M1382.4 81.5556L1398.47 87.634M1398.47 87.634L1415.33 94.0149M1299.44 94.0149L1314.21 100.721M1299.44 94.0149H1357.39M1299.44 94.0149H1241.5M1357.39 94.0149L1373.63 100.721M1357.39 94.0149H1415.33M1415.33 94.0149L1433.05 100.721M1314.21 100.721H1373.63M1314.21 100.721H1254.79M1390.73 107.778L1373.63 100.721M1390.73 107.778L1408.75 115.213M1390.73 107.778H1451.71M1373.63 100.721H1433.05M1254.79 100.721H1195.37M1254.79 100.721L1241.5 94.0149M1433.05 100.721L1451.71 107.778M1433.05 100.721H1492.48M1241.5 94.0149H1183.55M1408.75 115.213L1427.76 123.06M1408.75 115.213H1471.36M1451.71 107.778L1471.36 115.213M1492.48 100.721H1546.46M1471.36 115.213L1492.1 123.06M1363.42 123.06L1381.68 131.352M1363.42 123.06H1427.76M1363.42 123.06H1299.07M1427.76 123.06L1447.85 131.352M1427.76 123.06H1492.1M1492.1 123.06L1514.01 131.352M1492.1 123.06H1546.46M1381.68 131.352H1447.85M1381.68 131.352H1315.51M1469.11 140.128L1447.85 131.352M1469.11 140.128L1491.65 149.432M1469.11 140.128H1537.21M1447.85 131.352H1514.01M1315.51 131.352H1249.34M1315.51 131.352L1299.07 123.06M1514.01 131.352L1537.21 140.128M1514.01 131.352H1546.46M1299.07 123.06H1234.73M1491.65 149.432L1515.59 159.315M1491.65 149.432H1546.46M1537.21 140.128H1546.46M1537.21 140.128L1546.46 143.629M1443.27 159.315L1466.42 169.829M1443.27 159.315H1515.59M1443.27 159.315H1370.94M1515.59 159.315L1541.07 169.829M1515.59 159.315H1546.46M1466.42 169.829H1541.07M1466.42 169.829H1391.78M1541.07 169.829L1546.46 172.056M1541.07 169.829H1546.46M1391.78 169.829H1317.14M1391.78 169.829L1370.94 159.315M1370.94 159.315H1298.61M1545.74 205.842H1463.17M1545.74 205.842H1546.46M1545.74 205.842L1546.46 206.168M1463.17 205.842H1380.6M1463.17 205.842L1490.46 219.61M968.74 19.1572L970.41 20.4206L970.971 20.846L973.243 22.5653M968.74 19.1572H1010.2M968.74 19.1572H927.284M1005.13 15.8682L1001.44 13.4763L1000.23 12.6922M1005.13 15.8682L1009.55 18.7396L1010.2 19.1572M1005.13 15.8682H1045.86M1000.23 12.6922H1040.26M1000.23 12.6922L995.498 9.62381M956.142 9.62381H995.498M956.142 9.62381L954.656 8.49963L952.221 6.65693M956.142 9.62381H916.785M1010.2 19.1572L1011.49 19.9975L1015.45 22.5653M1010.2 19.1572H1051.65M1045.86 15.8682L1040.26 12.6922M1045.86 15.8682L1051.65 19.1572M1040.26 12.6922L1036.19 10.3811L1034.86 9.62381M995.498 9.62381H1034.86M995.498 9.62381L990.924 6.65693M1051.65 19.1572L1057.66 22.5653M1074.21 9.62381L1073.47 9.24708L1068.33 6.65693M1074.21 9.62381H1034.86M1034.86 9.62381L1032.87 8.49963L1029.63 6.65693M973.243 22.5653H1015.45M973.243 22.5653H931.036M1020.9 26.0989L1015.45 22.5653M1020.9 26.0989L1026.55 29.7652M1020.9 26.0989H1063.88M1015.45 22.5653H1057.66M931.036 22.5653H888.829M931.036 22.5653L927.284 19.1572M1057.66 22.5653L1063.88 26.0989M927.284 19.1572H885.827M1026.55 29.7652L1030.19 32.1276L1030.93 32.6065L1032.42 33.5718M1026.55 29.7652H1070.34M1063.88 26.0989L1070.34 29.7652M1070.34 29.7652L1077.05 33.5718M987.789 33.5718L993.016 37.5274M987.789 33.5718H1032.42M987.789 33.5718H943.158M1032.42 33.5718L1038.52 37.5274M1032.42 33.5718H1077.05M1077.05 33.5718L1084.02 37.5274M993.016 37.5274H1038.52M993.016 37.5274H947.514M1044.86 41.6403L1040.87 39.0507L1040.08 38.5402L1038.52 37.5274M1044.86 41.6403L1051.46 45.9203M1044.86 41.6403H1091.27M1038.52 37.5274H1084.02M947.514 37.5274H902.011M947.514 37.5274L943.158 33.5718M1084.02 37.5274L1091.27 41.6403M943.158 33.5718H898.526M1051.46 45.9203L1058.33 50.3777M1051.46 45.9203H1098.81M1091.27 41.6403L1098.81 45.9203M1098.81 45.9203L1106.66 50.3777M1010 50.3777L1013.04 52.6763L1013.81 53.2589L1016.14 55.024M1010 50.3777H1058.33M1010 50.3777H961.665M1058.33 50.3777L1065.49 55.024M1058.33 50.3777H1106.66M1106.66 50.3777L1114.85 55.024M1016.14 55.024H1065.49M1016.14 55.024H966.782M1072.97 59.8713L1065.49 55.024M1072.97 59.8713L1080.77 64.9325M1072.97 59.8713H1123.39M1065.49 55.024H1114.85M966.782 55.024H917.425M966.782 55.024L965.482 53.8442L961.665 50.3777M1114.85 55.024L1123.39 59.8713M961.665 50.3777H913.333M1080.77 64.9325L1088.93 70.2231M1080.77 64.9325H1132.31M1123.39 59.8713L1132.31 64.9325M1132.31 64.9325L1141.63 70.2231M1036.22 70.2231L1043.54 75.7583M1036.22 70.2231H1088.93M1036.22 70.2231H983.52M1088.93 70.2231L1097.46 75.7583M1088.93 70.2231H1141.63M1141.63 70.2231L1151.39 75.7583M1043.54 75.7583H1097.46M1043.54 75.7583H989.616M1106.4 81.5556L1097.46 75.7583M1106.4 81.5556L1115.77 87.634M1106.4 81.5556H1161.6M1097.46 75.7583H1151.39M989.616 75.7583H935.693M989.616 75.7583L983.52 70.2231M1151.39 75.7583L1161.6 81.5556M983.52 70.2231H930.817M1115.77 87.634L1125.61 94.0149M1115.77 87.634H1172.31M1161.6 81.5556L1172.31 87.634M1172.31 87.634L1183.55 94.0149M1067.67 94.0149L1076.53 100.721M1067.67 94.0149H1125.61M1067.67 94.0149H1009.72M1125.61 94.0149L1135.95 100.721M1125.61 94.0149H1183.55M1183.55 94.0149L1195.37 100.721M1076.53 100.721H1135.95M1076.53 100.721H1017.11M1146.83 107.778L1135.95 100.721M1146.83 107.778L1158.29 115.213M1146.83 107.778H1207.8M1135.95 100.721H1195.37M1017.11 100.721H957.685M1017.11 100.721L1009.72 94.0149M1195.37 100.721L1207.8 107.778M1009.72 94.0149H951.777M1158.29 115.213L1170.39 123.06M1158.29 115.213H1220.91M1207.8 107.778L1220.91 115.213M1220.91 115.213L1234.73 123.06M1106.05 123.06L1117.01 131.352M1106.05 123.06H1170.39M1106.05 123.06H1041.71M1170.39 123.06L1183.17 131.352M1170.39 123.06H1234.73M1234.73 123.06L1249.34 131.352M1117.01 131.352H1183.17M1117.01 131.352H1050.84M1196.7 140.128L1183.17 131.352M1196.7 140.128L1211.05 149.432M1196.7 140.128H1264.81M1183.17 131.352H1249.34M1050.84 131.352H984.671M1050.84 131.352L1041.71 123.06M1249.34 131.352L1264.81 140.128M1041.71 123.06H977.366M1211.05 149.432L1226.29 159.315M1211.05 149.432H1281.2M1264.81 140.128L1281.2 149.432M1281.2 149.432L1298.61 159.315M1153.96 159.315L1167.85 169.829M1153.96 159.315H1226.29M1153.96 159.315H1081.63M1226.29 159.315L1242.5 169.829M1226.29 159.315H1298.61M1298.61 159.315L1317.14 169.829M1167.85 169.829H1242.5M1167.85 169.829H1093.21M1259.78 181.039L1242.5 169.829M1259.78 181.039L1278.25 193.017M1259.78 181.039H1336.89M1242.5 169.829H1317.14M1093.21 169.829H1018.57M1093.21 169.829L1081.63 159.315M1317.14 169.829L1336.89 181.039M1081.63 159.315H1009.31M1278.25 193.017L1298.02 205.842M1278.25 193.017H1358M1336.89 181.039L1358 193.017M1358 193.017L1380.6 205.842M1215.45 205.842L1233.64 219.61M1215.45 205.842H1298.02M1215.45 205.842H1132.87M1298.02 205.842L1319.25 219.61M1298.02 205.842H1380.6M1380.6 205.842L1404.86 219.61M1233.64 219.61H1319.25M1233.64 219.61H1148.03M1342.09 234.428L1319.25 219.61M1342.09 234.428L1366.75 250.42M1342.09 234.428H1430.96M1319.25 219.61H1404.86M1148.03 219.61H1062.43M1148.03 219.61L1132.87 205.842M1404.86 219.61L1430.96 234.428M1404.86 219.61H1490.46M1132.87 205.842H1050.3M1366.75 250.42L1393.44 267.732M1366.75 250.42H1459.14M1430.96 234.428L1459.14 250.42M1490.46 219.61H1546.46M1459.14 250.42L1489.65 267.732M1459.14 250.42H1546.46M1297.23 267.732L1322.08 286.535M1297.23 267.732H1393.44M1297.23 267.732H1201.03M1393.44 267.732L1422.43 286.535M1393.44 267.732H1489.65M1489.65 267.732L1522.78 286.535M1489.65 267.732H1546.46M1322.08 286.535H1422.43M1322.08 286.535H1221.74M1454.03 307.029L1422.43 286.535M1454.03 307.029L1488.6 329.454M1454.03 307.029H1546.46M1422.43 286.535H1522.78M1221.74 286.535H1121.39M1221.74 286.535L1201.03 267.732M1522.78 286.535H1546.46M1522.78 286.535L1546.46 299.977M1201.03 267.732H1104.82M1488.6 329.454L1526.59 354.096M1488.6 329.454H1546.46M1411.36 354.096L1447.32 381.3M1411.36 354.096H1526.59M1411.36 354.096H1296.14M1526.59 354.096L1546.46 366.983M1526.59 354.096H1546.46M1447.32 381.3H1326.1M1447.32 381.3L1546.46 381.3M1326.1 381.3H1204.88M1326.1 381.3L1296.14 354.096M1296.14 354.096H1180.91M802.913 19.1572L803.098 19.5766L803.283 19.9975L803.47 20.4206L803.657 20.846L804.224 22.1323L804.414 22.5653M802.913 19.1572H844.37M802.913 19.1572H761.457M842.197 15.8682L840.616 13.4763L840.099 12.6922M842.197 15.8682L843.547 17.9102L844.37 19.1572M842.197 15.8682H882.929M840.099 12.6922H880.131M840.099 12.6922L838.571 10.3811L838.07 9.62381M798.714 9.62381L798.548 9.24708L797.892 7.75763L797.407 6.65693M798.714 9.62381H838.07M798.714 9.62381H759.357M844.37 19.1572L844.647 19.5766L844.926 19.9975L845.205 20.4206L845.486 20.846L846.622 22.5653M844.37 19.1572H885.827M882.929 15.8682L880.822 13.4763L880.131 12.6922M882.929 15.8682L885.827 19.1572M880.131 12.6922L878.768 11.1449L877.76 10.0016L877.428 9.62381M838.07 9.62381L837.822 9.24708L837.328 8.49963L836.838 7.75763L836.595 7.3891L836.11 6.65693M838.07 9.62381H877.428M885.827 19.1572L888.069 21.7015L888.829 22.5653M916.785 9.62381L914.324 7.3891L913.518 6.65693M916.785 9.62381H877.428M877.428 9.62381L875.136 7.0222L874.814 6.65693M804.414 22.5653H846.622M804.414 22.5653H762.207M848.956 26.0989L846.622 22.5653M848.956 26.0989L851.379 29.7652M848.956 26.0989H891.942M846.622 22.5653H888.829M762.207 22.5653H720M762.207 22.5653L761.457 19.1572M888.829 22.5653L891.942 26.0989M761.457 19.1572H720M851.379 29.7652L852 30.7032L852.941 32.1276L853.895 33.5718M851.379 29.7652H895.173M891.942 26.0989L892.34 26.5493L895.173 29.7652M895.173 29.7652L895.584 30.2331L895.999 30.7032L896.415 31.176L898.526 33.5718M809.263 33.5718L811.005 37.5274M809.263 33.5718H853.895M809.263 33.5718H764.632M853.895 33.5718L856.508 37.5274M853.895 33.5718H898.526M898.526 33.5718L901.127 36.5239L901.568 37.0246L902.011 37.5274M811.005 37.5274H856.508M811.005 37.5274H765.503M859.226 41.6403L859.573 42.1661L859.923 42.6941L860.273 43.2253L862.054 45.9203M859.226 41.6403L857.854 39.5634L857.515 39.0507L857.178 38.5402L856.508 37.5274M859.226 41.6403H905.635M856.508 37.5274H902.011M765.503 37.5274H720M765.503 37.5274L764.632 33.5718M902.011 37.5274L905.635 41.6403M764.632 33.5718H720M862.054 45.9203L864.625 49.8104L864.999 50.3777M862.054 45.9203H909.405M905.635 41.6403L906.563 42.6941L909.405 45.9203M909.405 45.9203L910.859 47.5703L913.333 50.3777M816.666 50.3777L817.679 52.6763L817.935 53.2589L818.713 55.024M816.666 50.3777H864.999M816.666 50.3777H768.333M864.999 50.3777L868.069 55.024M864.999 50.3777H913.333M913.333 50.3777L917.425 55.024M818.713 55.024H868.069M818.713 55.024H769.356M871.272 59.8713L868.069 55.024M871.272 59.8713L874.616 64.9325M871.272 59.8713H921.696M868.069 55.024H917.425M769.356 55.024H720M769.356 55.024L769.096 53.8442L768.585 51.521L768.333 50.3777M917.425 55.024L921.696 59.8713M768.333 50.3777H720M874.616 64.9325L877.223 68.8784L878.113 70.2231M874.616 64.9325H926.156M921.696 59.8713L926.156 64.9325M926.156 64.9325L928.459 67.5484L930.817 70.2231M825.408 70.2231L827.846 75.7583M825.408 70.2231H878.113M825.408 70.2231H772.704M878.113 70.2231L881.77 75.7583M878.113 70.2231H930.817M930.817 70.2231L935.693 75.7583M827.846 75.7583H881.77M827.846 75.7583H773.923M885.601 81.5556L884.625 80.0809L881.77 75.7583M885.601 81.5556L889.617 87.634M885.601 81.5556H940.801M881.77 75.7583H935.693M773.923 75.7583H720M773.923 75.7583L772.704 70.2231M935.693 75.7583L940.801 81.5556M772.704 70.2231H720M889.617 87.634L893.833 94.0149M889.617 87.634H946.155M940.801 81.5556L946.155 87.634M946.155 87.634L951.777 94.0149M835.889 94.0149L838.843 100.721M835.889 94.0149H893.833M835.889 94.0149H777.944M893.833 94.0149L898.264 100.721M893.833 94.0149H951.777M951.777 94.0149L957.685 100.721M838.843 100.721H898.264M838.843 100.721H779.421M902.927 107.778L898.264 100.721M902.927 107.778L907.84 115.213M902.927 107.778H963.902M898.264 100.721H957.685M779.421 100.721H720M779.421 100.721L778.124 94.835L777.944 94.0149M957.685 100.721L963.902 107.778M777.944 94.0149H720M907.84 115.213L913.024 123.06M907.84 115.213H970.453M963.902 107.778L968.782 113.318L970.453 115.213M970.453 115.213L977.366 123.06M848.683 123.06L852.335 131.352M848.683 123.06H913.024M848.683 123.06H784.342M913.024 123.06L918.503 131.352M913.024 123.06H977.366M977.366 123.06L984.671 131.352M852.335 131.352H918.503M852.335 131.352H786.168M924.302 140.128L918.503 131.352M924.302 140.128L930.45 149.432M924.302 140.128H992.403M918.503 131.352H984.671M786.168 131.352H720M786.168 131.352L784.342 123.06M984.671 131.352L992.403 140.128M784.342 123.06H720M930.45 149.432L936.98 159.315M930.45 149.432H1000.6M992.403 140.128L1000.6 149.432M1000.6 149.432L1009.31 159.315M864.653 159.315L869.285 169.829M864.653 159.315H936.98M864.653 159.315H792.327M936.98 159.315L943.927 169.829M936.98 159.315H1009.31M1009.31 159.315L1018.57 169.829M869.285 169.829H943.927M869.285 169.829H794.642M951.334 181.039L943.927 169.829M951.334 181.039L959.249 193.017M951.334 181.039H1028.45M943.927 169.829H1018.57M794.642 169.829H720M794.642 169.829L792.327 159.315M1018.57 169.829L1028.45 181.039M792.327 159.315H720M959.249 193.017L967.723 205.842M959.249 193.017H1039M1028.45 181.039L1039 193.017M1039 193.017L1050.3 205.842M885.149 205.842L891.214 219.61M885.149 205.842H967.723M885.149 205.842H802.575M967.723 205.842L976.82 219.61M967.723 205.842H1050.3M1050.3 205.842L1062.43 219.61M891.214 219.61H976.82M891.214 219.61H805.607M986.611 234.428L976.82 219.61M986.611 234.428L997.178 250.42M986.611 234.428H1075.48M976.82 219.61H1062.43M805.607 219.61H720M805.607 219.61L802.575 205.842M1062.43 219.61L1075.48 234.428M802.575 205.842H720M997.178 250.42L1008.62 267.732M997.178 250.42H1089.57M1075.48 234.428L1089.57 250.42M1089.57 250.42L1104.82 267.732M912.411 267.732L920.694 286.535M912.411 267.732H1008.62M912.411 267.732H816.206M1008.62 267.732L1021.04 286.535M1008.62 267.732H1104.82M1104.82 267.732L1121.39 286.535M920.694 286.535H1021.04M920.694 286.535H820.347M1034.58 307.029L1021.04 286.535M1034.58 307.029L1049.4 329.454M1034.58 307.029H1139.44M1021.04 286.535H1121.39M820.347 286.535H720M820.347 286.535L816.206 267.732M1121.39 286.535L1139.44 307.029M816.206 267.732H720M1049.4 329.454L1065.68 354.096M1049.4 329.454H1159.2M1139.44 307.029L1159.2 329.454M1159.2 329.454L1180.91 354.096M950.455 354.096L962.438 381.3M950.455 354.096H1065.68M950.455 354.096H835.228M1065.68 354.096L1083.66 381.3M1065.68 354.096H1180.91M1180.91 354.096L1204.88 381.3M1083.66 381.3H962.438M1083.66 381.3H1204.88M962.438 381.3H841.22M841.22 381.3H720M841.22 381.3L835.228 354.096M835.228 354.096H720M637.087 19.1572L636.902 19.5766L636.717 19.9975L636.53 20.4206L636.343 20.846L635.966 21.7015L635.776 22.1323L635.586 22.5653M637.087 19.1572H678.544M637.087 19.1572H595.63M679.268 15.8682L679.967 12.6922M679.268 15.8682L678.544 19.1572M679.268 15.8682H720M679.967 12.6922L680.053 12.303L680.139 11.9153L680.223 11.5293L680.643 9.62381M679.967 12.6922H720M641.286 9.62381L641.452 9.24708L642.108 7.75763L642.593 6.65693M641.286 9.62381H680.643M641.286 9.62381H601.93M678.544 19.1572L678.451 19.5766L678.358 19.9975L678.265 20.4206L677.793 22.5653M678.544 19.1572H720M720 15.8682V12.6922M720 15.8682V19.1572M720 12.6922V9.62381M680.643 9.62381H720M680.643 9.62381L680.89 8.49963L680.973 8.12782L681.297 6.65693M720 19.1572V22.5653M759.357 9.62381L759.11 8.49963L759.027 8.12782L758.946 7.75763L758.864 7.3891L758.784 7.0222L758.703 6.65693M759.357 9.62381H720M720 9.62381V6.65693M635.586 22.5653H677.793M635.586 22.5653H593.378M677.015 26.0989L676.915 26.5493L676.816 27.0025L676.207 29.7652M677.015 26.0989L677.793 22.5653M677.015 26.0989H720M677.793 22.5653H720M593.378 22.5653H551.171M593.378 22.5653L593.948 21.7015L594.232 21.2729L594.514 20.846L594.795 20.4206L595.074 19.9975L595.353 19.5766L595.63 19.1572M720 22.5653V26.0989M595.63 19.1572H554.173M676.207 29.7652L675.369 33.5718M676.207 29.7652H720M720 26.0989V29.7652M720 29.7652V33.5718M630.737 33.5718L628.995 37.5274M630.737 33.5718H675.369M630.737 33.5718H586.106M675.369 33.5718L674.497 37.5274M675.369 33.5718H720M720 33.5718V37.5274M628.995 37.5274H674.497M628.995 37.5274H583.492M673.592 41.6403L674.497 37.5274M673.592 41.6403L672.649 45.9203M673.592 41.6403H720M674.497 37.5274H720M583.492 37.5274H537.989M583.492 37.5274L586.106 33.5718M720 37.5274V41.6403M586.106 33.5718H541.474M672.649 45.9203L672.286 47.5703L671.916 49.2459L671.667 50.3777M672.649 45.9203H720M720 41.6403V45.9203M720 45.9203V50.3777M623.334 50.3777L622.321 52.6763L622.065 53.2589L621.287 55.024M623.334 50.3777H671.667M623.334 50.3777H575.001M671.667 50.3777L671.415 51.521L670.904 53.8442L670.644 55.024M671.667 50.3777H720M720 50.3777V55.024M621.287 55.024H670.644M621.287 55.024H571.931M669.576 59.8713L669.712 59.2538L670.644 55.024M669.576 59.8713L668.462 64.9325M669.576 59.8713H720M670.644 55.024H720M571.931 55.024H522.575M571.931 55.024L575.001 50.3777M720 55.024V59.8713M575.001 50.3777H526.667M668.462 64.9325L667.296 70.2231M668.462 64.9325H720M720 59.8713V64.9325M720 64.9325V70.2231M614.592 70.2231L612.154 75.7583M614.592 70.2231H667.296M614.592 70.2231H561.888M667.296 70.2231L666.077 75.7583M667.296 70.2231H720M720 70.2231V75.7583M612.154 75.7583H666.077M612.154 75.7583H558.23M664.8 81.5556L666.077 75.7583M664.8 81.5556L663.461 87.634M664.8 81.5556H720M666.077 75.7583H720M558.23 75.7583H504.307M558.23 75.7583L561.888 70.2231M720 75.7583V81.5556M561.888 70.2231H509.183M663.461 87.634L662.056 94.0149M663.461 87.634H720M720 81.5556V87.634M720 87.634V94.0149M604.111 94.0149L601.157 100.721M604.111 94.0149H662.056M604.111 94.0149H546.168M662.056 94.0149L660.579 100.721M662.056 94.0149H720M720 94.0149V100.721M601.157 100.721H660.579M601.157 100.721H541.737M659.024 107.778L660.579 100.721M659.024 107.778L657.387 115.213M659.024 107.778H720M660.579 100.721H720M541.737 100.721H482.315M541.737 100.721L546.168 94.0149M720 100.721V107.778M546.168 94.0149H488.223M657.387 115.213L655.658 123.06M657.387 115.213H720M720 107.778V115.213M720 115.213V123.06M591.317 123.06L587.665 131.352M591.317 123.06H655.658M591.317 123.06H526.976M655.658 123.06L653.832 131.352M655.658 123.06H720M720 123.06V131.352M587.665 131.352H653.832M587.665 131.352H521.497M651.9 140.128L653.832 131.352M651.9 140.128L649.85 149.432M651.9 140.128H720M653.832 131.352H720M521.497 131.352H455.329M521.497 131.352L526.976 123.06M720 131.352V140.128M526.976 123.06H462.634M649.85 149.432L647.673 159.315M649.85 149.432H720M720 140.128V149.432M720 149.432V159.315M575.347 159.315L570.715 169.829M575.347 159.315H647.673M575.347 159.315H503.02M647.673 159.315L645.358 169.829M647.673 159.315H720M720 159.315V169.829M570.715 169.829H645.358M570.715 169.829H496.073M642.889 181.039L645.358 169.829M642.889 181.039L640.251 193.017M642.889 181.039H720M645.358 169.829H720M496.073 169.829H421.43M496.073 169.829L503.02 159.315M720 169.829V181.039M503.02 159.315H430.694M640.251 193.017L637.425 205.842M640.251 193.017H720M720 181.039V193.017M720 193.017V205.842M554.851 205.842L548.786 219.61M554.851 205.842H637.425M554.851 205.842H472.277M637.425 205.842L634.393 219.61M637.425 205.842H720M720 205.842V219.61M548.786 219.61H634.393M548.786 219.61H463.18M631.13 234.428L634.393 219.61M631.13 234.428L627.608 250.42M631.13 234.428H720M634.393 219.61H720M463.18 219.61H377.573M463.18 219.61L472.277 205.842M720 219.61V234.428M472.277 205.842H389.702M627.608 250.42L623.794 267.732M627.608 250.42H720M720 234.428V250.42M720 250.42V267.732M527.589 267.732L519.306 286.535M527.589 267.732H623.794M527.589 267.732H431.382M623.794 267.732L619.653 286.535M623.794 267.732H720M720 267.732V286.535M519.306 286.535H619.653M519.306 286.535H418.959M615.139 307.029L619.653 286.535M615.139 307.029L610.2 329.454M615.139 307.029H720M619.653 286.535H720M418.959 286.535H318.612M418.959 286.535L431.382 267.732M720 286.535V307.029M431.382 267.732H335.177M610.2 329.454L604.772 354.096M610.2 329.454H720M720 307.029V329.454M720 329.454V354.096M489.546 354.096L477.562 381.3M489.546 354.096H604.772M489.546 354.096H374.318M604.772 354.096L598.78 381.3M604.772 354.096H720M720 354.096V381.3M598.78 381.3H477.562M598.78 381.3H720M477.562 381.3H356.342M356.342 381.3H235.123M356.342 381.3L374.318 354.096M374.318 354.096H259.09M471.26 19.1572L469.029 20.846L466.757 22.5653M471.26 19.1572H512.717M471.26 19.1572H429.804M516.338 15.8682L519.836 12.6922M516.338 15.8682L512.717 19.1572M516.338 15.8682H557.071M519.836 12.6922H559.869M519.836 12.6922L522.381 10.3811L523.215 9.62381M483.858 9.62381H523.215M483.858 9.62381L485.344 8.49963L487.779 6.65693M483.858 9.62381H444.502M512.717 19.1572L508.964 22.5653M512.717 19.1572H554.173M557.071 15.8682L559.869 12.6922M557.071 15.8682L554.173 19.1572M559.869 12.6922L561.232 11.1449L562.24 10.0016L562.572 9.62381M523.215 9.62381H562.572M523.215 9.62381L525.676 7.3891L526.482 6.65693M554.173 19.1572L551.931 21.7015L551.171 22.5653M601.93 9.62381L602.178 9.24708L602.672 8.49963L603.405 7.3891L603.89 6.65693M601.93 9.62381H562.572M562.572 9.62381L562.903 9.24708L563.563 8.49963L565.186 6.65693M466.757 22.5653H508.964M466.757 22.5653H424.549M505.072 26.0989L505.567 25.6501L506.058 25.2029L508.004 23.4361L508.964 22.5653M505.072 26.0989L502.058 28.8354L501.034 29.7652M505.072 26.0989H548.058M508.964 22.5653H551.171M424.549 22.5653H382.341M424.549 22.5653L428.507 19.9975L429.804 19.1572M551.171 22.5653L548.058 26.0989M429.804 19.1572H388.346M501.034 29.7652L500.519 30.2331L500.001 30.7032L498.433 32.1276L497.905 32.6065L496.842 33.5718M501.034 29.7652H544.827M548.058 26.0989L547.66 26.5493L544.827 29.7652M544.827 29.7652L544.416 30.2331L544.001 30.7032L543.585 31.176L541.474 33.5718M452.211 33.5718L446.984 37.5274M452.211 33.5718H496.842M452.211 33.5718H407.579M496.842 33.5718L492.486 37.5274M496.842 33.5718H541.474M541.474 33.5718L537.989 37.5274M446.984 37.5274H492.486M446.984 37.5274H401.481M487.957 41.6403L492.486 37.5274M487.957 41.6403L483.244 45.9203M487.957 41.6403H534.366M492.486 37.5274H537.989M401.481 37.5274H355.978M401.481 37.5274L407.579 33.5718M537.989 37.5274L534.366 41.6403M407.579 33.5718H362.947M483.244 45.9203L478.335 50.3777M483.244 45.9203H530.595M534.366 41.6403L533.437 42.6941L530.595 45.9203M530.595 45.9203L529.141 47.5703L527.664 49.2459L526.667 50.3777M430.002 50.3777L426.963 52.6763L423.862 55.024M430.002 50.3777H478.335M430.002 50.3777H381.668M478.335 50.3777L473.218 55.024M478.335 50.3777H526.667M526.667 50.3777L522.575 55.024M423.862 55.024H473.218M423.862 55.024H374.506M467.88 59.8713L473.218 55.024M467.88 59.8713L462.306 64.9325M467.88 59.8713H518.304M473.218 55.024H522.575M374.506 55.024H325.148M374.506 55.024L381.668 50.3777M522.575 55.024L518.304 59.8713M381.668 50.3777H333.336M462.306 64.9325L460.873 66.2331L456.48 70.2231M462.306 64.9325H513.844M518.304 59.8713L513.844 64.9325M513.844 64.9325L513.274 65.5812L511.541 67.5484L509.183 70.2231M403.776 70.2231L396.461 75.7583M403.776 70.2231H456.48M403.776 70.2231H351.072M456.48 70.2231L450.384 75.7583M456.48 70.2231H509.183M509.183 70.2231L504.307 75.7583M396.461 75.7583H450.384M396.461 75.7583H342.538M444 81.5556L448.025 77.9008L450.384 75.7583M444 81.5556L437.305 87.634M444 81.5556H499.2M450.384 75.7583H504.307M342.538 75.7583H288.615M342.538 75.7583L351.072 70.2231M504.307 75.7583L499.2 81.5556M351.072 70.2231H298.368M437.305 87.634L430.279 94.0149M437.305 87.634H493.845M499.2 81.5556L493.845 87.634M493.845 87.634L488.223 94.0149M372.334 94.0149L363.472 100.721M372.334 94.0149H430.279M372.334 94.0149H314.391M430.279 94.0149L422.894 100.721M430.279 94.0149H488.223M488.223 94.0149L482.315 100.721M363.472 100.721H422.894M363.472 100.721H304.051M415.123 107.778L422.894 100.721M415.123 107.778L406.934 115.213M415.123 107.778H476.098M422.894 100.721H482.315M304.051 100.721H244.63M304.051 100.721L314.391 94.0149M482.315 100.721L476.098 107.778M314.391 94.0149H256.446M406.934 115.213L398.293 123.06M406.934 115.213H469.547M476.098 107.778L469.547 115.213M469.547 115.213L462.634 123.06M333.951 123.06L322.994 131.352M333.951 123.06H398.293M333.951 123.06H269.609M398.293 123.06L389.161 131.352M398.293 123.06H462.634M462.634 123.06L455.329 131.352M322.994 131.352H389.161M322.994 131.352H256.826M379.496 140.128L389.161 131.352M379.496 140.128L369.25 149.432M379.496 140.128H447.597M389.161 131.352H455.329M256.826 131.352H190.658M256.826 131.352L269.609 123.06M455.329 131.352L447.597 140.128M269.609 123.06H205.268M369.25 149.432L358.367 159.315M369.25 149.432H439.4M447.597 140.128L439.4 149.432M439.4 149.432L430.694 159.315M286.04 159.315L272.146 169.829M286.04 159.315H358.367M286.04 159.315H213.714M358.367 159.315L346.788 169.829M358.367 159.315H430.694M430.694 159.315L421.43 169.829M272.146 169.829H346.788M272.146 169.829H197.503M334.443 181.039L346.788 169.829M334.443 181.039L321.252 193.017M334.443 181.039H411.554M346.788 169.829H421.43M197.503 169.829H122.861M197.503 169.829L213.714 159.315M421.43 169.829L411.554 181.039M213.714 159.315H141.387M321.252 193.017L307.128 205.842M321.252 193.017H401.002M411.554 181.039L401.002 193.017M401.002 193.017L389.702 205.842M224.553 205.842L206.359 219.61M224.553 205.842H307.128M224.553 205.842H141.979M307.128 205.842L291.966 219.61M307.128 205.842H389.702M389.702 205.842L377.573 219.61M206.359 219.61H291.966M206.359 219.61H120.752M275.648 234.428L291.966 219.61M275.648 234.428L258.036 250.42M275.648 234.428H364.518M291.966 219.61H377.573M120.752 219.61H35.1456M120.752 219.61L141.979 205.842M377.573 219.61L364.518 234.428M141.979 205.842H59.404M258.036 250.42L238.971 267.732M258.036 250.42H350.429M364.518 234.428L350.429 250.42M350.429 250.42L335.177 267.732M142.766 267.732L117.917 286.535M142.766 267.732H238.971M142.766 267.732H46.5594M238.971 267.732L218.265 286.535M238.971 267.732H335.177M335.177 267.732L318.612 286.535M117.917 286.535H218.265M117.917 286.535H17.5704M195.695 307.029L218.265 286.535M195.695 307.029L171 329.454M195.695 307.029H300.556M218.265 286.535H318.612M17.5704 286.535H-82.7767M17.5704 286.535L46.5594 267.732M318.612 286.535L300.556 307.029M46.5594 267.732H-49.6459M171 329.454L143.863 354.096M171 329.454H280.8M300.556 307.029L280.8 329.454M280.8 329.454L259.09 354.096M28.6355 354.096L-7.31556 381.3M28.6355 354.096H143.863M28.6355 354.096H-86.5922M143.863 354.096L113.904 381.3M143.863 354.096H259.09M259.09 354.096L235.123 381.3M113.904 381.3H-7.31556M113.904 381.3H235.123M-7.31556 381.3L-106.462 381.3M-86.5922 354.096L-106.462 366.983M-86.5922 354.096H-106.462M305.433 19.1572L297.927 22.5653M305.433 19.1572H346.89M305.433 19.1572H263.977M353.409 15.8682L359.705 12.6922M353.409 15.8682L346.89 19.1572M353.409 15.8682H394.142M359.705 12.6922H399.738M359.705 12.6922L365.788 9.62381M326.43 9.62381H365.788M326.43 9.62381L328.907 8.49963L332.965 6.65693M326.43 9.62381H287.074M346.89 19.1572L340.134 22.5653M346.89 19.1572H388.346M394.142 15.8682L399.738 12.6922M394.142 15.8682L388.346 19.1572M399.738 12.6922L403.81 10.3811L405.145 9.62381M365.788 9.62381L366.534 9.24708L371.669 6.65693M365.788 9.62381H405.145M388.346 19.1572L382.341 22.5653M444.502 9.62381L449.076 6.65693M444.502 9.62381H405.145M405.145 9.62381L407.126 8.49963L410.372 6.65693M297.927 22.5653H340.134M297.927 22.5653H255.72M333.13 26.0989L340.134 22.5653M333.13 26.0989L325.862 29.7652M333.13 26.0989H376.115M340.134 22.5653H382.341M255.72 22.5653H213.512M255.72 22.5653L263.977 19.1572M382.341 22.5653L376.115 26.0989M263.977 19.1572H222.52M325.862 29.7652L324.002 30.7032L318.316 33.5718M325.862 29.7652H369.655M376.115 26.0989L369.655 29.7652M369.655 29.7652L362.947 33.5718M273.684 33.5718L272.614 34.0582L264.973 37.5274M273.684 33.5718H318.316M273.684 33.5718H229.052M318.316 33.5718L310.475 37.5274M318.316 33.5718H362.947M362.947 33.5718L362.091 34.0582L355.978 37.5274M264.973 37.5274H310.475M264.973 37.5274H219.47M302.323 41.6403L310.475 37.5274M302.323 41.6403L293.838 45.9203M302.323 41.6403H348.731M310.475 37.5274H355.978M219.47 37.5274H173.967M219.47 37.5274L229.052 33.5718M355.978 37.5274L348.731 41.6403M229.052 33.5718H184.421M293.838 45.9203L285.002 50.3777M293.838 45.9203H341.19M348.731 41.6403L341.19 45.9203M341.19 45.9203L333.336 50.3777M236.67 50.3777L226.436 55.024M236.67 50.3777H285.002M236.67 50.3777H188.336M285.002 50.3777L275.792 55.024M285.002 50.3777H333.336M333.336 50.3777L325.148 55.024M226.436 55.024H275.792M226.436 55.024H177.079M266.184 59.8713L275.792 55.024M266.184 59.8713L256.15 64.9325M266.184 59.8713H316.607M275.792 55.024H325.148M177.079 55.024H127.723M177.079 55.024L188.336 50.3777M325.148 55.024L316.607 59.8713M188.336 50.3777H140.003M256.15 64.9325L245.664 70.2231M256.15 64.9325H307.689M316.607 59.8713L307.689 64.9325M307.689 64.9325L298.368 70.2231M192.959 70.2231L180.768 75.7583M192.959 70.2231H245.664M192.959 70.2231H140.255M245.664 70.2231L234.691 75.7583M245.664 70.2231H298.368M298.368 70.2231L288.615 75.7583M180.768 75.7583H234.691M180.768 75.7583H126.845M223.199 81.5556L234.691 75.7583M223.199 81.5556L211.15 87.634M223.199 81.5556H278.399M234.691 75.7583H288.615M126.845 75.7583H72.9218M126.845 75.7583L140.255 70.2231M288.615 75.7583L278.399 81.5556M140.255 70.2231H87.551M211.15 87.634L198.502 94.0149M211.15 87.634H267.689M278.399 81.5556L267.689 87.634M267.689 87.634L256.446 94.0149M140.557 94.0149L125.788 100.721M140.557 94.0149H198.502M140.557 94.0149H82.6138M198.502 94.0149L185.209 100.721M198.502 94.0149H256.446M256.446 94.0149L244.63 100.721M125.788 100.721H185.209M125.788 100.721H66.3661M171.22 107.778L185.209 100.721M171.22 107.778L156.481 115.213M171.22 107.778H232.196M185.209 100.721H244.63M66.3661 100.721H6.94521M66.3661 100.721L82.6138 94.0149M244.63 100.721L232.196 107.778M82.6138 94.0149H24.6694M156.481 115.213L140.927 123.06M156.481 115.213H219.094M232.196 107.778L219.094 115.213M219.094 115.213L205.268 123.06M76.5849 123.06L58.3227 131.352M76.5849 123.06H140.927M76.5849 123.06H12.244M140.927 123.06L124.49 131.352M140.927 123.06H205.268M205.268 123.06L190.658 131.352M58.3227 131.352H124.49M58.3227 131.352H-7.84502M107.093 140.128L124.49 131.352M107.093 140.128L88.6495 149.432M107.093 140.128H175.194M124.49 131.352H190.658M-7.84502 131.352H-74.0128M-7.84502 131.352L12.244 123.06M190.658 131.352L175.194 140.128M12.244 123.06H-52.0977M88.6495 149.432L69.0607 159.315M88.6495 149.432H158.8M175.194 140.128L158.8 149.432M158.8 149.432L141.387 159.315M-3.26591 159.315L-26.4241 169.829M-3.26591 159.315H69.0607M-3.26591 159.315H-75.5925M69.0607 159.315L48.2184 169.829M69.0607 159.315H141.387M141.387 159.315L122.861 169.829M-26.4241 169.829H48.2184M-26.4241 169.829H-101.066M25.996 181.039L48.2184 169.829M25.996 181.039L2.25417 193.017M25.996 181.039H103.107M48.2184 169.829H122.861M-101.066 169.829L-75.5925 159.315M-101.066 169.829H-106.462M-101.066 169.829L-106.462 172.056M122.861 169.829L103.107 181.039M-75.5925 159.315H-106.462M2.25417 193.017L-23.1699 205.842M2.25417 193.017H82.0034M103.107 181.039L82.0034 193.017M82.0034 193.017L59.404 205.842M-105.745 205.842H-23.1699M-105.745 205.842H-106.462M-105.745 205.842L-106.462 206.168M-23.1699 205.842L-50.462 219.61M-23.1699 205.842H59.404M59.404 205.842L35.1456 219.61M-79.8342 234.428L-50.462 219.61M-79.8342 234.428H9.03632M-79.8342 234.428H-106.462M-79.8342 234.428L-106.462 247.861M-50.462 219.61H35.1456M-50.462 219.61H-106.462M35.1456 219.61L9.03632 234.428M9.03632 234.428L-19.1417 250.42M-19.1417 250.42L-49.6459 267.732M-19.1417 250.42H-106.462M-49.6459 267.732L-82.7767 286.535M-49.6459 267.732H-106.462M-82.7767 286.535H-106.462M-82.7767 286.535L-106.462 299.977M139.606 19.1572L129.098 22.5653M139.606 19.1572H181.063M139.606 19.1572H98.1495M190.48 15.8682L199.574 12.6922M190.48 15.8682L181.063 19.1572M190.48 15.8682H231.212M199.574 12.6922H239.606M199.574 12.6922L208.36 9.62381M169.003 9.62381H208.36M169.003 9.62381L178.151 6.65693M169.003 9.62381H129.646M181.063 19.1572L171.305 22.5653M181.063 19.1572H222.52M231.212 15.8682L239.606 12.6922M231.212 15.8682L222.52 19.1572M239.606 12.6922L247.717 9.62381M208.36 9.62381L209.437 9.24708L216.854 6.65693M208.36 9.62381H247.717M222.52 19.1572L213.512 22.5653M287.074 9.62381L294.261 6.65693M287.074 9.62381H247.717M247.717 9.62381L248.711 9.24708L255.558 6.65693M129.098 22.5653H171.305M129.098 22.5653H86.8907M161.187 26.0989L171.305 22.5653M161.187 26.0989L150.689 29.7652M161.187 26.0989H204.173M171.305 22.5653H213.512M86.8907 22.5653H44.6835M86.8907 22.5653L98.1495 19.1572M213.512 22.5653L204.173 26.0989M98.1495 19.1572H56.693M150.689 29.7652L139.789 33.5718M150.689 29.7652H194.482M204.173 26.0989L202.981 26.5493L194.482 29.7652M194.482 29.7652L184.421 33.5718M95.158 33.5718L82.9616 37.5274M95.158 33.5718H139.789M95.158 33.5718H50.5264M139.789 33.5718L128.464 37.5274M139.789 33.5718H184.421M184.421 33.5718L173.967 37.5274M82.9616 37.5274H128.464M82.9616 37.5274H37.4589M116.688 41.6403L128.464 37.5274M116.688 41.6403L104.433 45.9203M116.688 41.6403H163.097M128.464 37.5274H173.967M37.4589 37.5274H-8.04389M37.4589 37.5274L50.5264 33.5718M173.967 37.5274L163.097 41.6403M50.5264 33.5718H5.89491M104.433 45.9203L91.6704 50.3777M104.433 45.9203H151.784M163.097 41.6403L151.784 45.9203M151.784 45.9203L140.003 50.3777M43.3371 50.3777L29.01 55.024M43.3371 50.3777H91.6704M43.3371 50.3777H-4.9963M91.6704 50.3777L78.367 55.024M91.6704 50.3777H140.003M140.003 50.3777L127.723 55.024M29.01 55.024H78.367M29.01 55.024H-20.3461M64.4876 59.8713L78.367 55.024M64.4876 59.8713L49.9953 64.9325M64.4876 59.8713H114.912M78.367 55.024H127.723M-20.3461 55.024H-69.7022M-20.3461 55.024L-4.9963 50.3777M127.723 55.024L114.912 59.8713M-4.9963 50.3777H-53.3288M49.9953 64.9325L34.8469 70.2231M49.9953 64.9325H101.534M114.912 59.8713L101.534 64.9325M101.534 64.9325L87.551 70.2231M-17.8573 70.2231L-34.9246 75.7583M-17.8573 70.2231H34.8469M-17.8573 70.2231H-70.5606M34.8469 70.2231L18.9986 75.7583M34.8469 70.2231H87.551M87.551 70.2231L72.9218 75.7583M-34.9246 75.7583H18.9986M2.3988 81.5556L18.9986 75.7583M2.3988 81.5556L-15.0051 87.634M2.3988 81.5556H57.5996M18.9986 75.7583H72.9218M72.9218 75.7583L57.5996 81.5556M-70.5606 70.2231H-106.462M-15.0051 87.634L-33.2751 94.0149M-15.0051 87.634H41.5335M57.5996 81.5556L41.5335 87.634M41.5335 87.634L24.6694 94.0149M-91.2195 94.0149H-33.2751M-91.2195 94.0149H-106.462M-91.2195 94.0149L-106.462 98.9579M-33.2751 94.0149L-52.4765 100.721M-33.2751 94.0149H24.6694M24.6694 94.0149L6.94521 100.721M-72.6818 107.778L-52.4765 100.721M-72.6818 107.778L-93.9727 115.213M-72.6818 107.778H-11.7061M-72.6818 107.778H-106.462M-52.4765 100.721H6.94521M-52.4765 100.721H-106.462M6.94521 100.721L-11.7061 107.778M-106.63 99.0123L-106.462 98.9579M-93.9727 115.213H-31.3596M-93.9727 115.213H-106.462M-93.9727 115.213L-106.462 119.575M-11.7061 107.778L-31.3596 115.213M-31.3596 115.213L-52.0977 123.06M-52.0977 123.06L-74.0128 131.352M-52.0977 123.06H-106.462M-97.2088 140.128L-74.0128 131.352M-97.2088 140.128H-106.462M-97.2088 140.128L-106.462 143.629M-74.0128 131.352H-106.462M-26.22 19.1572L-39.7309 22.5653M-26.22 19.1572H15.2365M-26.22 19.1572H-67.6774M27.5508 15.8682L39.4424 12.6922M27.5508 15.8682L15.2365 19.1572M27.5508 15.8682H68.2833M39.4424 12.6922H79.475M39.4424 12.6922L50.9319 9.62381M11.5751 9.62381H50.9319M11.5751 9.62381L23.3367 6.65693M11.5751 9.62381H-27.7817M15.2365 19.1572L2.47628 22.5653M15.2365 19.1572H56.693M68.2833 15.8682L79.475 12.6922M68.2833 15.8682L56.693 19.1572M79.475 12.6922L90.2887 9.62381M50.9319 9.62381H90.2887M50.9319 9.62381L62.0409 6.65693M56.693 19.1572L44.6835 22.5653M129.646 9.62381L139.448 6.65693M129.646 9.62381H90.2887M90.2887 9.62381L100.744 6.65693M-39.7309 22.5653H2.47628M-39.7309 22.5653H-81.9382M-10.7549 26.0989L2.47628 22.5653M-10.7549 26.0989L-24.4827 29.7652M-10.7549 26.0989H32.2306M2.47628 22.5653H44.6835M-81.9382 22.5653L-67.6774 19.1572M-81.9382 22.5653H-106.462M44.6835 22.5653L32.2306 26.0989M-67.6774 19.1572H-106.462M-24.4827 29.7652L-38.7366 33.5718M-24.4827 29.7652H19.3103M32.2306 26.0989L19.3103 29.7652M19.3103 29.7652L5.89491 33.5718M-83.3681 33.5718L-99.0494 37.5274M-83.3681 33.5718H-38.7366M-83.3681 33.5718H-106.462M-38.7366 33.5718L-53.5466 37.5274M-38.7366 33.5718H5.89491M5.89491 33.5718L-8.04389 37.5274M-68.9464 41.6403L-53.5466 37.5274M-68.9464 41.6403L-84.972 45.9203M-68.9464 41.6403H-22.538M-68.9464 41.6403H-106.462M-53.5466 37.5274H-99.0494M-53.5466 37.5274H-8.04389M-99.0494 37.5274L-106.462 39.3969M-99.0494 37.5274H-106.462M-8.04389 37.5274L-22.538 41.6403M-84.972 45.9203L-101.662 50.3777M-84.972 45.9203H-37.6209M-84.972 45.9203H-106.462M-22.538 41.6403L-37.6209 45.9203M-37.6209 45.9203L-53.3288 50.3777M-101.662 50.3777H-53.3288M-101.662 50.3777L-106.462 51.6593M-101.662 50.3777H-106.462M-53.3288 50.3777L-69.7022 55.024M-86.7842 59.8713L-69.7022 55.024M-86.7842 59.8713L-104.621 64.9325M-86.7842 59.8713H-106.462M-69.7022 55.024H-106.462M-106.72 55.024H-106.462M-104.621 64.9325H-106.462M-104.621 64.9325L-106.462 65.4549M-106.907 65.5812L-106.462 65.4549M-94.6459 15.8682L-80.6563 12.6922M-94.6459 15.8682H-106.462M-94.6459 15.8682L-106.462 18.5504M-80.6563 12.6922L-67.1385 9.62381M-80.6563 12.6922H-106.462M-27.7817 9.62381L-15.3667 6.65693M-27.7817 9.62381H-67.1385M-67.1385 9.62381L-54.0701 6.65693M-67.1385 9.62381H-106.462M1261.85 6.65693H1300.55M1261.85 6.65693H1223.15M1291.07 3.78723L1293.41 4.49592L1300.55 6.65693M1291.07 3.78723H1329.14M1300.55 6.65693H1339.26M1329.14 3.78723L1331.64 4.49592L1332.9 4.85191L1339.26 6.65693M1339.26 6.65693H1377.96M1377.96 6.65693H1416.66M1223.15 6.65693H1184.44M1416.66 6.65693H1455.37M1455.37 6.65693L1443.36 3.78723M1455.37 6.65693H1494.07M1443.36 3.78723H1481.43M1107.03 6.65693H1145.74M1107.03 6.65693H1068.33M1138.79 3.78723L1140.5 4.49592L1141.37 4.85191L1145.74 6.65693M1138.79 3.78723H1176.86M1145.74 6.65693H1184.44M1176.86 3.78723L1184.44 6.65693M1068.33 6.65693H1029.63M952.221 6.65693H990.924M952.221 6.65693H913.518M986.5 3.78723L987.045 4.14049L987.592 4.49592L988.142 4.85191L990.924 6.65693M986.5 3.78723H1024.57M990.924 6.65693H1029.63M1024.57 3.78723L1029.63 6.65693M913.518 6.65693H874.814M797.407 6.65693H836.11M797.407 6.65693H758.703M834.214 3.78723L836.11 6.65693M834.214 3.78723H872.286M836.11 6.65693H874.814M872.286 3.78723L872.598 4.14049L872.91 4.49592L873.224 4.85191L874.814 6.65693M758.703 6.65693H720M642.593 6.65693H681.297M642.593 6.65693H603.89M681.929 3.78723L681.297 6.65693M681.929 3.78723H720M681.297 6.65693H720M720 3.78723V6.65693M603.89 6.65693H565.186M487.779 6.65693H526.482M487.779 6.65693H449.076M529.643 3.78723L528.863 4.49592L527.282 5.93023L526.482 6.65693M529.643 3.78723H567.714M526.482 6.65693H565.186M567.714 3.78723L567.402 4.14049L567.09 4.49592L566.776 4.85191L565.186 6.65693M449.076 6.65693H410.372M332.965 6.65693H371.669M332.965 6.65693H294.261M377.358 3.78723L375.953 4.49592L375.246 4.85191L371.669 6.65693M377.358 3.78723H415.429M371.669 6.65693H410.372M415.429 3.78723L414.806 4.14049L410.372 6.65693M294.261 6.65693H255.558M178.151 6.65693H216.854M178.151 6.65693H139.448M225.072 3.78723L223.043 4.49592L222.022 4.85191L216.854 6.65693M225.072 3.78723H263.143M216.854 6.65693H255.558M263.143 3.78723L262.208 4.14049L255.558 6.65693M139.448 6.65693H100.744M23.3367 6.65693H62.0409M23.3367 6.65693H-15.3667M72.7858 3.78723L62.0409 6.65693M72.7858 3.78723H110.857M62.0409 6.65693H100.744M110.857 3.78723L108.361 4.49592L107.104 4.85191L100.744 6.65693M-15.3667 6.65693H-54.0701M-79.4993 3.78723L-92.7734 6.65693M-79.4993 3.78723H-41.4278M-79.4993 3.78723H-106.462M-92.7734 6.65693H-54.0701M-92.7734 6.65693L-106.462 9.61655M-92.7734 6.65693H-106.462M-41.4278 3.78723L-44.5494 4.49592L-54.0701 6.65693M1481.43 3.78723L1484.55 4.49592L1494.07 6.65693M1494.07 6.65693H1532.77M1532.77 6.65693L1546.46 9.61656M1532.77 6.65693H1546.46M1546.46 143.629V140.128M1546.46 143.629V149.432M1546.46 140.128V131.352M1546.46 149.432V151.167V159.315M1546.46 159.315V169.829M1546.46 75.7583V70.2231M1546.46 75.7583V81.0897M1546.46 3.78723V6.65693M1546.46 6.65693V9.61656M1546.46 9.61656L1546.5 9.62381H1546.46M1546.46 9.61656V9.62381M1546.46 9.62381V12.6922M1546.46 12.6922V15.8682M1546.46 15.8682V18.5504M1546.46 18.5504V19.1572M1546.46 19.1572V22.5653M1546.46 22.5653V26.0989M1546.46 26.0989V28.4248M1546.46 28.4248V29.7652M1546.46 29.7652V33.5718M1546.46 33.5718V37.5274M1546.46 37.5274V39.3969M1546.46 39.3969V41.6403M1546.46 41.6403V45.9203M1546.46 45.9203V50.3777M1546.46 50.3777V51.6593M1546.46 51.6593V55.024M1546.46 55.024V59.8713M1546.46 59.8713V64.9325M1546.46 64.9325V65.4549M1546.46 65.4549V70.2231M1546.46 81.5556V87.634M1546.46 81.5556V81.0897M1546.46 87.634V94.0149M1546.46 94.0149V98.9579M1546.46 98.9579V100.721M1546.46 100.721V107.778M1546.46 107.778V115.213M1546.46 115.213V119.575M1546.46 119.575V123.06M1546.46 123.06V131.352M1546.46 169.829V172.056M1546.46 172.056V181.039M1546.46 181.039V193.017M1546.46 193.017V205.842M1546.46 205.842V206.168M1546.46 206.168V219.61M1546.46 219.61V234.428M1546.46 234.428V247.861M1546.46 247.861V250.42M1546.46 250.42V267.732M1546.46 267.732V286.535M1546.46 286.535V299.977M1546.46 299.977V307.029M1546.46 307.029V329.454M1546.46 329.454V354.096M1546.46 354.096V366.983M1546.46 366.983V381.3M1546.46 381.3V381.397H-106.462V381.3M-106.462 81.5556V87.634M-106.462 81.5556V81.0897M-106.462 81.0897V75.7583M-106.462 75.7583V70.2231M-106.462 70.2231V65.4549M-106.462 65.4549V64.9325M-106.462 64.9325V59.8713M-106.462 59.8713V55.024M-106.462 55.024V51.6593M-106.462 51.6593V50.3777M-106.462 50.3777V45.9203M-106.462 45.9203V41.6403M-106.462 41.6403V39.3969M-106.462 39.3969V37.5274M-106.462 37.5274V33.5718M-106.462 33.5718V29.7652M-106.462 29.7652V28.4248M-106.462 28.4248V26.0989M-106.462 26.0989V22.5653M-106.462 22.5653V19.1572M-106.462 19.1572V18.5504M-106.462 18.5504V15.8682M-106.462 15.8682V12.6922M-106.462 12.6922V9.62381M-106.462 9.62381H-106.495L-106.462 9.61655M-106.462 9.62381V9.61655M-106.462 9.61655V6.65693M-106.462 6.65693V3.78723M-106.462 381.3V366.983M-106.462 366.983V354.096M-106.462 354.096V329.454M-106.462 329.454V307.029M-106.462 307.029V299.977M-106.462 299.977V286.535M-106.462 286.535V267.732M-106.462 267.732V250.42M-106.462 250.42V247.861M-106.462 247.861V234.428M-106.462 234.428V219.61M-106.462 219.61V206.168M-106.462 206.168V205.842M-106.462 205.842V193.017M-106.462 193.017V181.039M-106.462 181.039V172.056M-106.462 172.056V169.829M-106.462 169.829V159.315M-106.462 159.315V149.432M-106.462 149.432V143.629M-106.462 143.629V140.128M-106.462 140.128V131.352M-106.462 131.352V123.06M-106.462 123.06V119.575M-106.462 119.575V115.213M-106.462 115.213V107.778M-106.462 107.778V100.721M-106.462 100.721V98.9579M-106.462 98.9579V94.0149M-106.462 94.0149V87.634" stroke="url(#paint0_radial_15_248)" stroke-opacity="0.6" stroke-width="0.999644" stroke-miterlimit="10" stroke-linecap="round" stroke-linejoin="round"/>
<defs>
<radialGradient id="paint0_radial_15_248" cx="0" cy="0" r="1" gradientUnits="userSpaceOnUse" gradientTransform="translate(720 367.377) rotate(-90) scale(595.447 2588.83)">
<stop stop-color="#525252"/>
<stop offset="0.489074" stop-color="#CED2DF" stop-opacity="0"/>
</radialGradient>
</defs>
</svg>
