<svg width="45" height="37" viewBox="0 0 45 37" fill="none" xmlns="http://www.w3.org/2000/svg">
<path d="M18.3492 6.11506L7.85029 18.961C3.38968 18.1816 0 14.2653 0 9.55027C0 4.27718 4.25025 0 9.49015 0C13.53 0 16.9819 2.54032 18.3492 6.11506Z" fill="#D0F603"/>
<path d="M30.0247 18.5514L44.8026 36.6079H32.659C31.0095 36.6079 29.4701 35.9343 28.5569 34.8182L23.1354 28.1691L22.6381 27.5725L22.1457 28.1691L16.7241 34.8182C15.811 35.9343 14.2715 36.6079 12.6221 36.6079H0.478516L16.7241 16.7376C17.1353 16.3238 17.5082 15.8668 17.8333 15.3808L17.8429 15.3712L28.5569 2.27024C29.4701 1.15404 31.0095 0.480469 32.659 0.480469H44.8026L30.0247 18.537H30.0342L30.0247 18.5514Z" fill="#D0F603"/>
</svg>
